<svg width="370" height="440" viewBox="0 0 370 440" fill="none" xmlns="http://www.w3.org/2000/svg">
<path d="M120.239 13.9979C120.372 6.26709 126.746 0.107407 134.477 0.2399L355.792 4.03285C363.523 4.16534 369.683 10.5398 369.55 18.2707L366.939 170.628C366.807 178.359 360.432 184.518 352.702 184.386L223.68 182.175C218.446 182.085 213.241 182.96 208.326 184.758L174.6 197.087C171.377 198.265 169.265 193.733 172.24 192.022V192.022C177.32 189.102 175.32 181.346 169.462 181.245L124.647 180.477C120.638 180.409 117.444 177.103 117.513 173.094L120.239 13.9979Z" fill="#ECC08D"/>
<path d="M121.551 17.7794C121.551 10.0474 127.819 3.77942 135.551 3.77942H351.793C359.525 3.77942 365.793 10.0474 365.793 17.7794V166.465C365.793 174.197 359.525 180.465 351.793 180.465H225.681C220.554 180.465 215.471 181.41 210.687 183.253L177.864 195.894C174.728 197.102 172.583 192.698 175.468 190.974V190.974C180.394 188.028 178.305 180.465 172.566 180.465H128.663C124.735 180.465 121.551 177.281 121.551 173.353V17.7794Z" fill="#FFFDFD"/>
<path d="M171.818 46.6437H167.047V38.3312H159.978V46.6437H155.18V26.7374H159.978V34.6398H167.047V26.7374H171.818V46.6437ZM181.812 46.9171C179.543 46.9171 177.706 46.2426 176.303 44.8937C174.899 43.5356 174.197 41.7719 174.197 39.6027V39.2198C174.197 37.7068 174.475 36.3715 175.031 35.214C175.596 34.0564 176.417 33.1632 177.492 32.5343C178.568 31.8963 179.844 31.5773 181.32 31.5773C183.398 31.5773 185.039 32.2244 186.242 33.5187C187.445 34.8038 188.047 36.5994 188.047 38.9054V40.6964H178.887C179.051 41.5258 179.411 42.1775 179.967 42.6515C180.523 43.1254 181.243 43.3624 182.127 43.3624C183.585 43.3624 184.724 42.852 185.545 41.8312L187.65 44.3195C187.076 45.1124 186.26 45.7459 185.203 46.2198C184.155 46.6847 183.025 46.9171 181.812 46.9171ZM181.293 35.132C179.944 35.132 179.142 36.0252 178.887 37.8116H183.535V37.4562C183.553 36.7179 183.366 36.1482 182.974 35.7472C182.583 35.337 182.022 35.132 181.293 35.132ZM194.773 46.6437H190.152V25.6437H194.773V46.6437ZM202.484 46.6437H197.863V25.6437H202.484V46.6437ZM204.754 39.1105C204.754 37.6339 205.041 36.3214 205.615 35.173C206.189 34.0154 207.014 33.1267 208.09 32.507C209.165 31.8872 210.428 31.5773 211.877 31.5773C214.092 31.5773 215.837 32.2654 217.113 33.6417C218.389 35.0089 219.027 36.8728 219.027 39.2335V39.3976C219.027 41.7036 218.385 43.5356 217.099 44.8937C215.823 46.2426 214.092 46.9171 211.904 46.9171C209.799 46.9171 208.108 46.2882 206.832 45.0304C205.556 43.7635 204.868 42.0499 204.767 39.8898L204.754 39.1105ZM209.361 39.3976C209.361 40.7648 209.575 41.7674 210.004 42.4054C210.432 43.0434 211.066 43.3624 211.904 43.3624C213.545 43.3624 214.383 42.1001 214.42 39.5753V39.1105C214.42 36.4581 213.572 35.132 211.877 35.132C210.336 35.132 209.502 36.2758 209.375 38.5636L209.361 39.3976ZM223.908 42.173C224.637 42.173 225.243 42.3917 225.726 42.8292C226.21 43.2576 226.451 43.809 226.451 44.4835C226.451 45.158 226.21 45.714 225.726 46.1515C225.243 46.5799 224.637 46.7941 223.908 46.7941C223.17 46.7941 222.559 46.5753 222.076 46.1378C221.602 45.7003 221.365 45.1489 221.365 44.4835C221.365 43.8182 221.602 43.2667 222.076 42.8292C222.559 42.3917 223.17 42.173 223.908 42.173ZM241.832 46.6437H237.047V26.7374H241.832V46.6437ZM246.59 32.9718L244.566 31.8781C245.323 30.5656 245.71 29.2804 245.728 28.0226V25.6437H249.092V27.8722C249.092 28.7198 248.846 29.6267 248.353 30.5929C247.87 31.5499 247.282 32.3429 246.59 32.9718ZM255.846 31.8507L255.996 33.587C257.044 32.2472 258.452 31.5773 260.221 31.5773C262.089 31.5773 263.351 32.3201 264.008 33.8058C265.01 32.3201 266.46 31.5773 268.355 31.5773C271.354 31.5773 272.894 33.3911 272.976 37.0187V46.6437H268.355V37.3058C268.355 36.5493 268.228 35.9978 267.973 35.6515C267.717 35.3051 267.252 35.132 266.578 35.132C265.667 35.132 264.988 35.5376 264.541 36.3488L264.555 36.5402V46.6437H259.933V37.3331C259.933 36.5584 259.81 35.9978 259.564 35.6515C259.318 35.3051 258.849 35.132 258.156 35.132C257.272 35.132 256.598 35.5376 256.133 36.3488V46.6437H251.525V31.8507H255.846ZM282.793 46.6437V26.7374H289.943C292.504 26.7374 294.45 27.2068 295.781 28.1456C297.121 29.0844 297.791 30.4471 297.791 32.2335C297.791 33.2635 297.554 34.143 297.08 34.8722C296.606 35.6014 295.909 36.1391 294.988 36.4855C296.027 36.7589 296.825 37.2693 297.381 38.0167C297.937 38.7641 298.215 39.6756 298.215 40.7511C298.215 42.7016 297.595 44.1691 296.355 45.1534C295.125 46.1287 293.297 46.6254 290.873 46.6437H282.793ZM287.592 38.1808V42.9523H290.736C291.602 42.9523 292.267 42.7563 292.732 42.3644C293.197 41.9633 293.43 41.4028 293.43 40.6827C293.43 39.0239 292.605 38.1899 290.955 38.1808H287.592ZM287.592 35.0363H290.094C291.142 35.0271 291.889 34.8357 292.336 34.462C292.782 34.0883 293.006 33.5369 293.006 32.8077C293.006 31.9692 292.764 31.3676 292.281 31.0031C291.798 30.6294 291.019 30.4425 289.943 30.4425H287.592V35.0363ZM309.603 36.0206L308.086 35.9113C306.637 35.9113 305.707 36.367 305.297 37.2784V46.6437H300.689V31.8507H305.01L305.16 33.7511C305.935 32.3019 307.015 31.5773 308.4 31.5773C308.892 31.5773 309.321 31.632 309.685 31.7413L309.603 36.0206ZM316.125 46.6437H311.504V31.8507H316.125V46.6437ZM311.23 28.0363C311.23 27.38 311.467 26.8422 311.941 26.423C312.415 26.0037 313.03 25.7941 313.787 25.7941C314.543 25.7941 315.159 26.0037 315.633 26.423C316.107 26.8422 316.344 27.38 316.344 28.0363C316.344 28.6925 316.107 29.2303 315.633 29.6495C315.159 30.0688 314.543 30.2784 313.787 30.2784C313.03 30.2784 312.415 30.0688 311.941 29.6495C311.467 29.2303 311.23 28.6925 311.23 28.0363ZM318.394 39.1105C318.394 37.6339 318.682 36.3214 319.256 35.173C319.83 34.0154 320.655 33.1267 321.73 32.507C322.806 31.8872 324.068 31.5773 325.517 31.5773C327.732 31.5773 329.478 32.2654 330.754 33.6417C332.03 35.0089 332.668 36.8728 332.668 39.2335V39.3976C332.668 41.7036 332.025 43.5356 330.74 44.8937C329.464 46.2426 327.732 46.9171 325.545 46.9171C323.439 46.9171 321.749 46.2882 320.473 45.0304C319.196 43.7635 318.508 42.0499 318.408 39.8898L318.394 39.1105ZM323.002 39.3976C323.002 40.7648 323.216 41.7674 323.644 42.4054C324.073 43.0434 324.706 43.3624 325.545 43.3624C327.185 43.3624 328.024 42.1001 328.06 39.5753V39.1105C328.06 36.4581 327.213 35.132 325.517 35.132C323.977 35.132 323.143 36.2758 323.016 38.5636L323.002 39.3976ZM339.271 40.3409H335.539L334.951 26.7374H339.859L339.271 40.3409ZM334.814 44.5792C334.814 43.9047 335.056 43.3533 335.539 42.9249C336.031 42.4874 336.642 42.2687 337.371 42.2687C338.1 42.2687 338.706 42.4874 339.189 42.9249C339.682 43.3533 339.928 43.9047 339.928 44.5792C339.928 45.2537 339.682 45.8097 339.189 46.2472C338.706 46.6756 338.1 46.8898 337.371 46.8898C336.642 46.8898 336.031 46.6756 335.539 46.2472C335.056 45.8097 334.814 45.2537 334.814 44.5792ZM157.93 77.6437H154.853V64.8468H157.93V77.6437ZM160.988 68.8546L159.687 68.1515C160.174 67.3077 160.423 66.4816 160.434 65.673V64.1437H162.597V65.5763C162.597 66.1212 162.438 66.7042 162.122 67.3253C161.811 67.9406 161.433 68.4503 160.988 68.8546ZM166.938 68.1339L167.035 69.2501C167.709 68.3888 168.614 67.9581 169.751 67.9581C170.952 67.9581 171.764 68.4357 172.185 69.3907C172.83 68.4357 173.762 67.9581 174.98 67.9581C176.908 67.9581 177.898 69.1241 177.951 71.4562V77.6437H174.98V71.6407C174.98 71.1544 174.898 70.7999 174.734 70.5773C174.57 70.3546 174.271 70.2433 173.838 70.2433C173.252 70.2433 172.815 70.504 172.528 71.0255L172.537 71.1486V77.6437H169.566V71.6583C169.566 71.1603 169.487 70.7999 169.329 70.5773C169.171 70.3546 168.869 70.2433 168.424 70.2433C167.855 70.2433 167.422 70.504 167.123 71.0255V77.6437H164.161V68.1339H166.938ZM187.927 73.4952L189.509 68.1339H192.682L188.806 79.2345L188.639 79.6388C188.088 80.8693 187.115 81.4845 185.721 81.4845C185.334 81.4845 184.927 81.4259 184.499 81.3087V79.1906H184.886C185.302 79.1906 185.618 79.129 185.835 79.006C186.057 78.8888 186.222 78.6749 186.327 78.3644L186.564 77.7316L183.26 68.1339H186.424L187.927 73.4952ZM192.945 72.8009C192.945 71.8517 193.13 71.0079 193.499 70.2697C193.868 69.5255 194.398 68.9542 195.09 68.5558C195.781 68.1573 196.593 67.9581 197.524 67.9581C198.948 67.9581 200.07 68.4005 200.891 69.2853C201.711 70.1642 202.121 71.3624 202.121 72.88V72.9855C202.121 74.4679 201.708 75.6456 200.882 76.5187C200.061 77.3859 198.948 77.8195 197.542 77.8195C196.188 77.8195 195.101 77.4152 194.281 76.6066C193.461 75.7921 193.018 74.6906 192.954 73.3019L192.945 72.8009ZM195.907 72.9855C195.907 73.8644 196.045 74.5089 196.32 74.9191C196.596 75.3292 197.003 75.5343 197.542 75.5343C198.597 75.5343 199.136 74.7228 199.159 73.0997V72.8009C199.159 71.0958 198.614 70.2433 197.524 70.2433C196.534 70.2433 195.998 70.9786 195.916 72.4493L195.907 72.9855ZM209.091 76.6154C208.464 77.4181 207.617 77.8195 206.551 77.8195C205.508 77.8195 204.717 77.5177 204.178 76.9142C203.644 76.3048 203.378 75.4318 203.378 74.295V68.1339H206.34V74.3126C206.34 75.1271 206.735 75.5343 207.526 75.5343C208.206 75.5343 208.689 75.2911 208.976 74.8048V68.1339H211.956V77.6437H209.179L209.091 76.6154ZM219.339 70.8146L218.363 70.7443C217.432 70.7443 216.834 71.0372 216.57 71.6232V77.6437H213.608V68.1339H216.386L216.482 69.3556C216.98 68.424 217.675 67.9581 218.565 67.9581C218.882 67.9581 219.157 67.9933 219.391 68.0636L219.339 70.8146ZM233.718 72.9591C233.718 74.4357 233.384 75.6163 232.716 76.5011C232.054 77.38 231.157 77.8195 230.026 77.8195C229.153 77.8195 228.435 77.5001 227.873 76.8615V81.2999H224.911V68.1339H227.68L227.767 69.0128C228.336 68.3097 229.083 67.9581 230.009 67.9581C231.181 67.9581 232.092 68.3917 232.742 69.2589C233.392 70.1202 233.718 71.3068 233.718 72.8185V72.9591ZM230.756 72.7745C230.756 71.087 230.264 70.2433 229.279 70.2433C228.576 70.2433 228.107 70.4952 227.873 70.9991V74.7433C228.131 75.2706 228.605 75.5343 229.297 75.5343C230.24 75.5343 230.726 74.7198 230.756 73.0909V72.7745ZM239.633 77.8195C238.174 77.8195 236.993 77.3859 236.091 76.5187C235.188 75.6456 234.737 74.5118 234.737 73.1173V72.8712C234.737 71.8986 234.916 71.0402 235.273 70.296C235.637 69.5519 236.164 68.9777 236.855 68.5734C237.547 68.1632 238.367 67.9581 239.316 67.9581C240.652 67.9581 241.707 68.3741 242.48 69.2062C243.254 70.0323 243.641 71.1866 243.641 72.6691V73.8204H237.752C237.857 74.3536 238.089 74.7726 238.446 75.0773C238.804 75.382 239.266 75.5343 239.835 75.5343C240.772 75.5343 241.505 75.2062 242.032 74.5499L243.386 76.1495C243.016 76.6593 242.492 77.0665 241.812 77.3712C241.139 77.67 240.412 77.8195 239.633 77.8195ZM239.299 70.2433C238.432 70.2433 237.916 70.8175 237.752 71.9659H240.74V71.7374C240.752 71.2628 240.632 70.8966 240.38 70.6388C240.128 70.3751 239.767 70.2433 239.299 70.2433ZM250.593 70.8146L249.617 70.7443C248.685 70.7443 248.088 71.0372 247.824 71.6232V77.6437H244.862V68.1339H247.64L247.736 69.3556C248.234 68.424 248.929 67.9581 249.819 67.9581C250.136 67.9581 250.411 67.9933 250.645 68.0636L250.593 70.8146ZM256.64 74.9718C256.64 74.7198 256.508 74.5177 256.244 74.3654C255.98 74.213 255.479 74.0548 254.741 73.8907C254.003 73.7267 253.393 73.5128 252.913 73.2491C252.432 72.9796 252.066 72.6544 251.814 72.2736C251.562 71.8927 251.436 71.4562 251.436 70.964C251.436 70.0909 251.797 69.3732 252.517 68.8107C253.238 68.2423 254.182 67.9581 255.348 67.9581C256.601 67.9581 257.609 68.2423 258.371 68.8107C259.133 69.379 259.514 70.1261 259.514 71.0519H256.543C256.543 70.2902 256.141 69.9093 255.339 69.9093C255.028 69.9093 254.767 69.9972 254.557 70.173C254.346 70.3429 254.24 70.5568 254.24 70.8146C254.24 71.0782 254.369 71.2921 254.627 71.4562C254.885 71.6202 255.295 71.755 255.857 71.8605C256.426 71.9659 256.924 72.0919 257.351 72.2384C258.781 72.7306 259.496 73.6124 259.496 74.8839C259.496 75.7511 259.109 76.4572 258.336 77.0021C257.568 77.547 256.572 77.8195 255.348 77.8195C254.533 77.8195 253.807 77.673 253.168 77.38C252.529 77.087 252.031 76.6886 251.674 76.1847C251.316 75.6808 251.138 75.1505 251.138 74.5939H253.906C253.918 75.0333 254.064 75.3556 254.346 75.5607C254.627 75.7599 254.987 75.8595 255.427 75.8595C255.831 75.8595 256.133 75.7775 256.332 75.6134C256.537 75.4493 256.64 75.2355 256.64 74.9718ZM260.516 72.8009C260.516 71.8517 260.7 71.0079 261.069 70.2697C261.438 69.5255 261.969 68.9542 262.66 68.5558C263.351 68.1573 264.163 67.9581 265.095 67.9581C266.518 67.9581 267.641 68.4005 268.461 69.2853C269.281 70.1642 269.691 71.3624 269.691 72.88V72.9855C269.691 74.4679 269.278 75.6456 268.452 76.5187C267.632 77.3859 266.518 77.8195 265.112 77.8195C263.759 77.8195 262.672 77.4152 261.851 76.6066C261.031 75.7921 260.589 74.6906 260.524 73.3019L260.516 72.8009ZM263.477 72.9855C263.477 73.8644 263.615 74.5089 263.891 74.9191C264.166 75.3292 264.573 75.5343 265.112 75.5343C266.167 75.5343 266.706 74.7228 266.729 73.0997V72.8009C266.729 71.0958 266.184 70.2433 265.095 70.2433C264.104 70.2433 263.568 70.9786 263.486 72.4493L263.477 72.9855ZM273.717 68.1339L273.813 69.2501C274.47 68.3888 275.375 67.9581 276.529 67.9581C277.519 67.9581 278.258 68.254 278.744 68.8458C279.236 69.4376 279.491 70.3282 279.509 71.5177V77.6437H276.538V71.6407C276.538 71.1603 276.441 70.8087 276.248 70.5861C276.055 70.3575 275.703 70.2433 275.193 70.2433C274.613 70.2433 274.182 70.4718 273.901 70.9288V77.6437H270.939V68.1339H273.717ZM286.514 77.6437C286.408 77.4503 286.314 77.1661 286.232 76.7911C285.687 77.4767 284.926 77.8195 283.947 77.8195C283.051 77.8195 282.289 77.5499 281.662 77.0109C281.035 76.4659 280.722 75.7833 280.722 74.963C280.722 73.9318 281.102 73.1525 281.864 72.6251C282.626 72.0978 283.733 71.8341 285.186 71.8341H286.1V71.3331C286.1 70.4601 285.723 70.0236 284.967 70.0236C284.264 70.0236 283.912 70.3693 283.912 71.0607H280.95C280.95 70.1407 281.34 69.3937 282.119 68.8195C282.904 68.2452 283.903 67.9581 285.116 67.9581C286.329 67.9581 287.287 68.254 287.99 68.8458C288.693 69.4376 289.054 70.2491 289.071 71.2804V75.4904C289.083 76.3634 289.218 77.0314 289.475 77.4943V77.6437H286.514ZM284.659 75.7101C285.028 75.7101 285.333 75.631 285.573 75.4728C285.819 75.3146 285.995 75.1359 286.1 74.9366V73.4161H285.239C284.208 73.4161 283.692 73.879 283.692 74.8048C283.692 75.0743 283.783 75.2941 283.965 75.464C284.146 75.6281 284.378 75.7101 284.659 75.7101ZM293.844 77.6437H290.873V64.1437H293.844V77.6437ZM157.306 89.1339L157.402 90.2501C158.076 89.3888 158.981 88.9581 160.118 88.9581C161.319 88.9581 162.131 89.4357 162.553 90.3907C163.197 89.4357 164.129 88.9581 165.348 88.9581C167.275 88.9581 168.266 90.1241 168.318 92.4562V98.6437H165.348V92.6407C165.348 92.1544 165.266 91.7999 165.101 91.5773C164.937 91.3546 164.639 91.2433 164.205 91.2433C163.619 91.2433 163.182 91.504 162.895 92.0255L162.904 92.1486V98.6437H159.933V92.6583C159.933 92.1603 159.854 91.7999 159.696 91.5773C159.538 91.3546 159.236 91.2433 158.791 91.2433C158.223 91.2433 157.789 91.504 157.49 92.0255V98.6437H154.528V89.1339H157.306ZM169.637 93.8009C169.637 92.8517 169.821 92.0079 170.19 91.2697C170.559 90.5255 171.09 89.9542 171.781 89.5558C172.473 89.1573 173.284 88.9581 174.216 88.9581C175.64 88.9581 176.762 89.4005 177.582 90.2853C178.402 91.1642 178.812 92.3624 178.812 93.88V93.9855C178.812 95.4679 178.399 96.6456 177.573 97.5187C176.753 98.3859 175.64 98.8195 174.233 98.8195C172.88 98.8195 171.793 98.4152 170.973 97.6066C170.152 96.7921 169.71 95.6906 169.645 94.3019L169.637 93.8009ZM172.599 93.9855C172.599 94.8644 172.736 95.5089 173.012 95.9191C173.287 96.3292 173.694 96.5343 174.233 96.5343C175.288 96.5343 175.827 95.7228 175.85 94.0997V93.8009C175.85 92.0958 175.306 91.2433 174.216 91.2433C173.225 91.2433 172.689 91.9786 172.607 93.4493L172.599 93.9855ZM183.567 86.7697V89.1339H185.132V91.1906H183.567V95.5411C183.567 95.8986 183.632 96.1476 183.761 96.2882C183.89 96.4288 184.144 96.4991 184.525 96.4991C184.818 96.4991 185.064 96.4816 185.264 96.4464V98.5646C184.73 98.7345 184.174 98.8195 183.594 98.8195C182.574 98.8195 181.821 98.5792 181.335 98.0988C180.849 97.6183 180.605 96.8888 180.605 95.9103V91.1906H179.392V89.1339H180.605V86.7697H183.567ZM189.43 98.6437H186.459V89.1339H189.43V98.6437ZM186.283 86.6818C186.283 86.2599 186.435 85.9142 186.74 85.6447C187.045 85.3751 187.44 85.2404 187.927 85.2404C188.413 85.2404 188.808 85.3751 189.113 85.6447C189.418 85.9142 189.57 86.2599 189.57 86.6818C189.57 87.1036 189.418 87.4493 189.113 87.7189C188.808 87.9884 188.413 88.1232 187.927 88.1232C187.44 88.1232 187.045 87.9884 186.74 87.7189C186.435 87.4493 186.283 87.1036 186.283 86.6818ZM195.055 95.1193L196.557 89.1339H199.678L196.575 98.6437H193.552L190.449 89.1339H193.578L195.055 95.1193ZM205.777 98.6437C205.672 98.4503 205.578 98.1661 205.496 97.7911C204.951 98.4767 204.189 98.8195 203.211 98.8195C202.314 98.8195 201.553 98.5499 200.926 98.0109C200.299 97.4659 199.985 96.7833 199.985 95.963C199.985 94.9318 200.366 94.1525 201.128 93.6251C201.89 93.0978 202.997 92.8341 204.45 92.8341H205.364V92.3331C205.364 91.4601 204.986 91.0236 204.23 91.0236C203.527 91.0236 203.176 91.3693 203.176 92.0607H200.214C200.214 91.1407 200.603 90.3937 201.383 89.8195C202.168 89.2452 203.167 88.9581 204.38 88.9581C205.593 88.9581 206.551 89.254 207.254 89.8458C207.957 90.4376 208.317 91.2491 208.335 92.2804V96.4904C208.347 97.3634 208.481 98.0314 208.739 98.4943V98.6437H205.777ZM203.923 96.7101C204.292 96.7101 204.597 96.631 204.837 96.4728C205.083 96.3146 205.259 96.1359 205.364 95.9366V94.4161H204.503C203.472 94.4161 202.956 94.879 202.956 95.8048C202.956 96.0743 203.047 96.2941 203.228 96.464C203.41 96.6281 203.641 96.7101 203.923 96.7101ZM213.432 86.7697V89.1339H214.997V91.1906H213.432V95.5411C213.432 95.8986 213.497 96.1476 213.626 96.2882C213.755 96.4288 214.01 96.4991 214.391 96.4991C214.683 96.4991 214.93 96.4816 215.129 96.4464V98.5646C214.596 98.7345 214.039 98.8195 213.459 98.8195C212.439 98.8195 211.686 98.5792 211.2 98.0988C210.714 97.6183 210.471 96.8888 210.471 95.9103V91.1906H209.258V89.1339H210.471V86.7697H213.432ZM219.295 98.6437H216.324V89.1339H219.295V98.6437ZM216.148 86.6818C216.148 86.2599 216.301 85.9142 216.605 85.6447C216.91 85.3751 217.306 85.2404 217.792 85.2404C218.278 85.2404 218.674 85.3751 218.978 85.6447C219.283 85.9142 219.435 86.2599 219.435 86.6818C219.435 87.1036 219.283 87.4493 218.978 87.7189C218.674 87.9884 218.278 88.1232 217.792 88.1232C217.306 88.1232 216.91 87.9884 216.605 87.7189C216.301 87.4493 216.148 87.1036 216.148 86.6818ZM220.754 93.8009C220.754 92.8517 220.938 92.0079 221.307 91.2697C221.677 90.5255 222.207 89.9542 222.898 89.5558C223.59 89.1573 224.401 88.9581 225.333 88.9581C226.757 88.9581 227.879 89.4005 228.699 90.2853C229.519 91.1642 229.93 92.3624 229.93 93.88V93.9855C229.93 95.4679 229.516 96.6456 228.69 97.5187C227.87 98.3859 226.757 98.8195 225.35 98.8195C223.997 98.8195 222.91 98.4152 222.09 97.6066C221.269 96.7921 220.827 95.6906 220.763 94.3019L220.754 93.8009ZM223.716 93.9855C223.716 94.8644 223.853 95.5089 224.129 95.9191C224.404 96.3292 224.811 96.5343 225.35 96.5343C226.405 96.5343 226.944 95.7228 226.968 94.0997V93.8009C226.968 92.0958 226.423 91.2433 225.333 91.2433C224.343 91.2433 223.807 91.9786 223.724 93.4493L223.716 93.9855ZM233.955 89.1339L234.052 90.2501C234.708 89.3888 235.613 88.9581 236.767 88.9581C237.758 88.9581 238.496 89.254 238.982 89.8458C239.474 90.4376 239.729 91.3282 239.747 92.5177V98.6437H236.776V92.6407C236.776 92.1603 236.68 91.8087 236.486 91.5861C236.293 91.3575 235.941 91.2433 235.432 91.2433C234.851 91.2433 234.421 91.4718 234.14 91.9288V98.6437H231.178V89.1339H233.955ZM246.752 98.6437C246.646 98.4503 246.553 98.1661 246.471 97.7911C245.926 98.4767 245.164 98.8195 244.185 98.8195C243.289 98.8195 242.527 98.5499 241.9 98.0109C241.273 97.4659 240.96 96.7833 240.96 95.963C240.96 94.9318 241.341 94.1525 242.102 93.6251C242.864 93.0978 243.972 92.8341 245.425 92.8341H246.339V92.3331C246.339 91.4601 245.961 91.0236 245.205 91.0236C244.502 91.0236 244.15 91.3693 244.15 92.0607H241.188C241.188 91.1407 241.578 90.3937 242.357 89.8195C243.142 89.2452 244.141 88.9581 245.354 88.9581C246.567 88.9581 247.525 89.254 248.228 89.8458C248.932 90.4376 249.292 91.2491 249.309 92.2804V96.4904C249.321 97.3634 249.456 98.0314 249.714 98.4943V98.6437H246.752ZM244.897 96.7101C245.266 96.7101 245.571 96.631 245.811 96.4728C246.057 96.3146 246.233 96.1359 246.339 95.9366V94.4161H245.477C244.446 94.4161 243.931 94.879 243.931 95.8048C243.931 96.0743 244.021 96.2941 244.203 96.464C244.385 96.6281 244.616 96.7101 244.897 96.7101ZM254.082 98.6437H251.111V85.1437H254.082V98.6437ZM264.418 96.5343C264.834 96.5343 265.156 96.423 265.385 96.2003C265.613 95.9718 265.724 95.6554 265.719 95.2511H268.496C268.496 96.2941 268.121 97.1495 267.371 97.8175C266.627 98.4855 265.666 98.8195 264.488 98.8195C263.105 98.8195 262.016 98.3859 261.219 97.5187C260.422 96.6515 260.023 95.4503 260.023 93.9152V93.7921C260.023 92.8312 260.199 91.9845 260.551 91.2521C260.908 90.5138 261.421 89.9484 262.089 89.5558C262.757 89.1573 263.548 88.9581 264.462 88.9581C265.698 88.9581 266.68 89.3009 267.406 89.9865C268.133 90.672 268.496 91.6007 268.496 92.7726H265.719C265.719 92.2804 265.599 91.9025 265.358 91.6388C265.118 91.3751 264.796 91.2433 264.391 91.2433C263.624 91.2433 263.176 91.7325 263.047 92.7111C263.006 93.0216 262.985 93.4493 262.985 93.9943C262.985 94.9493 263.099 95.6115 263.328 95.9806C263.557 96.3497 263.92 96.5343 264.418 96.5343ZM269.375 93.8009C269.375 92.8517 269.559 92.0079 269.929 91.2697C270.298 90.5255 270.828 89.9542 271.519 89.5558C272.211 89.1573 273.022 88.9581 273.954 88.9581C275.378 88.9581 276.5 89.4005 277.32 90.2853C278.141 91.1642 278.551 92.3624 278.551 93.88V93.9855C278.551 95.4679 278.138 96.6456 277.311 97.5187C276.491 98.3859 275.378 98.8195 273.972 98.8195C272.618 98.8195 271.531 98.4152 270.711 97.6066C269.891 96.7921 269.448 95.6906 269.384 94.3019L269.375 93.8009ZM272.337 93.9855C272.337 94.8644 272.474 95.5089 272.75 95.9191C273.025 96.3292 273.432 96.5343 273.972 96.5343C275.026 96.5343 275.565 95.7228 275.589 94.0997V93.8009C275.589 92.0958 275.044 91.2433 273.954 91.2433C272.964 91.2433 272.428 91.9786 272.346 93.4493L272.337 93.9855ZM285.213 98.6437C285.107 98.4503 285.014 98.1661 284.932 97.7911C284.387 98.4767 283.625 98.8195 282.646 98.8195C281.75 98.8195 280.988 98.5499 280.361 98.0109C279.734 97.4659 279.421 96.7833 279.421 95.963C279.421 94.9318 279.802 94.1525 280.563 93.6251C281.325 93.0978 282.432 92.8341 283.886 92.8341H284.8V92.3331C284.8 91.4601 284.422 91.0236 283.666 91.0236C282.963 91.0236 282.611 91.3693 282.611 92.0607H279.649C279.649 91.1407 280.039 90.3937 280.818 89.8195C281.603 89.2452 282.602 88.9581 283.815 88.9581C285.028 88.9581 285.986 89.254 286.689 89.8458C287.392 90.4376 287.753 91.2491 287.77 92.2804V96.4904C287.782 97.3634 287.917 98.0314 288.175 98.4943V98.6437H285.213ZM283.358 96.7101C283.727 96.7101 284.032 96.631 284.272 96.4728C284.518 96.3146 284.694 96.1359 284.8 95.9366V94.4161H283.938C282.907 94.4161 282.391 94.879 282.391 95.8048C282.391 96.0743 282.482 96.2941 282.664 96.464C282.846 96.6281 283.077 96.7101 283.358 96.7101ZM293.439 96.5343C293.855 96.5343 294.178 96.423 294.406 96.2003C294.635 95.9718 294.746 95.6554 294.74 95.2511H297.517C297.517 96.2941 297.142 97.1495 296.392 97.8175C295.648 98.4855 294.687 98.8195 293.51 98.8195C292.127 98.8195 291.037 98.3859 290.24 97.5187C289.443 96.6515 289.045 95.4503 289.045 93.9152V93.7921C289.045 92.8312 289.221 91.9845 289.572 91.2521C289.93 90.5138 290.442 89.9484 291.11 89.5558C291.778 89.1573 292.569 88.9581 293.483 88.9581C294.72 88.9581 295.701 89.3009 296.428 89.9865C297.154 90.672 297.517 91.6007 297.517 92.7726H294.74C294.74 92.2804 294.62 91.9025 294.38 91.6388C294.14 91.3751 293.817 91.2433 293.413 91.2433C292.645 91.2433 292.197 91.7325 292.068 92.7111C292.027 93.0216 292.007 93.4493 292.007 93.9943C292.007 94.9493 292.121 95.6115 292.349 95.9806C292.578 96.3497 292.941 96.5343 293.439 96.5343ZM301.666 90.1534C302.299 89.3566 303.107 88.9581 304.092 88.9581C305.141 88.9581 305.932 89.2687 306.465 89.8898C306.998 90.5109 307.27 91.4279 307.282 92.6407V98.6437H304.311V92.7111C304.311 92.2072 304.209 91.838 304.004 91.6036C303.799 91.3634 303.45 91.2433 302.958 91.2433C302.349 91.2433 301.918 91.4366 301.666 91.8234V98.6437H298.704V85.1437H301.666V90.1534ZM309.972 102.089L308.477 101.386L308.776 100.788C309.186 100.026 309.4 99.2999 309.418 98.6085V96.4113H311.791L311.782 98.3185C311.776 98.9923 311.603 99.6779 311.264 100.375C310.924 101.072 310.493 101.644 309.972 102.089ZM157.93 119.644H154.853V106.847H157.93V119.644ZM160.988 110.855L159.687 110.151C160.174 109.308 160.423 108.482 160.434 107.673V106.144H162.597V107.576C162.597 108.121 162.438 108.704 162.122 109.325C161.811 109.941 161.433 110.45 160.988 110.855ZM168.107 116.119L169.61 110.134H172.73L169.628 119.644H166.604L163.502 110.134H166.631L168.107 116.119ZM178.092 119.819C176.633 119.819 175.452 119.386 174.55 118.519C173.647 117.646 173.196 116.512 173.196 115.117V114.871C173.196 113.899 173.375 113.04 173.732 112.296C174.096 111.552 174.623 110.978 175.314 110.573C176.006 110.163 176.826 109.958 177.775 109.958C179.111 109.958 180.166 110.374 180.939 111.206C181.713 112.032 182.099 113.187 182.099 114.669V115.82H176.211C176.316 116.354 176.548 116.773 176.905 117.077C177.263 117.382 177.725 117.534 178.294 117.534C179.231 117.534 179.964 117.206 180.491 116.55L181.845 118.15C181.475 118.659 180.951 119.067 180.271 119.371C179.598 119.67 178.871 119.819 178.092 119.819ZM177.758 112.243C176.891 112.243 176.375 112.818 176.211 113.966H179.199V113.737C179.211 113.263 179.091 112.897 178.839 112.639C178.587 112.375 178.226 112.243 177.758 112.243ZM196.61 114.968C196.61 116.526 196.288 117.725 195.643 118.563C194.999 119.401 194.091 119.819 192.919 119.819C191.952 119.819 191.173 119.436 190.581 118.668L190.458 119.644H187.804V106.144H190.766V110.899C191.316 110.272 192.028 109.958 192.901 109.958C194.085 109.958 194.999 110.383 195.643 111.233C196.288 112.082 196.61 113.277 196.61 114.818V114.968ZM193.64 114.783C193.64 113.869 193.516 113.219 193.27 112.832C193.03 112.44 192.658 112.243 192.154 112.243C191.486 112.243 191.023 112.498 190.766 113.008V116.787C191.017 117.291 191.486 117.543 192.172 117.543C192.869 117.543 193.311 117.203 193.499 116.524C193.593 116.19 193.64 115.609 193.64 114.783ZM202.525 119.819C201.066 119.819 199.886 119.386 198.983 118.519C198.081 117.646 197.63 116.512 197.63 115.117V114.871C197.63 113.899 197.808 113.04 198.166 112.296C198.529 111.552 199.057 110.978 199.748 110.573C200.439 110.163 201.26 109.958 202.209 109.958C203.545 109.958 204.599 110.374 205.373 111.206C206.146 112.032 206.533 113.187 206.533 114.669V115.82H200.644C200.75 116.354 200.981 116.773 201.339 117.077C201.696 117.382 202.159 117.534 202.727 117.534C203.665 117.534 204.397 117.206 204.925 116.55L206.278 118.15C205.909 118.659 205.385 119.067 204.705 119.371C204.031 119.67 203.305 119.819 202.525 119.819ZM202.191 112.243C201.324 112.243 200.808 112.818 200.644 113.966H203.633V113.737C203.644 113.263 203.524 112.897 203.272 112.639C203.02 112.375 202.66 112.243 202.191 112.243ZM212.334 119.819C210.875 119.819 209.694 119.386 208.792 118.519C207.89 117.646 207.438 116.512 207.438 115.117V114.871C207.438 113.899 207.617 113.04 207.974 112.296C208.338 111.552 208.865 110.978 209.557 110.573C210.248 110.163 211.068 109.958 212.017 109.958C213.353 109.958 214.408 110.374 215.182 111.206C215.955 112.032 216.342 113.187 216.342 114.669V115.82H210.453C210.558 116.354 210.79 116.773 211.147 117.077C211.505 117.382 211.968 117.534 212.536 117.534C213.474 117.534 214.206 117.206 214.733 116.55L216.087 118.15C215.718 118.659 215.193 119.067 214.514 119.371C213.84 119.67 213.113 119.819 212.334 119.819ZM212 112.243C211.133 112.243 210.617 112.818 210.453 113.966H213.441V113.737C213.453 113.263 213.333 112.897 213.081 112.639C212.829 112.375 212.469 112.243 212 112.243ZM220.262 110.134L220.358 111.25C221.015 110.389 221.92 109.958 223.074 109.958C224.064 109.958 224.803 110.254 225.289 110.846C225.781 111.438 226.036 112.328 226.054 113.518V119.644H223.083V113.641C223.083 113.16 222.986 112.809 222.793 112.586C222.599 112.358 222.248 112.243 221.738 112.243C221.158 112.243 220.727 112.472 220.446 112.929V119.644H217.484V110.134H220.262ZM237.163 116.972C237.163 116.72 237.031 116.518 236.767 116.365C236.504 116.213 236.003 116.055 235.265 115.891C234.526 115.727 233.917 115.513 233.436 115.249C232.956 114.98 232.59 114.654 232.338 114.274C232.086 113.893 231.96 113.456 231.96 112.964C231.96 112.091 232.32 111.373 233.041 110.811C233.762 110.242 234.705 109.958 235.871 109.958C237.125 109.958 238.133 110.242 238.894 110.811C239.656 111.379 240.037 112.126 240.037 113.052H237.066C237.066 112.29 236.665 111.909 235.862 111.909C235.552 111.909 235.291 111.997 235.08 112.173C234.869 112.343 234.764 112.557 234.764 112.815C234.764 113.078 234.892 113.292 235.15 113.456C235.408 113.62 235.818 113.755 236.381 113.86C236.949 113.966 237.447 114.092 237.875 114.238C239.305 114.731 240.019 115.612 240.019 116.884C240.019 117.751 239.633 118.457 238.859 119.002C238.092 119.547 237.096 119.819 235.871 119.819C235.057 119.819 234.33 119.673 233.691 119.38C233.053 119.087 232.555 118.689 232.197 118.185C231.84 117.681 231.661 117.151 231.661 116.594H234.43C234.441 117.033 234.588 117.356 234.869 117.561C235.15 117.76 235.511 117.859 235.95 117.859C236.354 117.859 236.656 117.777 236.855 117.613C237.06 117.449 237.163 117.235 237.163 116.972ZM246.014 119.819C244.555 119.819 243.374 119.386 242.472 118.519C241.569 117.646 241.118 116.512 241.118 115.117V114.871C241.118 113.899 241.297 113.04 241.654 112.296C242.017 111.552 242.545 110.978 243.236 110.573C243.928 110.163 244.748 109.958 245.697 109.958C247.033 109.958 248.088 110.374 248.861 111.206C249.635 112.032 250.021 113.187 250.021 114.669V115.82H244.133C244.238 116.354 244.47 116.773 244.827 117.077C245.184 117.382 245.647 117.534 246.216 117.534C247.153 117.534 247.886 117.206 248.413 116.55L249.766 118.15C249.397 118.659 248.873 119.067 248.193 119.371C247.519 119.67 246.793 119.819 246.014 119.819ZM245.68 112.243C244.812 112.243 244.297 112.818 244.133 113.966H247.121V113.737C247.133 113.263 247.013 112.897 246.761 112.639C246.509 112.375 246.148 112.243 245.68 112.243ZM253.941 110.134L254.038 111.25C254.694 110.389 255.599 109.958 256.754 109.958C257.744 109.958 258.482 110.254 258.969 110.846C259.461 111.438 259.716 112.328 259.733 113.518V119.644H256.763V113.641C256.763 113.16 256.666 112.809 256.473 112.586C256.279 112.358 255.928 112.243 255.418 112.243C254.838 112.243 254.407 112.472 254.126 112.929V119.644H251.164V110.134H253.941ZM264.831 107.77V110.134H266.395V112.191H264.831V116.541C264.831 116.899 264.895 117.148 265.024 117.288C265.153 117.429 265.408 117.499 265.789 117.499C266.082 117.499 266.328 117.482 266.527 117.446V119.565C265.994 119.734 265.437 119.819 264.857 119.819C263.838 119.819 263.085 119.579 262.599 119.099C262.112 118.618 261.869 117.889 261.869 116.91V112.191H260.656V110.134H261.869V107.77H264.831ZM275.501 107.77V110.134H277.065V112.191H275.501V116.541C275.501 116.899 275.565 117.148 275.694 117.288C275.823 117.429 276.078 117.499 276.459 117.499C276.752 117.499 276.998 117.482 277.197 117.446V119.565C276.664 119.734 276.107 119.819 275.527 119.819C274.508 119.819 273.755 119.579 273.268 119.099C272.782 118.618 272.539 117.889 272.539 116.91V112.191H271.326V110.134H272.539V107.77H275.501ZM277.601 114.801C277.601 113.852 277.786 113.008 278.155 112.27C278.524 111.526 279.055 110.954 279.746 110.556C280.437 110.157 281.249 109.958 282.181 109.958C283.604 109.958 284.726 110.401 285.547 111.285C286.367 112.164 286.777 113.362 286.777 114.88V114.985C286.777 116.468 286.364 117.646 285.538 118.519C284.718 119.386 283.604 119.819 282.198 119.819C280.845 119.819 279.758 119.415 278.937 118.607C278.117 117.792 277.675 116.691 277.61 115.302L277.601 114.801ZM280.563 114.985C280.563 115.864 280.701 116.509 280.976 116.919C281.252 117.329 281.659 117.534 282.198 117.534C283.253 117.534 283.792 116.723 283.815 115.1V114.801C283.815 113.096 283.27 112.243 282.181 112.243C281.19 112.243 280.654 112.979 280.572 114.449L280.563 114.985ZM295.461 111.153C296.094 110.357 296.902 109.958 297.887 109.958C298.935 109.958 299.726 110.269 300.26 110.89C300.793 111.511 301.065 112.428 301.077 113.641V119.644H298.106V113.711C298.106 113.207 298.004 112.838 297.799 112.604C297.594 112.363 297.245 112.243 296.753 112.243C296.143 112.243 295.713 112.437 295.461 112.823V119.644H292.499V106.144H295.461V111.153ZM307.326 119.819C305.867 119.819 304.686 119.386 303.784 118.519C302.882 117.646 302.431 116.512 302.431 115.117V114.871C302.431 113.899 302.609 113.04 302.967 112.296C303.33 111.552 303.857 110.978 304.549 110.573C305.24 110.163 306.06 109.958 307.01 109.958C308.346 109.958 309.4 110.374 310.174 111.206C310.947 112.032 311.334 113.187 311.334 114.669V115.82H305.445C305.551 116.354 305.782 116.773 306.14 117.077C306.497 117.382 306.96 117.534 307.528 117.534C308.466 117.534 309.198 117.206 309.725 116.55L311.079 118.15C310.71 118.659 310.185 119.067 309.506 119.371C308.832 119.67 308.105 119.819 307.326 119.819ZM306.992 112.243C306.125 112.243 305.609 112.818 305.445 113.966H308.433V113.737C308.445 113.263 308.325 112.897 308.073 112.639C307.821 112.375 307.461 112.243 306.992 112.243ZM315.658 119.644H312.687V106.144H315.658V119.644ZM326.319 114.959C326.319 116.436 325.985 117.616 325.317 118.501C324.655 119.38 323.759 119.819 322.628 119.819C321.755 119.819 321.037 119.5 320.474 118.861V123.3H317.513V110.134H320.281L320.369 111.013C320.937 110.31 321.684 109.958 322.61 109.958C323.782 109.958 324.693 110.392 325.344 111.259C325.994 112.12 326.319 113.307 326.319 114.818V114.959ZM323.357 114.775C323.357 113.087 322.865 112.243 321.881 112.243C321.178 112.243 320.709 112.495 320.474 112.999V116.743C320.732 117.271 321.207 117.534 321.898 117.534C322.842 117.534 323.328 116.72 323.357 115.091V114.775ZM158.307 136.495L159.89 131.134H163.062L159.186 142.234L159.019 142.639C158.469 143.869 157.496 144.484 156.101 144.484C155.715 144.484 155.307 144.426 154.88 144.309V142.191H155.266C155.682 142.191 155.999 142.129 156.216 142.006C156.438 141.889 156.602 141.675 156.708 141.364L156.945 140.732L153.641 131.134H156.805L158.307 136.495ZM163.326 135.801C163.326 134.852 163.511 134.008 163.88 133.27C164.249 132.526 164.779 131.954 165.471 131.556C166.162 131.157 166.974 130.958 167.905 130.958C169.329 130.958 170.451 131.401 171.271 132.285C172.092 133.164 172.502 134.362 172.502 135.88V135.985C172.502 137.468 172.089 138.646 171.263 139.519C170.442 140.386 169.329 140.819 167.923 140.819C166.569 140.819 165.482 140.415 164.662 139.607C163.842 138.792 163.399 137.691 163.335 136.302L163.326 135.801ZM166.288 135.985C166.288 136.864 166.426 137.509 166.701 137.919C166.976 138.329 167.384 138.534 167.923 138.534C168.977 138.534 169.516 137.723 169.54 136.1V135.801C169.54 134.096 168.995 133.243 167.905 133.243C166.915 133.243 166.379 133.979 166.297 135.449L166.288 135.985ZM179.472 139.615C178.845 140.418 177.998 140.819 176.932 140.819C175.889 140.819 175.098 140.518 174.558 139.914C174.025 139.305 173.759 138.432 173.759 137.295V131.134H176.721V137.313C176.721 138.127 177.116 138.534 177.907 138.534C178.587 138.534 179.07 138.291 179.357 137.805V131.134H182.337V140.644H179.559L179.472 139.615ZM189.104 140.644V133.191H187.724V131.134H189.104V130.378C189.104 129.294 189.424 128.453 190.062 127.856C190.701 127.258 191.598 126.959 192.752 126.959C193.174 126.959 193.637 127.021 194.141 127.144L194.149 129.323C193.968 129.271 193.724 129.244 193.42 129.244C192.523 129.244 192.075 129.631 192.075 130.404V131.134H193.93V133.191H192.075V140.644H189.104ZM199.361 140.819C197.902 140.819 196.722 140.386 195.819 139.519C194.917 138.646 194.466 137.512 194.466 136.117V135.871C194.466 134.899 194.644 134.04 195.002 133.296C195.365 132.552 195.892 131.978 196.584 131.573C197.275 131.163 198.096 130.958 199.045 130.958C200.381 130.958 201.435 131.374 202.209 132.206C202.982 133.032 203.369 134.187 203.369 135.669V136.82H197.48C197.586 137.354 197.817 137.773 198.175 138.077C198.532 138.382 198.995 138.534 199.563 138.534C200.501 138.534 201.233 138.206 201.761 137.55L203.114 139.15C202.745 139.659 202.221 140.067 201.541 140.371C200.867 140.67 200.141 140.819 199.361 140.819ZM199.027 133.243C198.16 133.243 197.644 133.818 197.48 134.966H200.469V134.737C200.48 134.263 200.36 133.897 200.108 133.639C199.856 133.375 199.496 133.243 199.027 133.243ZM209.17 140.819C207.711 140.819 206.53 140.386 205.628 139.519C204.725 138.646 204.274 137.512 204.274 136.117V135.871C204.274 134.899 204.453 134.04 204.81 133.296C205.174 132.552 205.701 131.978 206.392 131.573C207.084 131.163 207.904 130.958 208.853 130.958C210.189 130.958 211.244 131.374 212.017 132.206C212.791 133.032 213.178 134.187 213.178 135.669V136.82H207.289C207.394 137.354 207.626 137.773 207.983 138.077C208.341 138.382 208.804 138.534 209.372 138.534C210.309 138.534 211.042 138.206 211.569 137.55L212.923 139.15C212.554 139.659 212.029 140.067 211.349 140.371C210.676 140.67 209.949 140.819 209.17 140.819ZM208.836 133.243C207.969 133.243 207.453 133.818 207.289 134.966H210.277V134.737C210.289 134.263 210.169 133.897 209.917 133.639C209.665 133.375 209.305 133.243 208.836 133.243ZM217.502 140.644H214.531V127.144H217.502V140.644ZM229.174 140.644C229.068 140.45 228.974 140.166 228.892 139.791C228.348 140.477 227.586 140.819 226.607 140.819C225.711 140.819 224.949 140.55 224.322 140.011C223.695 139.466 223.382 138.783 223.382 137.963C223.382 136.932 223.763 136.152 224.524 135.625C225.286 135.098 226.393 134.834 227.847 134.834H228.761V134.333C228.761 133.46 228.383 133.024 227.627 133.024C226.924 133.024 226.572 133.369 226.572 134.061H223.61C223.61 133.141 224 132.394 224.779 131.819C225.564 131.245 226.563 130.958 227.776 130.958C228.989 130.958 229.947 131.254 230.65 131.846C231.353 132.438 231.714 133.249 231.731 134.28V138.49C231.743 139.363 231.878 140.031 232.136 140.494V140.644H229.174ZM227.319 138.71C227.688 138.71 227.993 138.631 228.233 138.473C228.479 138.315 228.655 138.136 228.761 137.937V136.416H227.899C226.868 136.416 226.352 136.879 226.352 137.805C226.352 138.074 226.443 138.294 226.625 138.464C226.807 138.628 227.038 138.71 227.319 138.71ZM236.504 140.644H233.533V127.144H236.504V140.644ZM241.461 140.644H238.49V127.144H241.461V140.644ZM251.225 128.77V131.134H252.79V133.191H251.225V137.541C251.225 137.899 251.29 138.148 251.419 138.288C251.548 138.429 251.803 138.499 252.183 138.499C252.476 138.499 252.723 138.482 252.922 138.446V140.565C252.389 140.734 251.832 140.819 251.252 140.819C250.232 140.819 249.479 140.579 248.993 140.099C248.507 139.618 248.264 138.889 248.264 137.91V133.191H247.051V131.134H248.264V128.77H251.225ZM256.859 132.153C257.492 131.357 258.301 130.958 259.285 130.958C260.334 130.958 261.125 131.269 261.658 131.89C262.191 132.511 262.464 133.428 262.475 134.641V140.644H259.505V134.711C259.505 134.207 259.402 133.838 259.197 133.604C258.992 133.363 258.643 133.243 258.151 133.243C257.542 133.243 257.111 133.437 256.859 133.823V140.644H253.897V127.144H256.859V132.153ZM268.724 140.819C267.266 140.819 266.085 140.386 265.182 139.519C264.28 138.646 263.829 137.512 263.829 136.117V135.871C263.829 134.899 264.008 134.04 264.365 133.296C264.728 132.552 265.256 131.978 265.947 131.573C266.639 131.163 267.459 130.958 268.408 130.958C269.744 130.958 270.799 131.374 271.572 132.206C272.346 133.032 272.732 134.187 272.732 135.669V136.82H266.844C266.949 137.354 267.181 137.773 267.538 138.077C267.895 138.382 268.358 138.534 268.927 138.534C269.864 138.534 270.597 138.206 271.124 137.55L272.477 139.15C272.108 139.659 271.584 140.067 270.904 140.371C270.23 140.67 269.504 140.819 268.724 140.819ZM268.391 133.243C267.523 133.243 267.008 133.818 266.844 134.966H269.832V134.737C269.844 134.263 269.724 133.897 269.472 133.639C269.22 133.375 268.859 133.243 268.391 133.243ZM278.067 135.818C278.067 134.858 278.225 134.008 278.542 133.27C278.858 132.531 279.312 131.963 279.904 131.565C280.496 131.16 281.184 130.958 281.97 130.958C282.96 130.958 283.733 131.292 284.29 131.96L284.395 131.134H287.085V140.283C287.085 141.121 286.889 141.848 286.496 142.463C286.109 143.084 285.547 143.559 284.808 143.887C284.07 144.221 283.215 144.388 282.242 144.388C281.545 144.388 280.868 144.256 280.212 143.992C279.561 143.729 279.063 143.386 278.718 142.964L279.957 141.224C280.508 141.874 281.234 142.199 282.137 142.199C283.449 142.199 284.105 141.526 284.105 140.178V139.879C283.537 140.506 282.819 140.819 281.952 140.819C280.792 140.819 279.854 140.377 279.14 139.492C278.425 138.602 278.067 137.412 278.067 135.924V135.818ZM281.038 136.003C281.038 136.782 281.184 137.401 281.477 137.858C281.77 138.309 282.181 138.534 282.708 138.534C283.347 138.534 283.812 138.32 284.105 137.893V133.894C283.818 133.46 283.358 133.243 282.725 133.243C282.198 133.243 281.785 133.481 281.486 133.955C281.187 134.424 281.038 135.107 281.038 136.003ZM288.394 135.801C288.394 134.852 288.579 134.008 288.948 133.27C289.317 132.526 289.848 131.954 290.539 131.556C291.23 131.157 292.042 130.958 292.974 130.958C294.397 130.958 295.519 131.401 296.34 132.285C297.16 133.164 297.57 134.362 297.57 135.88V135.985C297.57 137.468 297.157 138.646 296.331 139.519C295.511 140.386 294.397 140.819 292.991 140.819C291.638 140.819 290.551 140.415 289.73 139.607C288.91 138.792 288.468 137.691 288.403 136.302L288.394 135.801ZM291.356 135.985C291.356 136.864 291.494 137.509 291.769 137.919C292.045 138.329 292.452 138.534 292.991 138.534C294.046 138.534 294.585 137.723 294.608 136.1V135.801C294.608 134.096 294.063 133.243 292.974 133.243C291.983 133.243 291.447 133.979 291.365 135.449L291.356 135.985ZM298.502 135.801C298.502 134.852 298.686 134.008 299.056 133.27C299.425 132.526 299.955 131.954 300.646 131.556C301.338 131.157 302.149 130.958 303.081 130.958C304.505 130.958 305.627 131.401 306.447 132.285C307.267 133.164 307.678 134.362 307.678 135.88V135.985C307.678 137.468 307.265 138.646 306.438 139.519C305.618 140.386 304.505 140.819 303.099 140.819C301.745 140.819 300.658 140.415 299.838 139.607C299.017 138.792 298.575 137.691 298.511 136.302L298.502 135.801ZM301.464 135.985C301.464 136.864 301.601 137.509 301.877 137.919C302.152 138.329 302.559 138.534 303.099 138.534C304.153 138.534 304.692 137.723 304.716 136.1V135.801C304.716 134.096 304.171 133.243 303.081 133.243C302.091 133.243 301.555 133.979 301.473 135.449L301.464 135.985ZM308.609 135.818C308.609 134.313 308.934 133.126 309.585 132.259C310.235 131.392 311.143 130.958 312.309 130.958C313.159 130.958 313.874 131.292 314.454 131.96V127.144H317.425V140.644H314.762L314.612 139.624C314.003 140.421 313.229 140.819 312.292 140.819C311.161 140.819 310.265 140.386 309.602 139.519C308.94 138.651 308.609 137.418 308.609 135.818ZM311.571 136.003C311.571 137.691 312.063 138.534 313.048 138.534C313.704 138.534 314.173 138.259 314.454 137.708V134.087C314.184 133.525 313.722 133.243 313.065 133.243C312.151 133.243 311.656 133.982 311.58 135.458L311.571 136.003ZM155.161 161.644V154.191H153.781V152.134H155.161V151.378C155.161 150.294 155.48 149.453 156.119 148.856C156.758 148.258 157.654 147.959 158.808 147.959C159.23 147.959 159.693 148.021 160.197 148.144L160.206 150.323C160.024 150.271 159.781 150.244 159.476 150.244C158.58 150.244 158.132 150.631 158.132 151.404V152.134H159.986V154.191H158.132V161.644H155.161ZM165.418 161.819C163.959 161.819 162.778 161.386 161.876 160.519C160.974 159.646 160.522 158.512 160.522 157.117V156.871C160.522 155.899 160.701 155.04 161.058 154.296C161.422 153.552 161.949 152.978 162.641 152.573C163.332 152.163 164.152 151.958 165.101 151.958C166.437 151.958 167.492 152.374 168.266 153.206C169.039 154.032 169.426 155.187 169.426 156.669V157.82H163.537C163.642 158.354 163.874 158.773 164.231 159.077C164.589 159.382 165.052 159.534 165.62 159.534C166.557 159.534 167.29 159.206 167.817 158.55L169.171 160.15C168.802 160.659 168.277 161.067 167.598 161.371C166.924 161.67 166.197 161.819 165.418 161.819ZM165.084 154.243C164.217 154.243 163.701 154.818 163.537 155.966H166.525V155.737C166.537 155.263 166.417 154.897 166.165 154.639C165.913 154.375 165.553 154.243 165.084 154.243ZM175.226 161.819C173.767 161.819 172.587 161.386 171.684 160.519C170.782 159.646 170.331 158.512 170.331 157.117V156.871C170.331 155.899 170.51 155.04 170.867 154.296C171.23 153.552 171.758 152.978 172.449 152.573C173.141 152.163 173.961 151.958 174.91 151.958C176.246 151.958 177.301 152.374 178.074 153.206C178.848 154.032 179.234 155.187 179.234 156.669V157.82H173.346C173.451 158.354 173.682 158.773 174.04 159.077C174.397 159.382 174.86 159.534 175.429 159.534C176.366 159.534 177.099 159.206 177.626 158.55L178.979 160.15C178.61 160.659 178.086 161.067 177.406 161.371C176.732 161.67 176.006 161.819 175.226 161.819ZM174.892 154.243C174.025 154.243 173.51 154.818 173.346 155.966H176.334V155.737C176.346 155.263 176.225 154.897 175.974 154.639C175.722 154.375 175.361 154.243 174.892 154.243ZM183.558 161.644H180.588V148.144H183.558V161.644ZM190.37 158.972C190.37 158.72 190.238 158.518 189.974 158.365C189.711 158.213 189.21 158.055 188.472 157.891C187.733 157.727 187.124 157.513 186.643 157.249C186.163 156.98 185.797 156.654 185.545 156.274C185.293 155.893 185.167 155.456 185.167 154.964C185.167 154.091 185.527 153.373 186.248 152.811C186.969 152.242 187.912 151.958 189.078 151.958C190.332 151.958 191.34 152.242 192.101 152.811C192.863 153.379 193.244 154.126 193.244 155.052H190.273C190.273 154.29 189.872 153.909 189.069 153.909C188.759 153.909 188.498 153.997 188.287 154.173C188.076 154.343 187.971 154.557 187.971 154.815C187.971 155.078 188.099 155.292 188.357 155.456C188.615 155.62 189.025 155.755 189.588 155.86C190.156 155.966 190.654 156.092 191.082 156.238C192.512 156.731 193.226 157.612 193.226 158.884C193.226 159.751 192.84 160.457 192.066 161.002C191.299 161.547 190.303 161.819 189.078 161.819C188.264 161.819 187.537 161.673 186.898 161.38C186.26 161.087 185.762 160.689 185.404 160.185C185.047 159.681 184.868 159.151 184.868 158.594H187.637C187.648 159.033 187.795 159.356 188.076 159.561C188.357 159.76 188.718 159.859 189.157 159.859C189.561 159.859 189.863 159.777 190.062 159.613C190.267 159.449 190.37 159.235 190.37 158.972ZM196.452 158.77C196.921 158.77 197.31 158.91 197.621 159.192C197.932 159.467 198.087 159.821 198.087 160.255C198.087 160.689 197.932 161.046 197.621 161.327C197.31 161.603 196.921 161.74 196.452 161.74C195.977 161.74 195.585 161.6 195.274 161.318C194.97 161.037 194.817 160.683 194.817 160.255C194.817 159.827 194.97 159.473 195.274 159.192C195.585 158.91 195.977 158.77 196.452 158.77Z" fill="#51ADE0"/>
<path d="M117.73 154.988L161.578 214.539C163.265 216.83 165.947 218.177 168.792 218.163L242.744 217.787C247.312 217.764 249.982 222.929 247.32 226.642L204.234 286.746C202.575 289.059 202.123 292.026 203.016 294.728L226.226 364.943C227.66 369.281 223.572 373.416 219.218 372.032L148.741 349.628C146.029 348.765 143.068 349.252 140.774 350.936L81.1673 394.708C77.4849 397.412 72.289 394.802 72.2599 390.233L71.7893 316.282C71.7711 313.437 70.3937 310.771 68.0829 309.11L8.03414 265.947C4.3244 263.28 5.20114 257.532 9.53714 256.092L79.7231 232.793C82.4239 231.896 84.5334 229.762 85.3991 227.051L107.894 156.603C109.284 152.251 115.021 151.309 117.73 154.988Z" fill="#FFCD1A" stroke="#CDA000" stroke-width="3.30724" stroke-linecap="square" stroke-linejoin="bevel"/>
<circle cx="163.373" cy="250.849" r="27.8541" transform="rotate(-9.32789 163.373 250.849)" fill="white"/>
<path d="M163.617 291.535C169.145 301.934 162.376 325.251 146.48 333.703C130.585 342.154 111.701 333.122 106.172 322.723C100.643 312.325 110.563 304.498 126.459 296.047C142.355 287.595 158.088 281.137 163.617 291.535Z" fill="white"/>
<circle cx="159.428" cy="259.562" r="11.9375" transform="rotate(-9.32789 159.428 259.562)" fill="#FFCC19"/>
<circle cx="96.6033" cy="269.881" r="27.8541" transform="rotate(-9.32789 96.6033 269.881)" fill="white"/>
<circle cx="102.699" cy="274.256" r="11.9375" transform="rotate(-9.32789 102.699 274.256)" fill="#FFCC19"/>
<circle cx="102.698" cy="274.257" r="6.63193" transform="rotate(-9.32789 102.698 274.257)" fill="#51ADE0"/>
<circle cx="159.428" cy="259.562" r="6.63193" transform="rotate(-9.32789 159.428 259.562)" fill="#51ADE0"/>
<circle cx="161.185" cy="253.896" r="3.97916" transform="rotate(-9.32789 161.185 253.896)" fill="white"/>
<circle cx="97.0329" cy="272.499" r="3.97916" transform="rotate(-9.32789 97.0329 272.499)" fill="white"/>
<circle cx="154.334" cy="327.574" r="3.90547" transform="rotate(-8.45414 154.334 327.574)" fill="#FFCC19"/>
<circle cx="145.467" cy="334.77" r="5.24929" transform="rotate(-8.45414 145.467 334.77)" fill="#FFCC19"/>
</svg>
