<svg width="25" height="19" viewBox="0 0 25 19" fill="none" xmlns="http://www.w3.org/2000/svg">
<path d="M24.3491 8.21256L13.4414 0.294707C13.1674 0.0959558 12.8375 -0.00729599 12.501 0.000401141C12.1645 0.00809827 11.8394 0.126331 11.5745 0.337407C11.3097 0.548483 11.1191 0.841054 11.0315 1.17134C10.9439 1.50163 10.9639 1.85186 11.0884 2.16965L13.351 7.91643H1.58357C0.708988 7.91643 0 8.62542 0 9.5C0 10.3746 0.708988 11.0836 1.58357 11.0836H13.351L11.0884 16.8304C10.9639 17.1481 10.9439 17.4984 11.0315 17.8287C11.1191 18.1589 11.3097 18.4515 11.5745 18.6626C11.8394 18.8737 12.1645 18.9919 12.501 18.9996C12.8375 19.0073 13.1674 18.904 13.4414 18.7053L24.3491 10.7874C24.5504 10.6409 24.7145 10.4476 24.8277 10.2237C24.9409 9.99983 25 9.75173 25 9.5C25 9.24827 24.9409 9.00018 24.8277 8.77628C24.7145 8.55238 24.5504 8.35913 24.3491 8.21256ZM15.9642 12.9839L17.1064 10.0843C17.2529 9.70682 17.2529 9.28684 17.1064 8.90933L15.9642 6.01614L20.762 9.5L15.9642 12.9839Z" fill="#E0C45E"/>
</svg>
