<svg width="118" height="154" viewBox="0 0 118 154" fill="none" xmlns="http://www.w3.org/2000/svg">
<path d="M43.6086 46.1739H79.5217C81.0608 46.1739 82.0869 45.1478 82.0869 43.6087V7.69565C82.0869 6.92609 81.8304 6.41304 81.3173 5.9L76.1869 0.769565C75.1608 -0.256522 73.6217 -0.256522 72.5956 0.769565C71.5695 1.79565 71.5695 3.33478 72.5956 4.36087L73.3652 5.13043H72.8521L68.4913 0.769565C67.4652 -0.256522 65.926 -0.256522 64.8999 0.769565C63.8739 1.79565 63.8739 3.33478 64.8999 4.36087L65.6695 5.13043H65.1565L60.7956 0.769565C59.7695 -0.256522 58.2304 -0.256522 57.2043 0.769565C56.1782 1.79565 56.1782 3.33478 57.2043 4.36087L57.9739 5.13043H43.6086C42.0695 5.13043 41.0434 6.15652 41.0434 7.69565V43.6087C41.0434 45.1478 42.0695 46.1739 43.6086 46.1739ZM46.1739 10.2609H76.9565V41.0435H46.1739V10.2609Z" fill="#D8A1D5"/>
<path d="M17.9565 56.4349C16.4174 56.4349 15.3913 57.461 15.3913 59.0002V80.548C11.5435 84.9089 12.0565 91.3219 16.4174 94.9132C20.7783 98.5045 27.1913 98.248 30.7826 93.8871C34.1174 90.0393 34.1174 84.1393 30.7826 80.2915V71.8262H41.0435V120.565C41.0435 122.104 42.0696 123.131 43.6087 123.131H46.1739V128.261H35.9131C35.9131 125.439 33.6044 123.131 30.7826 123.131H23.087C21.5478 123.131 20.5218 124.157 20.5218 125.696V151.348C20.5218 152.887 21.5478 153.913 23.087 153.913H28.2174C32.5783 153.913 35.9131 150.578 35.9131 146.218V143.652H59C60.5391 143.652 61.5652 142.626 61.5652 141.087V123.131H69.2609C70.8 123.131 71.8261 122.104 71.8261 120.565V118H84.6522C86.1913 118 87.2174 116.974 87.2174 115.435V112.87H92.3478V123.131C89.5261 123.131 87.2174 125.439 87.2174 128.261V135.957C87.2174 137.496 88.2435 138.522 89.7826 138.522H115.435C116.974 138.522 118 137.496 118 135.957V130.826C118 126.465 114.665 123.131 110.304 123.131H107.739V100.044C107.739 98.5045 106.713 97.4784 105.174 97.4784H87.2174V94.9132C87.2174 93.3741 86.1913 92.348 84.6522 92.348H82.087V71.8262H100.043C101.583 71.8262 102.609 70.8002 102.609 69.261V47.7132C106.457 43.3523 105.943 36.9393 101.583 33.348C99.2739 31.2958 96.1957 30.5262 93.1174 31.0393C89.0131 31.8089 85.6783 35.1436 84.9087 39.248C84.3957 42.3262 85.1652 45.4045 87.2174 47.7132V56.4349H82.087V53.8697C82.087 52.3306 81.0609 51.3045 79.5218 51.3045H43.6087C42.0696 51.3045 41.0435 52.3306 41.0435 53.8697V56.4349H17.9565ZM28.2174 66.6958C26.6783 66.6958 25.6522 67.7219 25.6522 69.261V81.5741C25.6522 82.3436 25.9087 83.1132 26.4218 83.3697C27.4478 84.3958 28.2174 85.6784 28.2174 87.2175C28.2174 90.0393 25.9087 92.348 23.087 92.348C20.2652 92.348 17.9565 90.0393 17.9565 87.2175C17.9565 85.6784 18.4696 84.3958 19.7522 83.3697C20.2652 82.8567 20.5218 82.0871 20.5218 81.5741V61.5654H41.0435V66.6958H28.2174ZM30.7826 146.218C30.7826 147.757 29.7565 148.783 28.2174 148.783H25.6522V128.261H30.7826V146.218ZM56.4348 138.522H35.9131V133.391H48.7391C50.2783 133.391 51.3044 132.365 51.3044 130.826V123.131H56.4348V138.522ZM82.087 112.87H71.8261V110.304C71.8261 108.765 70.8 107.739 69.2609 107.739C67.7218 107.739 66.6957 108.765 66.6957 110.304V118H46.1739V97.4784H82.087V112.87ZM112.87 130.826V133.391H92.3478V128.261H110.304C111.843 128.261 112.87 129.287 112.87 130.826ZM102.609 102.609V123.131H97.4783V110.304C97.4783 108.765 96.4522 107.739 94.9131 107.739H87.2174V102.609H102.609ZM89.7826 61.5654C91.3218 61.5654 92.3478 60.5393 92.3478 59.0002V46.6871C92.3478 45.9176 92.0913 45.148 91.5783 44.8915C90.2957 43.6089 89.5261 41.8132 90.0391 40.2741C90.5522 38.2219 92.0913 36.6828 94.1435 36.1697C96.9652 35.6567 99.5304 37.4523 100.043 40.2741C100.043 40.5306 100.043 40.7871 100.043 41.3002C100.043 42.8393 99.5304 44.1219 98.2478 45.148C97.7348 45.661 97.4783 46.4306 97.4783 46.9436V66.6958H64.1305C62.5913 66.6958 61.5652 65.6697 61.5652 64.1306C61.5652 62.5915 62.5913 61.5654 64.1305 61.5654H89.7826ZM46.1739 56.4349H64.1305C59.7696 56.4349 56.4348 59.7697 56.4348 64.1306C56.4348 68.4915 59.7696 71.8262 64.1305 71.8262H76.9565V92.348H46.1739V56.4349Z" fill="#D8A1D5"/>
<path d="M2.56522 118H33.3478C34.887 118 35.913 116.974 35.913 115.435C35.913 113.896 34.887 112.87 33.3478 112.87H2.56522C1.02609 112.87 0 113.896 0 115.435C0 116.974 1.02609 118 2.56522 118Z" fill="#D8A1D5"/>
<path d="M17.9566 102.609C16.4174 102.609 15.3914 103.635 15.3914 105.174C15.3914 106.713 16.4174 107.739 17.9566 107.739H33.3479C34.887 107.739 35.9131 106.713 35.9131 105.174C35.9131 103.635 34.887 102.609 33.3479 102.609H17.9566Z" fill="#D8A1D5"/>
<path d="M17.9566 46.1739H33.3479C34.887 46.1739 35.9131 45.1478 35.9131 43.6087C35.9131 42.0695 34.887 41.0435 33.3479 41.0435H17.9566C16.4174 41.0435 15.3914 42.0695 15.3914 43.6087C15.3914 45.1478 16.4174 46.1739 17.9566 46.1739Z" fill="#D8A1D5"/>
<path d="M2.56522 35.9131H33.3478C34.887 35.9131 35.913 34.8871 35.913 33.3479C35.913 31.8088 34.887 30.7827 33.3478 30.7827H2.56522C1.02609 30.7827 0 31.8088 0 33.3479C0 34.8871 1.02609 35.9131 2.56522 35.9131Z" fill="#D8A1D5"/>
<path d="M66.6958 25.6522C69.5293 25.6522 71.8263 23.3553 71.8263 20.5218C71.8263 17.6883 69.5293 15.3914 66.6958 15.3914C63.8624 15.3914 61.5654 17.6883 61.5654 20.5218C61.5654 23.3553 63.8624 25.6522 66.6958 25.6522Z" fill="#D8A1D5"/>
</svg>
