<svg width="26" height="28" viewBox="0 0 26 28" fill="none" xmlns="http://www.w3.org/2000/svg">
<path d="M3.76672 13.963V27.586H21.8365V13.963L12.8016 4.9281L3.76672 13.963ZM8.69485 13.623C9.02102 13.6134 9.34571 13.6706 9.64897 13.7911C9.95224 13.9115 10.2277 14.0927 10.4584 14.3234C10.6892 14.5542 10.8703 14.8296 10.9908 15.1329C11.1112 15.4362 11.1684 15.7608 11.1589 16.087H9.5162C9.5149 15.8692 9.42711 15.6608 9.27215 15.5077C9.11719 15.3546 8.90776 15.2693 8.68992 15.2706C8.47208 15.2719 8.26369 15.3597 8.11058 15.5146C7.95747 15.6696 7.87219 15.879 7.87349 16.0969L6.23079 16.087C6.22125 15.7608 6.27846 15.4362 6.39891 15.1329C6.51937 14.8296 6.70052 14.5542 6.93126 14.3234C7.162 14.0927 7.43745 13.9115 7.74072 13.7911C8.04399 13.6706 8.36867 13.6134 8.69485 13.623ZM17.7297 24.3006H7.87349V21.0151H9.5162V22.6578H16.087V21.0151H17.7297V24.3006ZM16.9084 13.623C17.2346 13.6134 17.5592 13.6706 17.8625 13.7911C18.1658 13.9115 18.4412 14.0927 18.672 14.3234C18.9027 14.5542 19.0839 14.8296 19.2043 15.1329C19.3248 15.4362 19.382 15.7608 19.3725 16.087H17.7297C17.7284 15.8692 17.6406 15.6608 17.4857 15.5077C17.3307 15.3546 17.1213 15.2693 16.9035 15.2706C16.6856 15.2719 16.4772 15.3597 16.3241 15.5146C16.171 15.6696 16.0857 15.879 16.087 16.0969L14.4443 16.087C14.4348 15.7608 14.492 15.4362 14.6125 15.1329C14.7329 14.8296 14.9141 14.5542 15.1448 14.3234C15.3755 14.0927 15.651 13.9115 15.9543 13.7911C16.2575 13.6706 16.5822 13.6134 16.9084 13.623Z" fill="#ECC08D"/>
<path d="M0 12.8016L1.30267 14.1043L12.2209 3.18603C12.375 3.03205 12.5838 2.94555 12.8016 2.94555C13.0194 2.94555 13.2283 3.03205 13.3823 3.18603L24.3006 14.1043L25.6033 12.8016L12.8016 0L0 12.8016Z" fill="#ECC08D"/>
</svg>
