<svg width="60" height="60" viewBox="0 0 60 60" fill="none" xmlns="http://www.w3.org/2000/svg">
<path d="M59 28.0645H52V21.0005C52 20.7353 51.8946 20.481 51.7071 20.2934C51.5196 20.1059 51.2652 20.0005 51 20.0005H9C8.73478 20.0005 8.48043 20.1059 8.29289 20.2934C8.10536 20.481 8 20.7353 8 21.0005V28.0645H1C0.734784 28.0645 0.48043 28.1699 0.292893 28.3574C0.105357 28.545 0 28.7993 0 29.0645V59.0005C0 59.2658 0.105357 59.5201 0.292893 59.7077C0.48043 59.8952 0.734784 60.0005 1 60.0005H59C59.2652 60.0005 59.5196 59.8952 59.7071 59.7077C59.8946 59.5201 60 59.2658 60 59.0005V29.0645C60 28.7993 59.8946 28.545 59.7071 28.3574C59.5196 28.1699 59.2652 28.0645 59 28.0645ZM44 22.0005H50V28.0005H48V25.0005C48 24.7353 47.8946 24.481 47.7071 24.2934C47.5196 24.1059 47.2652 24.0005 47 24.0005H44V22.0005ZM18 22.0005H42V24.0005H18V22.0005ZM46 26.0005V28.0645H14V26.0005H46ZM10 22.0005H16V24.0005H13C12.7348 24.0005 12.4804 24.1059 12.2929 24.2934C12.1054 24.481 12 24.7353 12 25.0005V28.0005H10V22.0005ZM58 58.0005H2V30.0645H58V58.0005Z" fill="#94D7B5"/>
<path d="M14 54.0006C15.9778 54.0006 17.9112 53.4141 19.5557 52.3153C21.2002 51.2164 22.4819 49.6547 23.2388 47.8274C23.9957 46.0001 24.1937 43.9895 23.8079 42.0497C23.422 40.1098 22.4696 38.328 21.0711 36.9295C19.6725 35.531 17.8907 34.5786 15.9509 34.1927C14.0111 33.8068 12.0004 34.0049 10.1732 34.7618C8.3459 35.5186 6.78412 36.8004 5.6853 38.4449C4.58649 40.0893 4 42.0227 4 44.0006C4.00291 46.6518 5.05742 49.1937 6.93215 51.0684C8.80688 52.9431 11.3487 53.9976 14 54.0006ZM14 52.0006C12.224 52.0008 10.499 51.4066 9.1 50.3126L11.979 47.4336C12.5872 47.8044 13.2857 48.0006 13.998 48.0006C14.7103 48.0006 15.4088 47.8044 16.017 47.4336L18.9 50.3126C17.501 51.4066 15.776 52.0008 14 52.0006ZM12 44.0006C12 43.605 12.1173 43.2183 12.3371 42.8894C12.5568 42.5605 12.8692 42.3042 13.2346 42.1528C13.6001 42.0014 14.0022 41.9618 14.3902 42.039C14.7781 42.1162 15.1345 42.3066 15.4142 42.5863C15.6939 42.866 15.8844 43.2224 15.9616 43.6104C16.0387 43.9983 15.9991 44.4005 15.8478 44.7659C15.6964 45.1314 15.44 45.4437 15.1111 45.6635C14.7822 45.8833 14.3956 46.0006 14 46.0006C13.4696 46.0006 12.9609 45.7898 12.5858 45.4148C12.2107 45.0397 12 44.531 12 44.0006ZM22 44.0006C22.0002 45.7765 21.406 47.5015 20.312 48.9006L17.433 46.0216C17.8038 45.4134 18 44.7149 18 44.0026C18 43.2902 17.8038 42.5917 17.433 41.9836L20.312 39.1006C21.406 40.4996 22.0002 42.2246 22 44.0006ZM14 36.0006C15.776 36.0003 17.501 36.5946 18.9 37.6886L16.021 40.5676C15.4128 40.1967 14.7143 40.0005 14.002 40.0005C13.2897 40.0005 12.5912 40.1967 11.983 40.5676L9.1 37.6886C10.499 36.5946 12.224 36.0003 14 36.0006ZM7.688 39.1006L10.567 41.9796C10.1962 42.5877 9.99997 43.2863 9.99997 43.9986C9.99997 44.7109 10.1962 45.4094 10.567 46.0176L7.688 48.9006C6.59322 47.5018 5.99839 45.7768 5.99839 44.0006C5.99839 42.2243 6.59322 40.4993 7.688 39.1006Z" fill="#94D7B5"/>
<path d="M23 38.0005H37C37.2652 38.0005 37.5196 37.8952 37.7071 37.7077C37.8946 37.5201 38 37.2658 38 37.0005V33.0005C38 32.7353 37.8946 32.481 37.7071 32.2934C37.5196 32.1059 37.2652 32.0005 37 32.0005H23C22.7348 32.0005 22.4804 32.1059 22.2929 32.2934C22.1054 32.481 22 32.7353 22 33.0005V37.0005C22 37.2658 22.1054 37.5201 22.2929 37.7077C22.4804 37.8952 22.7348 38.0005 23 38.0005ZM24 34.0005H36V36.0005H24V34.0005Z" fill="#94D7B5"/>
<path d="M34 40.0005H26V42.0005H34V40.0005Z" fill="#94D7B5"/>
<path d="M24 54.0005H22V56.0005H24V54.0005Z" fill="#94D7B5"/>
<path d="M38 54.0005H36V56.0005H38V54.0005Z" fill="#94D7B5"/>
<path d="M34 54.0005H26V56.0005H34V54.0005Z" fill="#94D7B5"/>
<path d="M26 52.0005H34V44.0005H26V52.0005ZM28 46.0005H32V50.0005H28V46.0005Z" fill="#94D7B5"/>
<path d="M5 56.0005H9V54.0005H6V52.0005H4V55.0005C4 55.2658 4.10536 55.5201 4.29289 55.7077C4.48043 55.8952 4.73478 56.0005 5 56.0005Z" fill="#94D7B5"/>
<path d="M54 54.0005H51V56.0005H55C55.2652 56.0005 55.5196 55.8952 55.7071 55.7077C55.8946 55.5201 56 55.2658 56 55.0005V52.0005H54V54.0005Z" fill="#94D7B5"/>
<path d="M6 32.0005H4V34.0005H6V32.0005Z" fill="#94D7B5"/>
<path d="M56 32.0005H54V34.0005H56V32.0005Z" fill="#94D7B5"/>
<path d="M46 54.0006C47.9778 54.0006 49.9112 53.4141 51.5557 52.3153C53.2002 51.2164 54.4819 49.6547 55.2388 47.8274C55.9957 46.0001 56.1937 43.9895 55.8079 42.0497C55.422 40.1098 54.4696 38.328 53.0711 36.9295C51.6725 35.531 49.8907 34.5786 47.9509 34.1927C46.0111 33.8068 44.0004 34.0049 42.1732 34.7618C40.3459 35.5186 38.7841 36.8004 37.6853 38.4449C36.5865 40.0893 36 42.0227 36 44.0006C36.0029 46.6518 37.0574 49.1937 38.9321 51.0684C40.8069 52.9431 43.3487 53.9976 46 54.0006ZM46 52.0006C44.224 52.0008 42.499 51.4066 41.1 50.3126L43.979 47.4336C44.5872 47.8044 45.2857 48.0006 45.998 48.0006C46.7103 48.0006 47.4088 47.8044 48.017 47.4336L50.9 50.3126C49.501 51.4066 47.776 52.0008 46 52.0006ZM44 44.0006C44 43.605 44.1173 43.2183 44.3371 42.8894C44.5568 42.5605 44.8692 42.3042 45.2346 42.1528C45.6001 42.0014 46.0022 41.9618 46.3902 42.039C46.7781 42.1162 47.1345 42.3066 47.4142 42.5863C47.6939 42.866 47.8844 43.2224 47.9616 43.6104C48.0387 43.9983 47.9991 44.4005 47.8478 44.7659C47.6964 45.1314 47.44 45.4437 47.1111 45.6635C46.7822 45.8833 46.3956 46.0006 46 46.0006C45.4696 46.0006 44.9609 45.7898 44.5858 45.4148C44.2107 45.0397 44 44.531 44 44.0006ZM54 44.0006C54.0002 45.7765 53.406 47.5015 52.312 48.9006L49.433 46.0216C49.8038 45.4134 50 44.7149 50 44.0026C50 43.2902 49.8038 42.5917 49.433 41.9836L52.312 39.1006C53.406 40.4996 54.0002 42.2246 54 44.0006ZM46 36.0006C47.776 36.0003 49.501 36.5946 50.9 37.6886L48.021 40.5676C47.4128 40.1967 46.7143 40.0005 46.002 40.0005C45.2897 40.0005 44.5912 40.1967 43.983 40.5676L41.1 37.6886C42.499 36.5946 44.224 36.0003 46 36.0006ZM39.688 39.1006L42.567 41.9796C42.1962 42.5877 42 43.2863 42 43.9986C42 44.7109 42.1962 45.4094 42.567 46.0176L39.688 48.9006C38.5932 47.5018 37.9984 45.7768 37.9984 44.0006C37.9984 42.2243 38.5932 40.4993 39.688 39.1006Z" fill="#94D7B5"/>
<path d="M28.585 0.188566C28.4568 0.0956333 28.3081 0.034787 28.1515 0.0111245C27.9949 -0.012538 27.835 0.00167269 27.685 0.0525657L18.685 3.05257C18.4858 3.11869 18.3124 3.24583 18.1894 3.41598C18.0665 3.58613 18.0002 3.79065 18 4.00057V11.0006C17.2913 10.9937 16.6027 11.2356 16.054 11.6841C15.5052 12.1326 15.1311 12.7593 14.9968 13.4552C14.8624 14.151 14.9763 14.8719 15.3186 15.4925C15.6609 16.113 16.21 16.5939 16.8703 16.8514C17.5305 17.1089 18.2602 17.1267 18.9322 16.9018C19.6043 16.6769 20.1762 16.2234 20.5484 15.6203C20.9206 15.0172 21.0696 14.3027 20.9694 13.6011C20.8692 12.8996 20.5262 12.2553 20 11.7806V8.72057L27 6.38757V9.00057C26.2913 8.99374 25.6027 9.23563 25.054 9.68412C24.5052 10.1326 24.1311 10.7593 23.9968 11.4552C23.8624 12.151 23.9763 12.8719 24.3186 13.4925C24.6609 14.113 25.21 14.5939 25.8703 14.8514C26.5305 15.1089 27.2602 15.1267 27.9322 14.9018C28.6043 14.6769 29.1762 14.2234 29.5484 13.6203C29.9206 13.0172 30.0696 12.3027 29.9694 11.6011C29.8692 10.8996 29.5262 10.2553 29 9.78057V1.00057C29.0001 0.842011 28.9626 0.685692 28.8904 0.544508C28.8183 0.403323 28.7136 0.28132 28.585 0.188566ZM18 15.0006C17.8022 15.0006 17.6089 14.9419 17.4444 14.832C17.28 14.7222 17.1518 14.566 17.0761 14.3832C17.0004 14.2005 16.9806 13.9995 17.0192 13.8055C17.0578 13.6115 17.153 13.4333 17.2929 13.2935C17.4327 13.1536 17.6109 13.0584 17.8049 13.0198C17.9989 12.9812 18.2 13.001 18.3827 13.0767C18.5654 13.1524 18.7216 13.2805 18.8315 13.445C18.9413 13.6094 19 13.8028 19 14.0006C19 14.2658 18.8946 14.5201 18.7071 14.7077C18.5196 14.8952 18.2652 15.0006 18 15.0006ZM20 6.61357V4.72157L27 2.38857V4.28057L20 6.61357ZM27 13.0006C26.8022 13.0006 26.6089 12.9419 26.4444 12.832C26.28 12.7222 26.1518 12.566 26.0761 12.3832C26.0004 12.2005 25.9806 11.9995 26.0192 11.8055C26.0578 11.6115 26.153 11.4333 26.2929 11.2935C26.4327 11.1536 26.6109 11.0584 26.8049 11.0198C26.9989 10.9812 27.2 11.001 27.3827 11.0767C27.5654 11.1524 27.7216 11.2805 27.8315 11.445C27.9413 11.6094 28 11.8028 28 12.0006C28 12.2658 27.8946 12.5201 27.7071 12.7077C27.5196 12.8952 27.2652 13.0006 27 13.0006Z" fill="#94D7B5"/>
<path d="M42.551 0.165555C42.4127 0.0744072 42.254 0.0190162 42.0891 0.00435486C41.9241 -0.0103065 41.7581 0.0162209 41.606 0.0815555L34.606 3.08156C34.4261 3.15865 34.2729 3.28681 34.1652 3.45017C34.0574 3.61352 34 3.80488 34 4.00056V12.0006C33.2913 11.9937 32.6027 12.2356 32.054 12.6841C31.5052 13.1326 31.1311 13.7593 30.9968 14.4552C30.8624 15.151 30.9763 15.8719 31.3186 16.4925C31.6609 17.113 32.21 17.5939 32.8703 17.8514C33.5305 18.1089 34.2602 18.1267 34.9322 17.9018C35.6043 17.6769 36.1762 17.2234 36.5484 16.6203C36.9206 16.0172 37.0696 15.3027 36.9694 14.6011C36.8692 13.8996 36.5262 13.2553 36 12.7806V8.65956L42.394 5.91956C42.5738 5.84246 42.7271 5.7143 42.8348 5.55095C42.9425 5.38759 43 5.19623 43 5.00056V1.00056C43.0001 0.835092 42.9591 0.672194 42.8807 0.526464C42.8024 0.380734 42.6891 0.256726 42.551 0.165555ZM34 16.0006C33.8022 16.0006 33.6089 15.9419 33.4444 15.832C33.28 15.7221 33.1518 15.566 33.0761 15.3832C33.0004 15.2005 32.9806 14.9994 33.0192 14.8055C33.0578 14.6115 33.153 14.4333 33.2929 14.2934C33.4327 14.1536 33.6109 14.0584 33.8049 14.0198C33.9989 13.9812 34.1999 14.001 34.3827 14.0767C34.5654 14.1524 34.7216 14.2805 34.8315 14.445C34.9413 14.6094 35 14.8028 35 15.0006C35 15.2658 34.8946 15.5201 34.7071 15.7077C34.5196 15.8952 34.2652 16.0006 34 16.0006ZM41 4.34156L36 6.48356V4.65956L41 2.51756V4.34156Z" fill="#94D7B5"/>
<path d="M10.011 2.60057C9.26382 2.13174 8.38131 1.92628 7.5039 2.01689C6.62649 2.10749 5.80459 2.48895 5.16899 3.10057C4.78889 3.45768 4.48832 3.8909 4.2869 4.37197C4.08547 4.85305 3.98771 5.37118 3.99999 5.89257C3.99066 6.42883 4.09684 6.96082 4.31131 7.4524C4.52579 7.94399 4.84354 8.38367 5.24299 8.74157L9.41299 11.8066C9.58472 11.9329 9.79232 12.001 10.0055 12.001C10.2187 12.001 10.4263 11.9329 10.598 11.8066L14.832 8.68257C15.2113 8.32534 15.5113 7.89235 15.7125 7.41171C15.9137 6.93107 16.0117 6.4135 16 5.89257C16.0123 5.37118 15.9145 4.85305 15.7131 4.37197C15.5117 3.8909 15.2111 3.45768 14.831 3.10057C14.1941 2.49922 13.3769 2.12439 12.5057 2.03401C11.6345 1.94364 10.7577 2.14275 10.011 2.60057ZM13.572 7.13357L9.99999 9.75957L6.49999 7.19057C6.33205 7.01969 6.20101 6.81612 6.115 6.59249C6.02899 6.36887 5.98985 6.12996 5.99999 5.89057C5.9899 5.6512 6.02908 5.4123 6.11508 5.18869C6.20109 4.96507 6.3321 4.7615 6.49999 4.59057C6.90002 4.22371 7.41938 4.01412 7.96199 4.00057C8.47065 4.00841 8.95571 4.21645 9.31199 4.57957C9.49532 4.75313 9.7375 4.85093 9.98994 4.85334C10.2424 4.85575 10.4864 4.7626 10.673 4.59257C11.0512 4.22311 11.5594 4.01693 12.0881 4.01843C12.6169 4.01992 13.1239 4.22897 13.5 4.60057C13.6679 4.7715 13.7989 4.97507 13.8849 5.19869C13.9709 5.4223 14.0101 5.6612 14 5.90057C14.0178 6.35022 13.8649 6.78995 13.572 7.13157V7.13357Z" fill="#94D7B5"/>
<path d="M41 11.8925C40.9907 12.4288 41.0968 12.9608 41.3113 13.4524C41.5258 13.944 41.8435 14.3836 42.243 14.7415L46.413 17.8065C46.5847 17.9329 46.7923 18.001 47.0055 18.001C47.2187 18.001 47.4263 17.9329 47.598 17.8065L51.832 14.6825C52.2113 14.3253 52.5113 13.8923 52.7125 13.4117C52.9137 12.931 53.0117 12.4135 53 11.8925C53.0123 11.3712 52.9145 10.853 52.7131 10.3719C52.5117 9.89087 52.2111 9.45765 51.831 9.10055C51.1948 8.49826 50.378 8.12232 49.5067 8.03086C48.6355 7.93939 47.7584 8.1375 47.011 8.59455C46.2632 8.12649 45.3803 7.92203 44.5029 8.01372C43.6254 8.10542 42.8039 8.48799 42.169 9.10055C41.7889 9.45765 41.4883 9.89087 41.2869 10.3719C41.0855 10.853 40.9877 11.3712 41 11.8925ZM43.5 10.5925C43.8983 10.2223 44.4174 10.0091 44.961 9.99255C45.4696 10.0004 45.9547 10.2084 46.311 10.5715C46.4943 10.7451 46.7365 10.8429 46.9889 10.8453C47.2414 10.8477 47.4854 10.7546 47.672 10.5845C48.0513 10.2158 48.5603 10.0109 49.0893 10.0139C49.6182 10.0169 50.1249 10.2276 50.5 10.6005C50.6679 10.7715 50.7989 10.975 50.8849 11.1987C50.9709 11.4223 51.0101 11.6612 51 11.9005C51.0198 12.3529 50.8668 12.7959 50.572 13.1395L47 15.7595L43.5 13.1905C43.3321 13.0197 43.201 12.8161 43.115 12.5925C43.029 12.3688 42.9898 12.1299 43 11.8905C42.9913 11.6528 43.0311 11.4158 43.1171 11.194C43.2031 10.9722 43.3334 10.7703 43.5 10.6005V10.5925Z" fill="#94D7B5"/>
</svg>
