<svg width="375" height="547" viewBox="0 0 375 547" fill="none" xmlns="http://www.w3.org/2000/svg">
<path d="M121.626 13.9979C121.758 6.2671 128.133 0.107407 135.863 0.2399L371.733 4.28228C379.464 4.41477 385.623 10.7893 385.491 18.5201L382.699 181.405C382.567 189.136 376.192 195.296 368.461 195.163L231.09 192.809C225.552 192.714 220.043 193.641 214.84 195.543L179.146 208.592C175.735 209.839 173.499 205.042 176.648 203.232C182.025 200.141 179.908 191.932 173.707 191.826L126.277 191.013C122.034 190.94 118.653 187.441 118.726 183.198L121.626 13.9979Z" fill="#ECC08D"/>
<path d="M123 18C123 10.268 129.268 4 137 4H367.5C375.232 4 381.5 10.268 381.5 18V177C381.5 184.732 375.232 191 367.5 191H233.209C227.783 191 222.403 192 217.34 193.95L182.601 207.329C179.281 208.608 177.011 203.947 180.064 202.122C185.278 199.004 183.068 191 176.993 191H130.527C126.37 191 123 187.63 123 183.473V18Z" fill="#FFFDFD"/>
<path d="M175.143 54.199H170.371V45.8865H163.303V54.199H158.504V34.2927H163.303V42.1951H170.371V34.2927H175.143V54.199ZM185.137 54.4724C182.867 54.4724 181.031 53.7979 179.627 52.449C178.223 51.0909 177.521 49.3272 177.521 47.158V46.7751C177.521 45.2621 177.799 43.9268 178.355 42.7693C178.921 41.6117 179.741 40.7185 180.816 40.0896C181.892 39.4516 183.168 39.1326 184.645 39.1326C186.723 39.1326 188.363 39.7797 189.566 41.074C190.77 42.3591 191.371 44.1547 191.371 46.4607V48.2517H182.211C182.375 49.0811 182.735 49.7328 183.291 50.2068C183.847 50.6807 184.567 50.9177 185.451 50.9177C186.91 50.9177 188.049 50.4073 188.869 49.3865L190.975 51.8748C190.4 52.6677 189.585 53.3012 188.527 53.7751C187.479 54.24 186.349 54.4724 185.137 54.4724ZM184.617 42.6873C183.268 42.6873 182.466 43.5805 182.211 45.3669H186.859V45.0115C186.878 44.2732 186.691 43.7035 186.299 43.3025C185.907 42.8923 185.346 42.6873 184.617 42.6873ZM198.098 54.199H193.477V33.199H198.098V54.199ZM205.809 54.199H201.188V33.199H205.809V54.199ZM208.078 46.6658C208.078 45.1892 208.365 43.8767 208.939 42.7283C209.514 41.5707 210.339 40.682 211.414 40.0623C212.49 39.4425 213.752 39.1326 215.201 39.1326C217.416 39.1326 219.161 39.8207 220.438 41.197C221.714 42.5642 222.352 44.4281 222.352 46.7888V46.9529C222.352 49.2589 221.709 51.0909 220.424 52.449C219.148 53.7979 217.416 54.4724 215.229 54.4724C213.123 54.4724 211.432 53.8435 210.156 52.5857C208.88 51.3188 208.192 49.6052 208.092 47.4451L208.078 46.6658ZM212.686 46.9529C212.686 48.3201 212.9 49.3227 213.328 49.9607C213.757 50.5987 214.39 50.9177 215.229 50.9177C216.869 50.9177 217.708 49.6554 217.744 47.1306V46.6658C217.744 44.0134 216.896 42.6873 215.201 42.6873C213.661 42.6873 212.827 43.8311 212.699 46.1189L212.686 46.9529ZM227.232 49.7283C227.962 49.7283 228.568 49.947 229.051 50.3845C229.534 50.8129 229.775 51.3643 229.775 52.0388C229.775 52.7133 229.534 53.2693 229.051 53.7068C228.568 54.1352 227.962 54.3494 227.232 54.3494C226.494 54.3494 225.883 54.1306 225.4 53.6931C224.926 53.2556 224.689 52.7042 224.689 52.0388C224.689 51.3735 224.926 50.822 225.4 50.3845C225.883 49.947 226.494 49.7283 227.232 49.7283ZM245.156 54.199H240.371V34.2927H245.156V54.199ZM249.914 40.5271L247.891 39.4333C248.647 38.1208 249.035 36.8357 249.053 35.5779V33.199H252.416V35.4275C252.416 36.2751 252.17 37.182 251.678 38.1482C251.195 39.1052 250.607 39.8982 249.914 40.5271ZM259.17 39.406L259.32 41.1423C260.368 39.8025 261.777 39.1326 263.545 39.1326C265.413 39.1326 266.676 39.8754 267.332 41.3611C268.335 39.8754 269.784 39.1326 271.68 39.1326C274.678 39.1326 276.219 40.9464 276.301 44.574V54.199H271.68V44.8611C271.68 44.1046 271.552 43.5531 271.297 43.2068C271.042 42.8604 270.577 42.6873 269.902 42.6873C268.991 42.6873 268.312 43.0929 267.865 43.9041L267.879 44.0955V54.199H263.258V44.8884C263.258 44.1137 263.135 43.5531 262.889 43.2068C262.643 42.8604 262.173 42.6873 261.48 42.6873C260.596 42.6873 259.922 43.0929 259.457 43.9041V54.199H254.85V39.406H259.17ZM286.117 54.199V34.2927H293.268C295.829 34.2927 297.775 34.7621 299.105 35.7009C300.445 36.6397 301.115 38.0024 301.115 39.7888C301.115 40.8188 300.878 41.6983 300.404 42.4275C299.93 43.1567 299.233 43.6944 298.312 44.0408C299.352 44.3142 300.149 44.8246 300.705 45.572C301.261 46.3194 301.539 47.2309 301.539 48.3064C301.539 50.2569 300.919 51.7244 299.68 52.7087C298.449 53.684 296.622 54.1807 294.197 54.199H286.117ZM290.916 45.7361V50.5076H294.061C294.926 50.5076 295.592 50.3116 296.057 49.9197C296.521 49.5186 296.754 48.9581 296.754 48.238C296.754 46.5792 295.929 45.7452 294.279 45.7361H290.916ZM290.916 42.5916H293.418C294.466 42.5824 295.214 42.391 295.66 42.0173C296.107 41.6436 296.33 41.0922 296.33 40.363C296.33 39.5245 296.089 38.9229 295.605 38.5583C295.122 38.1847 294.343 37.9978 293.268 37.9978H290.916V42.5916ZM312.928 43.5759L311.41 43.4666C309.961 43.4666 309.031 43.9223 308.621 44.8337V54.199H304.014V39.406H308.334L308.484 41.3064C309.259 39.8572 310.339 39.1326 311.725 39.1326C312.217 39.1326 312.645 39.1873 313.01 39.2966L312.928 43.5759ZM319.449 54.199H314.828V39.406H319.449V54.199ZM314.555 35.5916C314.555 34.9353 314.792 34.3975 315.266 33.9783C315.74 33.559 316.355 33.3494 317.111 33.3494C317.868 33.3494 318.483 33.559 318.957 33.9783C319.431 34.3975 319.668 34.9353 319.668 35.5916C319.668 36.2478 319.431 36.7856 318.957 37.2048C318.483 37.6241 317.868 37.8337 317.111 37.8337C316.355 37.8337 315.74 37.6241 315.266 37.2048C314.792 36.7856 314.555 36.2478 314.555 35.5916ZM321.719 46.6658C321.719 45.1892 322.006 43.8767 322.58 42.7283C323.154 41.5707 323.979 40.682 325.055 40.0623C326.13 39.4425 327.393 39.1326 328.842 39.1326C331.057 39.1326 332.802 39.8207 334.078 41.197C335.354 42.5642 335.992 44.4281 335.992 46.7888V46.9529C335.992 49.2589 335.35 51.0909 334.064 52.449C332.788 53.7979 331.057 54.4724 328.869 54.4724C326.764 54.4724 325.073 53.8435 323.797 52.5857C322.521 51.3188 321.833 49.6052 321.732 47.4451L321.719 46.6658ZM326.326 46.9529C326.326 48.3201 326.54 49.3227 326.969 49.9607C327.397 50.5987 328.031 50.9177 328.869 50.9177C330.51 50.9177 331.348 49.6554 331.385 47.1306V46.6658C331.385 44.0134 330.537 42.6873 328.842 42.6873C327.301 42.6873 326.467 43.8311 326.34 46.1189L326.326 46.9529ZM342.596 47.8962H338.863L338.275 34.2927H343.184L342.596 47.8962ZM338.139 52.1345C338.139 51.46 338.38 50.9086 338.863 50.4802C339.355 50.0427 339.966 49.824 340.695 49.824C341.424 49.824 342.031 50.0427 342.514 50.4802C343.006 50.9086 343.252 51.46 343.252 52.1345C343.252 52.809 343.006 53.365 342.514 53.8025C342.031 54.2309 341.424 54.4451 340.695 54.4451C339.966 54.4451 339.355 54.2309 338.863 53.8025C338.38 53.365 338.139 52.809 338.139 52.1345ZM161.254 85.199H158.178V72.4021H161.254V85.199ZM164.312 76.4099L163.012 75.7068C163.498 74.863 163.747 74.0369 163.759 73.2283V71.699H165.921V73.1316C165.921 73.6765 165.763 74.2595 165.446 74.8806C165.136 75.4958 164.758 76.0056 164.312 76.4099ZM170.263 75.6892L170.359 76.8054C171.033 75.9441 171.938 75.5134 173.075 75.5134C174.276 75.5134 175.088 75.991 175.51 76.946C176.154 75.991 177.086 75.5134 178.305 75.5134C180.232 75.5134 181.223 76.6794 181.275 79.0115V85.199H178.305V79.196C178.305 78.7097 178.223 78.3552 178.059 78.1326C177.895 77.9099 177.596 77.7986 177.162 77.7986C176.576 77.7986 176.14 78.0593 175.853 78.5808L175.861 78.7039V85.199H172.891V79.2136C172.891 78.7156 172.812 78.3552 172.653 78.1326C172.495 77.9099 172.193 77.7986 171.748 77.7986C171.18 77.7986 170.746 78.0593 170.447 78.5808V85.199H167.485V75.6892H170.263ZM191.251 81.0505L192.833 75.6892H196.006L192.13 86.7898L191.963 87.1941C191.412 88.4246 190.439 89.0398 189.045 89.0398C188.658 89.0398 188.251 88.9812 187.823 88.864V86.7458H188.21C188.626 86.7458 188.942 86.6843 189.159 86.5613C189.382 86.4441 189.546 86.2302 189.651 85.9197L189.889 85.2869L186.584 75.6892H189.748L191.251 81.0505ZM196.27 80.3562C196.27 79.407 196.454 78.5632 196.823 77.825C197.192 77.0808 197.723 76.5095 198.414 76.1111C199.105 75.7126 199.917 75.5134 200.849 75.5134C202.272 75.5134 203.395 75.9558 204.215 76.8406C205.035 77.7195 205.445 78.9177 205.445 80.4353V80.5408C205.445 82.0232 205.032 83.2009 204.206 84.074C203.386 84.9412 202.272 85.3748 200.866 85.3748C199.513 85.3748 198.426 84.9705 197.605 84.1619C196.785 83.3474 196.343 82.2458 196.278 80.8572L196.27 80.3562ZM199.231 80.5408C199.231 81.4197 199.369 82.0642 199.645 82.4744C199.92 82.8845 200.327 83.0896 200.866 83.0896C201.921 83.0896 202.46 82.2781 202.483 80.655V80.3562C202.483 78.6511 201.938 77.7986 200.849 77.7986C199.858 77.7986 199.322 78.5339 199.24 80.0046L199.231 80.5408ZM212.415 84.1707C211.788 84.9734 210.941 85.3748 209.875 85.3748C208.832 85.3748 208.041 85.073 207.502 84.4695C206.969 83.8601 206.702 82.9871 206.702 81.8503V75.6892H209.664V81.8679C209.664 82.6824 210.06 83.0896 210.851 83.0896C211.53 83.0896 212.014 82.8464 212.301 82.3601V75.6892H215.28V85.199H212.503L212.415 84.1707ZM222.663 78.3699L221.688 78.2996C220.756 78.2996 220.158 78.5925 219.895 79.1785V85.199H216.933V75.6892H219.71L219.807 76.9109C220.305 75.9792 220.999 75.5134 221.89 75.5134C222.206 75.5134 222.481 75.5486 222.716 75.6189L222.663 78.3699ZM237.042 80.5144C237.042 81.991 236.708 83.1716 236.04 84.0564C235.378 84.9353 234.481 85.3748 233.351 85.3748C232.478 85.3748 231.76 85.0554 231.197 84.4167V88.8552H228.235V75.6892H231.004L231.092 76.5681C231.66 75.865 232.407 75.5134 233.333 75.5134C234.505 75.5134 235.416 75.947 236.066 76.8142C236.717 77.6755 237.042 78.8621 237.042 80.3738V80.5144ZM234.08 80.3298C234.08 78.6423 233.588 77.7986 232.604 77.7986C231.9 77.7986 231.432 78.0505 231.197 78.5544V82.2986C231.455 82.8259 231.93 83.0896 232.621 83.0896C233.564 83.0896 234.051 82.2751 234.08 80.6462V80.3298ZM242.957 85.3748C241.498 85.3748 240.317 84.9412 239.415 84.074C238.513 83.2009 238.062 82.0671 238.062 80.6726V80.4265C238.062 79.4539 238.24 78.5955 238.598 77.8513C238.961 77.1072 239.488 76.533 240.18 76.1287C240.871 75.7185 241.691 75.5134 242.641 75.5134C243.977 75.5134 245.031 75.9294 245.805 76.7615C246.578 77.5876 246.965 78.7419 246.965 80.2244V81.3757H241.076C241.182 81.9089 241.413 82.3279 241.771 82.6326C242.128 82.9373 242.591 83.0896 243.159 83.0896C244.097 83.0896 244.829 82.7615 245.356 82.1052L246.71 83.7048C246.341 84.2146 245.816 84.6218 245.137 84.9265C244.463 85.2253 243.736 85.3748 242.957 85.3748ZM242.623 77.7986C241.756 77.7986 241.24 78.3728 241.076 79.5212H244.064V79.2927C244.076 78.8181 243.956 78.4519 243.704 78.1941C243.452 77.9304 243.092 77.7986 242.623 77.7986ZM253.917 78.3699L252.941 78.2996C252.01 78.2996 251.412 78.5925 251.148 79.1785V85.199H248.187V75.6892H250.964L251.061 76.9109C251.559 75.9792 252.253 75.5134 253.144 75.5134C253.46 75.5134 253.735 75.5486 253.97 75.6189L253.917 78.3699ZM259.964 82.5271C259.964 82.2751 259.832 82.073 259.568 81.9207C259.305 81.7683 258.804 81.6101 258.065 81.446C257.327 81.282 256.718 81.0681 256.237 80.8044C255.757 80.5349 255.391 80.2097 255.139 79.8289C254.887 79.448 254.761 79.0115 254.761 78.5193C254.761 77.6462 255.121 76.9285 255.842 76.366C256.562 75.7976 257.506 75.5134 258.672 75.5134C259.926 75.5134 260.934 75.7976 261.695 76.366C262.457 76.9343 262.838 77.6814 262.838 78.6072H259.867C259.867 77.8455 259.466 77.4646 258.663 77.4646C258.353 77.4646 258.092 77.5525 257.881 77.7283C257.67 77.8982 257.564 78.1121 257.564 78.3699C257.564 78.6335 257.693 78.8474 257.951 79.0115C258.209 79.1755 258.619 79.3103 259.182 79.4158C259.75 79.5212 260.248 79.6472 260.676 79.7937C262.105 80.2859 262.82 81.1677 262.82 82.4392C262.82 83.3064 262.434 84.0125 261.66 84.5574C260.893 85.1023 259.896 85.3748 258.672 85.3748C257.857 85.3748 257.131 85.2283 256.492 84.9353C255.854 84.6423 255.355 84.2439 254.998 83.74C254.641 83.2361 254.462 82.7058 254.462 82.1492H257.23C257.242 82.5886 257.389 82.9109 257.67 83.116C257.951 83.3152 258.312 83.4148 258.751 83.4148C259.155 83.4148 259.457 83.3328 259.656 83.1687C259.861 83.0046 259.964 82.7908 259.964 82.5271ZM263.84 80.3562C263.84 79.407 264.024 78.5632 264.394 77.825C264.763 77.0808 265.293 76.5095 265.984 76.1111C266.676 75.7126 267.487 75.5134 268.419 75.5134C269.843 75.5134 270.965 75.9558 271.785 76.8406C272.605 77.7195 273.016 78.9177 273.016 80.4353V80.5408C273.016 82.0232 272.603 83.2009 271.776 84.074C270.956 84.9412 269.843 85.3748 268.437 85.3748C267.083 85.3748 265.996 84.9705 265.176 84.1619C264.355 83.3474 263.913 82.2458 263.849 80.8572L263.84 80.3562ZM266.802 80.5408C266.802 81.4197 266.939 82.0642 267.215 82.4744C267.49 82.8845 267.897 83.0896 268.437 83.0896C269.491 83.0896 270.03 82.2781 270.054 80.655V80.3562C270.054 78.6511 269.509 77.7986 268.419 77.7986C267.429 77.7986 266.893 78.5339 266.811 80.0046L266.802 80.5408ZM277.041 75.6892L277.138 76.8054C277.794 75.9441 278.699 75.5134 279.854 75.5134C280.844 75.5134 281.582 75.8093 282.068 76.4011C282.561 76.9929 282.815 77.8835 282.833 79.073V85.199H279.862V79.196C279.862 78.7156 279.766 78.364 279.572 78.1414C279.379 77.9128 279.027 77.7986 278.518 77.7986C277.938 77.7986 277.507 78.0271 277.226 78.4841V85.199H274.264V75.6892H277.041ZM289.838 85.199C289.732 85.0056 289.639 84.7214 289.557 84.3464C289.012 85.032 288.25 85.3748 287.271 85.3748C286.375 85.3748 285.613 85.1052 284.986 84.5662C284.359 84.0212 284.046 83.3386 284.046 82.5183C284.046 81.4871 284.427 80.7078 285.188 80.1804C285.95 79.6531 287.058 79.3894 288.511 79.3894H289.425V78.8884C289.425 78.0154 289.047 77.5789 288.291 77.5789C287.588 77.5789 287.236 77.9246 287.236 78.616H284.274C284.274 77.696 284.664 76.949 285.443 76.3748C286.229 75.8005 287.228 75.5134 288.44 75.5134C289.653 75.5134 290.611 75.8093 291.314 76.4011C292.018 76.9929 292.378 77.8044 292.396 78.8357V83.0457C292.407 83.9187 292.542 84.5867 292.8 85.0496V85.199H289.838ZM287.983 83.2654C288.353 83.2654 288.657 83.1863 288.897 83.0281C289.144 82.8699 289.319 82.6912 289.425 82.4919V80.9714H288.563C287.532 80.9714 287.017 81.4343 287.017 82.3601C287.017 82.6296 287.107 82.8494 287.289 83.0193C287.471 83.1833 287.702 83.2654 287.983 83.2654ZM297.168 85.199H294.197V71.699H297.168V85.199ZM160.63 96.6892L160.727 97.8054C161.4 96.9441 162.306 96.5134 163.442 96.5134C164.644 96.5134 165.455 96.991 165.877 97.946C166.521 96.991 167.453 96.5134 168.672 96.5134C170.6 96.5134 171.59 97.6794 171.643 100.011V106.199H168.672V100.196C168.672 99.7097 168.59 99.3552 168.426 99.1326C168.262 98.9099 167.963 98.7986 167.529 98.7986C166.943 98.7986 166.507 99.0593 166.22 99.5808L166.229 99.7039V106.199H163.258V100.214C163.258 99.7156 163.179 99.3552 163.021 99.1326C162.862 98.9099 162.561 98.7986 162.115 98.7986C161.547 98.7986 161.113 99.0593 160.814 99.5808V106.199H157.853V96.6892H160.63ZM172.961 101.356C172.961 100.407 173.146 99.5632 173.515 98.825C173.884 98.0808 174.414 97.5095 175.105 97.1111C175.797 96.7126 176.608 96.5134 177.54 96.5134C178.964 96.5134 180.086 96.9558 180.906 97.8406C181.727 98.7195 182.137 99.9177 182.137 101.435V101.541C182.137 103.023 181.724 104.201 180.897 105.074C180.077 105.941 178.964 106.375 177.558 106.375C176.204 106.375 175.117 105.97 174.297 105.162C173.477 104.347 173.034 103.246 172.97 101.857L172.961 101.356ZM175.923 101.541C175.923 102.42 176.061 103.064 176.336 103.474C176.611 103.885 177.019 104.09 177.558 104.09C178.612 104.09 179.151 103.278 179.175 101.655V101.356C179.175 99.6511 178.63 98.7986 177.54 98.7986C176.55 98.7986 176.014 99.5339 175.932 101.005L175.923 101.541ZM186.892 94.325V96.6892H188.456V98.7458H186.892V103.096C186.892 103.454 186.956 103.703 187.085 103.844C187.214 103.984 187.469 104.054 187.85 104.054C188.143 104.054 188.389 104.037 188.588 104.002V106.12C188.055 106.29 187.498 106.375 186.918 106.375C185.898 106.375 185.146 106.135 184.659 105.654C184.173 105.174 183.93 104.444 183.93 103.466V98.7458H182.717V96.6892H183.93V94.325H186.892ZM192.754 106.199H189.783V96.6892H192.754V106.199ZM189.607 94.2371C189.607 93.8152 189.76 93.4695 190.064 93.2C190.369 92.9304 190.765 92.7957 191.251 92.7957C191.737 92.7957 192.133 92.9304 192.438 93.2C192.742 93.4695 192.895 93.8152 192.895 94.2371C192.895 94.6589 192.742 95.0046 192.438 95.2742C192.133 95.5437 191.737 95.6785 191.251 95.6785C190.765 95.6785 190.369 95.5437 190.064 95.2742C189.76 95.0046 189.607 94.6589 189.607 94.2371ZM198.379 102.675L199.882 96.6892H203.002L199.899 106.199H196.876L193.773 96.6892H196.902L198.379 102.675ZM209.102 106.199C208.996 106.006 208.902 105.721 208.82 105.346C208.275 106.032 207.514 106.375 206.535 106.375C205.639 106.375 204.877 106.105 204.25 105.566C203.623 105.021 203.31 104.339 203.31 103.518C203.31 102.487 203.69 101.708 204.452 101.18C205.214 100.653 206.321 100.389 207.774 100.389H208.688V99.8884C208.688 99.0154 208.311 98.5789 207.555 98.5789C206.852 98.5789 206.5 98.9246 206.5 99.616H203.538C203.538 98.696 203.928 97.949 204.707 97.3748C205.492 96.8005 206.491 96.5134 207.704 96.5134C208.917 96.5134 209.875 96.8093 210.578 97.4011C211.281 97.9929 211.642 98.8044 211.659 99.8357V104.046C211.671 104.919 211.806 105.587 212.063 106.05V106.199H209.102ZM207.247 104.265C207.616 104.265 207.921 104.186 208.161 104.028C208.407 103.87 208.583 103.691 208.688 103.492V101.971H207.827C206.796 101.971 206.28 102.434 206.28 103.36C206.28 103.63 206.371 103.849 206.553 104.019C206.734 104.183 206.966 104.265 207.247 104.265ZM216.757 94.325V96.6892H218.321V98.7458H216.757V103.096C216.757 103.454 216.821 103.703 216.95 103.844C217.079 103.984 217.334 104.054 217.715 104.054C218.008 104.054 218.254 104.037 218.453 104.002V106.12C217.92 106.29 217.363 106.375 216.783 106.375C215.764 106.375 215.011 106.135 214.524 105.654C214.038 105.174 213.795 104.444 213.795 103.466V98.7458H212.582V96.6892H213.795V94.325H216.757ZM222.619 106.199H219.648V96.6892H222.619V106.199ZM219.473 94.2371C219.473 93.8152 219.625 93.4695 219.93 93.2C220.234 92.9304 220.63 92.7957 221.116 92.7957C221.603 92.7957 221.998 92.9304 222.303 93.2C222.607 93.4695 222.76 93.8152 222.76 94.2371C222.76 94.6589 222.607 95.0046 222.303 95.2742C221.998 95.5437 221.603 95.6785 221.116 95.6785C220.63 95.6785 220.234 95.5437 219.93 95.2742C219.625 95.0046 219.473 94.6589 219.473 94.2371ZM224.078 101.356C224.078 100.407 224.263 99.5632 224.632 98.825C225.001 98.0808 225.531 97.5095 226.223 97.1111C226.914 96.7126 227.726 96.5134 228.657 96.5134C230.081 96.5134 231.203 96.9558 232.023 97.8406C232.844 98.7195 233.254 99.9177 233.254 101.435V101.541C233.254 103.023 232.841 104.201 232.015 105.074C231.194 105.941 230.081 106.375 228.675 106.375C227.321 106.375 226.234 105.97 225.414 105.162C224.594 104.347 224.151 103.246 224.087 101.857L224.078 101.356ZM227.04 101.541C227.04 102.42 227.178 103.064 227.453 103.474C227.729 103.885 228.136 104.09 228.675 104.09C229.729 104.09 230.269 103.278 230.292 101.655V101.356C230.292 99.6511 229.747 98.7986 228.657 98.7986C227.667 98.7986 227.131 99.5339 227.049 101.005L227.04 101.541ZM237.279 96.6892L237.376 97.8054C238.032 96.9441 238.938 96.5134 240.092 96.5134C241.082 96.5134 241.82 96.8093 242.307 97.4011C242.799 97.9929 243.054 98.8835 243.071 100.073V106.199H240.101V100.196C240.101 99.7156 240.004 99.364 239.811 99.1414C239.617 98.9128 239.266 98.7986 238.756 98.7986C238.176 98.7986 237.745 99.0271 237.464 99.4841V106.199H234.502V96.6892H237.279ZM250.076 106.199C249.971 106.006 249.877 105.721 249.795 105.346C249.25 106.032 248.488 106.375 247.51 106.375C246.613 106.375 245.852 106.105 245.225 105.566C244.598 105.021 244.284 104.339 244.284 103.518C244.284 102.487 244.665 101.708 245.427 101.18C246.188 100.653 247.296 100.389 248.749 100.389H249.663V99.8884C249.663 99.0154 249.285 98.5789 248.529 98.5789C247.826 98.5789 247.475 98.9246 247.475 99.616H244.513C244.513 98.696 244.902 97.949 245.682 97.3748C246.467 96.8005 247.466 96.5134 248.679 96.5134C249.892 96.5134 250.85 96.8093 251.553 97.4011C252.256 97.9929 252.616 98.8044 252.634 99.8357V104.046C252.646 104.919 252.78 105.587 253.038 106.05V106.199H250.076ZM248.222 104.265C248.591 104.265 248.896 104.186 249.136 104.028C249.382 103.87 249.558 103.691 249.663 103.492V101.971H248.802C247.771 101.971 247.255 102.434 247.255 103.36C247.255 103.63 247.346 103.849 247.527 104.019C247.709 104.183 247.94 104.265 248.222 104.265ZM257.406 106.199H254.436V92.699H257.406V106.199ZM267.742 104.09C268.158 104.09 268.48 103.978 268.709 103.756C268.938 103.527 269.049 103.211 269.043 102.806H271.82C271.82 103.849 271.445 104.705 270.695 105.373C269.951 106.041 268.99 106.375 267.812 106.375C266.43 106.375 265.34 105.941 264.543 105.074C263.746 104.207 263.348 103.006 263.348 101.47V101.347C263.348 100.386 263.523 99.5398 263.875 98.8074C264.232 98.0691 264.745 97.5037 265.413 97.1111C266.081 96.7126 266.872 96.5134 267.786 96.5134C269.022 96.5134 270.004 96.8562 270.73 97.5417C271.457 98.2273 271.82 99.156 271.82 100.328H269.043C269.043 99.8357 268.923 99.4578 268.683 99.1941C268.442 98.9304 268.12 98.7986 267.716 98.7986C266.948 98.7986 266.5 99.2878 266.371 100.266C266.33 100.577 266.31 101.005 266.31 101.55C266.31 102.505 266.424 103.167 266.652 103.536C266.881 103.905 267.244 104.09 267.742 104.09ZM272.699 101.356C272.699 100.407 272.884 99.5632 273.253 98.825C273.622 98.0808 274.152 97.5095 274.844 97.1111C275.535 96.7126 276.347 96.5134 277.278 96.5134C278.702 96.5134 279.824 96.9558 280.645 97.8406C281.465 98.7195 281.875 99.9177 281.875 101.435V101.541C281.875 103.023 281.462 104.201 280.636 105.074C279.815 105.941 278.702 106.375 277.296 106.375C275.942 106.375 274.855 105.97 274.035 105.162C273.215 104.347 272.772 103.246 272.708 101.857L272.699 101.356ZM275.661 101.541C275.661 102.42 275.799 103.064 276.074 103.474C276.35 103.885 276.757 104.09 277.296 104.09C278.351 104.09 278.89 103.278 278.913 101.655V101.356C278.913 99.6511 278.368 98.7986 277.278 98.7986C276.288 98.7986 275.752 99.5339 275.67 101.005L275.661 101.541ZM288.537 106.199C288.432 106.006 288.338 105.721 288.256 105.346C287.711 106.032 286.949 106.375 285.971 106.375C285.074 106.375 284.312 106.105 283.686 105.566C283.059 105.021 282.745 104.339 282.745 103.518C282.745 102.487 283.126 101.708 283.888 101.18C284.649 100.653 285.757 100.389 287.21 100.389H288.124V99.8884C288.124 99.0154 287.746 98.5789 286.99 98.5789C286.287 98.5789 285.936 98.9246 285.936 99.616H282.974C282.974 98.696 283.363 97.949 284.143 97.3748C284.928 96.8005 285.927 96.5134 287.14 96.5134C288.353 96.5134 289.311 96.8093 290.014 97.4011C290.717 97.9929 291.077 98.8044 291.095 99.8357V104.046C291.106 104.919 291.241 105.587 291.499 106.05V106.199H288.537ZM286.683 104.265C287.052 104.265 287.356 104.186 287.597 104.028C287.843 103.87 288.019 103.691 288.124 103.492V101.971H287.263C286.231 101.971 285.716 102.434 285.716 103.36C285.716 103.63 285.807 103.849 285.988 104.019C286.17 104.183 286.401 104.265 286.683 104.265ZM296.764 104.09C297.18 104.09 297.502 103.978 297.73 103.756C297.959 103.527 298.07 103.211 298.064 102.806H300.842C300.842 103.849 300.467 104.705 299.717 105.373C298.973 106.041 298.012 106.375 296.834 106.375C295.451 106.375 294.361 105.941 293.564 105.074C292.768 104.207 292.369 103.006 292.369 101.47V101.347C292.369 100.386 292.545 99.5398 292.896 98.8074C293.254 98.0691 293.767 97.5037 294.435 97.1111C295.103 96.7126 295.894 96.5134 296.808 96.5134C298.044 96.5134 299.025 96.8562 299.752 97.5417C300.479 98.2273 300.842 99.156 300.842 100.328H298.064C298.064 99.8357 297.944 99.4578 297.704 99.1941C297.464 98.9304 297.142 98.7986 296.737 98.7986C295.97 98.7986 295.521 99.2878 295.393 100.266C295.352 100.577 295.331 101.005 295.331 101.55C295.331 102.505 295.445 103.167 295.674 103.536C295.902 103.905 296.266 104.09 296.764 104.09ZM304.99 97.7087C305.623 96.9119 306.432 96.5134 307.416 96.5134C308.465 96.5134 309.256 96.824 309.789 97.4451C310.322 98.0662 310.595 98.9832 310.606 100.196V106.199H307.636V100.266C307.636 99.7625 307.533 99.3933 307.328 99.1589C307.123 98.9187 306.774 98.7986 306.282 98.7986C305.673 98.7986 305.242 98.9919 304.99 99.3787V106.199H302.028V92.699H304.99V97.7087ZM313.296 109.644L311.802 108.941L312.101 108.344C312.511 107.582 312.725 106.855 312.742 106.164V103.967H315.115L315.106 105.874C315.101 106.548 314.928 107.233 314.588 107.93C314.248 108.628 313.817 109.199 313.296 109.644ZM325.012 106.199H321.936V93.4021H325.012V106.199ZM328.07 97.4099L326.77 96.7068C327.256 95.863 327.505 95.0369 327.517 94.2283V92.699H329.679V94.1316C329.679 94.6765 329.521 95.2595 329.204 95.8806C328.894 96.4958 328.516 97.0056 328.07 97.4099ZM335.189 102.675L336.692 96.6892H339.812L336.71 106.199H333.687L330.584 96.6892H333.713L335.189 102.675ZM345.174 106.375C343.715 106.375 342.534 105.941 341.632 105.074C340.729 104.201 340.278 103.067 340.278 101.673V101.427C340.278 100.454 340.457 99.5955 340.814 98.8513C341.178 98.1072 341.705 97.533 342.396 97.1287C343.088 96.7185 343.908 96.5134 344.857 96.5134C346.193 96.5134 347.248 96.9294 348.021 97.7615C348.795 98.5876 349.182 99.7419 349.182 101.224V102.376H343.293C343.398 102.909 343.63 103.328 343.987 103.633C344.345 103.937 344.808 104.09 345.376 104.09C346.313 104.09 347.046 103.761 347.573 103.105L348.927 104.705C348.558 105.215 348.033 105.622 347.354 105.927C346.68 106.225 345.953 106.375 345.174 106.375ZM344.84 98.7986C343.973 98.7986 343.457 99.3728 343.293 100.521H346.281V100.293C346.293 99.8181 346.173 99.4519 345.921 99.1941C345.669 98.9304 345.309 98.7986 344.84 98.7986ZM166.659 122.523C166.659 124.082 166.337 125.28 165.692 126.118C165.048 126.956 164.14 127.375 162.968 127.375C162.001 127.375 161.222 126.991 160.63 126.223L160.507 127.199H157.853V113.699H160.814V118.454C161.365 117.827 162.077 117.513 162.95 117.513C164.134 117.513 165.048 117.938 165.692 118.788C166.337 119.637 166.659 120.833 166.659 122.374V122.523ZM163.688 122.339C163.688 121.425 163.565 120.774 163.319 120.387C163.079 119.995 162.707 119.799 162.203 119.799C161.535 119.799 161.072 120.053 160.814 120.563V124.343C161.066 124.846 161.535 125.098 162.221 125.098C162.918 125.098 163.36 124.759 163.548 124.079C163.642 123.745 163.688 123.165 163.688 122.339ZM172.574 127.375C171.115 127.375 169.935 126.941 169.032 126.074C168.13 125.201 167.679 124.067 167.679 122.673V122.427C167.679 121.454 167.857 120.595 168.215 119.851C168.578 119.107 169.105 118.533 169.797 118.129C170.488 117.719 171.309 117.513 172.258 117.513C173.594 117.513 174.648 117.929 175.422 118.761C176.195 119.588 176.582 120.742 176.582 122.224V123.376H170.693C170.799 123.909 171.03 124.328 171.388 124.633C171.745 124.937 172.208 125.09 172.776 125.09C173.714 125.09 174.446 124.761 174.974 124.105L176.327 125.705C175.958 126.215 175.434 126.622 174.754 126.927C174.08 127.225 173.354 127.375 172.574 127.375ZM172.24 119.799C171.373 119.799 170.857 120.373 170.693 121.521H173.682V121.293C173.693 120.818 173.573 120.452 173.321 120.194C173.069 119.93 172.709 119.799 172.24 119.799ZM182.383 127.375C180.924 127.375 179.743 126.941 178.841 126.074C177.938 125.201 177.487 124.067 177.487 122.673V122.427C177.487 121.454 177.666 120.595 178.023 119.851C178.387 119.107 178.914 118.533 179.605 118.129C180.297 117.719 181.117 117.513 182.066 117.513C183.402 117.513 184.457 117.929 185.23 118.761C186.004 119.588 186.391 120.742 186.391 122.224V123.376H180.502C180.607 123.909 180.839 124.328 181.196 124.633C181.554 124.937 182.017 125.09 182.585 125.09C183.522 125.09 184.255 124.761 184.782 124.105L186.136 125.705C185.767 126.215 185.242 126.622 184.562 126.927C183.889 127.225 183.162 127.375 182.383 127.375ZM182.049 119.799C181.182 119.799 180.666 120.373 180.502 121.521H183.49V121.293C183.502 120.818 183.382 120.452 183.13 120.194C182.878 119.93 182.518 119.799 182.049 119.799ZM190.311 117.689L190.407 118.805C191.063 117.944 191.969 117.513 193.123 117.513C194.113 117.513 194.852 117.809 195.338 118.401C195.83 118.993 196.085 119.884 196.103 121.073V127.199H193.132V121.196C193.132 120.716 193.035 120.364 192.842 120.141C192.648 119.913 192.297 119.799 191.787 119.799C191.207 119.799 190.776 120.027 190.495 120.484V127.199H187.533V117.689H190.311ZM207.212 124.527C207.212 124.275 207.08 124.073 206.816 123.921C206.553 123.768 206.052 123.61 205.313 123.446C204.575 123.282 203.966 123.068 203.485 122.804C203.005 122.535 202.639 122.21 202.387 121.829C202.135 121.448 202.009 121.011 202.009 120.519C202.009 119.646 202.369 118.928 203.09 118.366C203.811 117.798 204.754 117.513 205.92 117.513C207.174 117.513 208.182 117.798 208.943 118.366C209.705 118.934 210.086 119.681 210.086 120.607H207.115C207.115 119.845 206.714 119.465 205.911 119.465C205.601 119.465 205.34 119.552 205.129 119.728C204.918 119.898 204.812 120.112 204.812 120.37C204.812 120.634 204.941 120.847 205.199 121.011C205.457 121.176 205.867 121.31 206.43 121.416C206.998 121.521 207.496 121.647 207.924 121.794C209.354 122.286 210.068 123.168 210.068 124.439C210.068 125.306 209.682 126.012 208.908 126.557C208.141 127.102 207.145 127.375 205.92 127.375C205.105 127.375 204.379 127.228 203.74 126.935C203.102 126.642 202.604 126.244 202.246 125.74C201.889 125.236 201.71 124.706 201.71 124.149H204.479C204.49 124.589 204.637 124.911 204.918 125.116C205.199 125.315 205.56 125.415 205.999 125.415C206.403 125.415 206.705 125.333 206.904 125.169C207.109 125.005 207.212 124.791 207.212 124.527ZM216.062 127.375C214.604 127.375 213.423 126.941 212.521 126.074C211.618 125.201 211.167 124.067 211.167 122.673V122.427C211.167 121.454 211.346 120.595 211.703 119.851C212.066 119.107 212.594 118.533 213.285 118.129C213.977 117.719 214.797 117.513 215.746 117.513C217.082 117.513 218.137 117.929 218.91 118.761C219.684 119.588 220.07 120.742 220.07 122.224V123.376H214.182C214.287 123.909 214.519 124.328 214.876 124.633C215.233 124.937 215.696 125.09 216.265 125.09C217.202 125.09 217.935 124.761 218.462 124.105L219.815 125.705C219.446 126.215 218.922 126.622 218.242 126.927C217.568 127.225 216.842 127.375 216.062 127.375ZM215.729 119.799C214.861 119.799 214.346 120.373 214.182 121.521H217.17V121.293C217.182 120.818 217.062 120.452 216.81 120.194C216.558 119.93 216.197 119.799 215.729 119.799ZM223.99 117.689L224.087 118.805C224.743 117.944 225.648 117.513 226.803 117.513C227.793 117.513 228.531 117.809 229.018 118.401C229.51 118.993 229.765 119.884 229.782 121.073V127.199H226.812V121.196C226.812 120.716 226.715 120.364 226.521 120.141C226.328 119.913 225.977 119.799 225.467 119.799C224.887 119.799 224.456 120.027 224.175 120.484V127.199H221.213V117.689H223.99ZM234.88 115.325V117.689H236.444V119.746H234.88V124.096C234.88 124.454 234.944 124.703 235.073 124.844C235.202 124.984 235.457 125.054 235.838 125.054C236.131 125.054 236.377 125.037 236.576 125.002V127.12C236.043 127.29 235.486 127.375 234.906 127.375C233.887 127.375 233.134 127.135 232.647 126.654C232.161 126.174 231.918 125.444 231.918 124.466V119.746H230.705V117.689H231.918V115.325H234.88ZM245.55 115.325V117.689H247.114V119.746H245.55V124.096C245.55 124.454 245.614 124.703 245.743 124.844C245.872 124.984 246.127 125.054 246.508 125.054C246.801 125.054 247.047 125.037 247.246 125.002V127.12C246.713 127.29 246.156 127.375 245.576 127.375C244.557 127.375 243.804 127.135 243.317 126.654C242.831 126.174 242.588 125.444 242.588 124.466V119.746H241.375V117.689H242.588V115.325H245.55ZM247.65 122.356C247.65 121.407 247.835 120.563 248.204 119.825C248.573 119.081 249.104 118.51 249.795 118.111C250.486 117.713 251.298 117.513 252.229 117.513C253.653 117.513 254.775 117.956 255.596 118.841C256.416 119.719 256.826 120.918 256.826 122.435V122.541C256.826 124.023 256.413 125.201 255.587 126.074C254.767 126.941 253.653 127.375 252.247 127.375C250.894 127.375 249.807 126.97 248.986 126.162C248.166 125.347 247.724 124.246 247.659 122.857L247.65 122.356ZM250.612 122.541C250.612 123.42 250.75 124.064 251.025 124.474C251.301 124.885 251.708 125.09 252.247 125.09C253.302 125.09 253.841 124.278 253.864 122.655V122.356C253.864 120.651 253.319 119.799 252.229 119.799C251.239 119.799 250.703 120.534 250.621 122.005L250.612 122.541ZM265.51 118.709C266.143 117.912 266.951 117.513 267.936 117.513C268.984 117.513 269.775 117.824 270.309 118.445C270.842 119.066 271.114 119.983 271.126 121.196V127.199H268.155V121.266C268.155 120.762 268.053 120.393 267.848 120.159C267.643 119.919 267.294 119.799 266.802 119.799C266.192 119.799 265.762 119.992 265.51 120.379V127.199H262.548V113.699H265.51V118.709ZM277.375 127.375C275.916 127.375 274.735 126.941 273.833 126.074C272.931 125.201 272.479 124.067 272.479 122.673V122.427C272.479 121.454 272.658 120.595 273.016 119.851C273.379 119.107 273.906 118.533 274.598 118.129C275.289 117.719 276.109 117.513 277.059 117.513C278.395 117.513 279.449 117.929 280.223 118.761C280.996 119.588 281.383 120.742 281.383 122.224V123.376H275.494C275.6 123.909 275.831 124.328 276.188 124.633C276.546 124.937 277.009 125.09 277.577 125.09C278.515 125.09 279.247 124.761 279.774 124.105L281.128 125.705C280.759 126.215 280.234 126.622 279.555 126.927C278.881 127.225 278.154 127.375 277.375 127.375ZM277.041 119.799C276.174 119.799 275.658 120.373 275.494 121.521H278.482V121.293C278.494 120.818 278.374 120.452 278.122 120.194C277.87 119.93 277.51 119.799 277.041 119.799ZM285.707 127.199H282.736V113.699H285.707V127.199ZM296.368 122.514C296.368 123.991 296.034 125.172 295.366 126.056C294.704 126.935 293.808 127.375 292.677 127.375C291.804 127.375 291.086 127.055 290.523 126.417V130.855H287.562V117.689H290.33L290.418 118.568C290.986 117.865 291.733 117.513 292.659 117.513C293.831 117.513 294.742 117.947 295.393 118.814C296.043 119.676 296.368 120.862 296.368 122.374V122.514ZM293.406 122.33C293.406 120.642 292.914 119.799 291.93 119.799C291.227 119.799 290.758 120.051 290.523 120.554V124.299C290.781 124.826 291.256 125.09 291.947 125.09C292.891 125.09 293.377 124.275 293.406 122.646V122.33ZM305.966 123.051L307.548 117.689H310.721L306.845 128.79L306.678 129.194C306.127 130.425 305.154 131.04 303.76 131.04C303.373 131.04 302.966 130.981 302.538 130.864V128.746H302.925C303.341 128.746 303.657 128.684 303.874 128.561C304.097 128.444 304.261 128.23 304.366 127.92L304.604 127.287L301.299 117.689H304.463L305.966 123.051ZM310.984 122.356C310.984 121.407 311.169 120.563 311.538 119.825C311.907 119.081 312.438 118.51 313.129 118.111C313.82 117.713 314.632 117.513 315.563 117.513C316.987 117.513 318.109 117.956 318.93 118.841C319.75 119.719 320.16 120.918 320.16 122.435V122.541C320.16 124.023 319.747 125.201 318.921 126.074C318.101 126.941 316.987 127.375 315.581 127.375C314.228 127.375 313.141 126.97 312.32 126.162C311.5 125.347 311.058 124.246 310.993 122.857L310.984 122.356ZM313.946 122.541C313.946 123.42 314.084 124.064 314.359 124.474C314.635 124.885 315.042 125.09 315.581 125.09C316.636 125.09 317.175 124.278 317.198 122.655V122.356C317.198 120.651 316.653 119.799 315.563 119.799C314.573 119.799 314.037 120.534 313.955 122.005L313.946 122.541ZM327.13 126.171C326.503 126.973 325.656 127.375 324.59 127.375C323.547 127.375 322.756 127.073 322.217 126.469C321.684 125.86 321.417 124.987 321.417 123.85V117.689H324.379V123.868C324.379 124.682 324.774 125.09 325.565 125.09C326.245 125.09 326.729 124.846 327.016 124.36V117.689H329.995V127.199H327.218L327.13 126.171ZM158.485 148.199V140.746H157.105V138.689H158.485V137.933C158.485 136.849 158.805 136.009 159.443 135.411C160.082 134.813 160.979 134.514 162.133 134.514C162.555 134.514 163.018 134.576 163.521 134.699L163.53 136.879C163.349 136.826 163.105 136.8 162.801 136.8C161.904 136.8 161.456 137.186 161.456 137.96V138.689H163.311V140.746H161.456V148.199H158.485ZM168.742 148.375C167.283 148.375 166.103 147.941 165.2 147.074C164.298 146.201 163.847 145.067 163.847 143.673V143.427C163.847 142.454 164.025 141.595 164.383 140.851C164.746 140.107 165.273 139.533 165.965 139.129C166.656 138.719 167.477 138.513 168.426 138.513C169.762 138.513 170.816 138.929 171.59 139.761C172.363 140.588 172.75 141.742 172.75 143.224V144.376H166.861C166.967 144.909 167.198 145.328 167.556 145.633C167.913 145.937 168.376 146.09 168.944 146.09C169.882 146.09 170.614 145.761 171.142 145.105L172.495 146.705C172.126 147.215 171.602 147.622 170.922 147.927C170.248 148.225 169.521 148.375 168.742 148.375ZM168.408 140.799C167.541 140.799 167.025 141.373 166.861 142.521H169.85V142.293C169.861 141.818 169.741 141.452 169.489 141.194C169.237 140.93 168.877 140.799 168.408 140.799ZM178.551 148.375C177.092 148.375 175.911 147.941 175.009 147.074C174.106 146.201 173.655 145.067 173.655 143.673V143.427C173.655 142.454 173.834 141.595 174.191 140.851C174.555 140.107 175.082 139.533 175.773 139.129C176.465 138.719 177.285 138.513 178.234 138.513C179.57 138.513 180.625 138.929 181.398 139.761C182.172 140.588 182.559 141.742 182.559 143.224V144.376H176.67C176.775 144.909 177.007 145.328 177.364 145.633C177.722 145.937 178.185 146.09 178.753 146.09C179.69 146.09 180.423 145.761 180.95 145.105L182.304 146.705C181.935 147.215 181.41 147.622 180.73 147.927C180.057 148.225 179.33 148.375 178.551 148.375ZM178.217 140.799C177.35 140.799 176.834 141.373 176.67 142.521H179.658V142.293C179.67 141.818 179.55 141.452 179.298 141.194C179.046 140.93 178.686 140.799 178.217 140.799ZM186.883 148.199H183.912V134.699H186.883V148.199ZM198.555 148.199C198.449 148.006 198.355 147.721 198.273 147.346C197.729 148.032 196.967 148.375 195.988 148.375C195.092 148.375 194.33 148.105 193.703 147.566C193.076 147.021 192.763 146.339 192.763 145.518C192.763 144.487 193.144 143.708 193.905 143.18C194.667 142.653 195.774 142.389 197.228 142.389H198.142V141.888C198.142 141.015 197.764 140.579 197.008 140.579C196.305 140.579 195.953 140.925 195.953 141.616H192.991C192.991 140.696 193.381 139.949 194.16 139.375C194.945 138.801 195.944 138.513 197.157 138.513C198.37 138.513 199.328 138.809 200.031 139.401C200.734 139.993 201.095 140.804 201.112 141.836V146.046C201.124 146.919 201.259 147.587 201.517 148.05V148.199H198.555ZM196.7 146.265C197.069 146.265 197.374 146.186 197.614 146.028C197.86 145.87 198.036 145.691 198.142 145.492V143.971H197.28C196.249 143.971 195.733 144.434 195.733 145.36C195.733 145.63 195.824 145.849 196.006 146.019C196.188 146.183 196.419 146.265 196.7 146.265ZM205.885 148.199H202.914V134.699H205.885V148.199ZM210.842 148.199H207.871V134.699H210.842V148.199ZM220.606 136.325V138.689H222.171V140.746H220.606V145.096C220.606 145.454 220.671 145.703 220.8 145.844C220.929 145.984 221.184 146.054 221.564 146.054C221.857 146.054 222.104 146.037 222.303 146.002V148.12C221.77 148.29 221.213 148.375 220.633 148.375C219.613 148.375 218.86 148.135 218.374 147.654C217.888 147.174 217.645 146.444 217.645 145.466V140.746H216.432V138.689H217.645V136.325H220.606ZM226.24 139.709C226.873 138.912 227.682 138.513 228.666 138.513C229.715 138.513 230.506 138.824 231.039 139.445C231.572 140.066 231.845 140.983 231.856 142.196V148.199H228.886V142.266C228.886 141.762 228.783 141.393 228.578 141.159C228.373 140.919 228.024 140.799 227.532 140.799C226.923 140.799 226.492 140.992 226.24 141.379V148.199H223.278V134.699H226.24V139.709ZM238.105 148.375C236.646 148.375 235.466 147.941 234.563 147.074C233.661 146.201 233.21 145.067 233.21 143.673V143.427C233.21 142.454 233.389 141.595 233.746 140.851C234.109 140.107 234.637 139.533 235.328 139.129C236.02 138.719 236.84 138.513 237.789 138.513C239.125 138.513 240.18 138.929 240.953 139.761C241.727 140.588 242.113 141.742 242.113 143.224V144.376H236.225C236.33 144.909 236.562 145.328 236.919 145.633C237.276 145.937 237.739 146.09 238.308 146.09C239.245 146.09 239.978 145.761 240.505 145.105L241.858 146.705C241.489 147.215 240.965 147.622 240.285 147.927C239.611 148.225 238.885 148.375 238.105 148.375ZM237.771 140.799C236.904 140.799 236.389 141.373 236.225 142.521H239.213V142.293C239.225 141.818 239.104 141.452 238.853 141.194C238.601 140.93 238.24 140.799 237.771 140.799ZM247.448 143.374C247.448 142.413 247.606 141.563 247.923 140.825C248.239 140.087 248.693 139.518 249.285 139.12C249.877 138.716 250.565 138.513 251.351 138.513C252.341 138.513 253.114 138.847 253.671 139.515L253.776 138.689H256.466V147.839C256.466 148.677 256.27 149.403 255.877 150.018C255.49 150.639 254.928 151.114 254.189 151.442C253.451 151.776 252.596 151.943 251.623 151.943C250.926 151.943 250.249 151.811 249.593 151.548C248.942 151.284 248.444 150.941 248.099 150.519L249.338 148.779C249.889 149.429 250.615 149.755 251.518 149.755C252.83 149.755 253.486 149.081 253.486 147.733V147.434C252.918 148.061 252.2 148.375 251.333 148.375C250.173 148.375 249.235 147.932 248.521 147.048C247.806 146.157 247.448 144.968 247.448 143.479V143.374ZM250.419 143.558C250.419 144.338 250.565 144.956 250.858 145.413C251.151 145.864 251.562 146.09 252.089 146.09C252.728 146.09 253.193 145.876 253.486 145.448V141.449C253.199 141.015 252.739 140.799 252.106 140.799C251.579 140.799 251.166 141.036 250.867 141.51C250.568 141.979 250.419 142.662 250.419 143.558ZM257.775 143.356C257.775 142.407 257.96 141.563 258.329 140.825C258.698 140.081 259.229 139.51 259.92 139.111C260.611 138.713 261.423 138.513 262.354 138.513C263.778 138.513 264.9 138.956 265.721 139.841C266.541 140.719 266.951 141.918 266.951 143.435V143.541C266.951 145.023 266.538 146.201 265.712 147.074C264.892 147.941 263.778 148.375 262.372 148.375C261.019 148.375 259.932 147.97 259.111 147.162C258.291 146.347 257.849 145.246 257.784 143.857L257.775 143.356ZM260.737 143.541C260.737 144.42 260.875 145.064 261.15 145.474C261.426 145.885 261.833 146.09 262.372 146.09C263.427 146.09 263.966 145.278 263.989 143.655V143.356C263.989 141.651 263.444 140.799 262.354 140.799C261.364 140.799 260.828 141.534 260.746 143.005L260.737 143.541ZM267.883 143.356C267.883 142.407 268.067 141.563 268.437 140.825C268.806 140.081 269.336 139.51 270.027 139.111C270.719 138.713 271.53 138.513 272.462 138.513C273.886 138.513 275.008 138.956 275.828 139.841C276.648 140.719 277.059 141.918 277.059 143.435V143.541C277.059 145.023 276.646 146.201 275.819 147.074C274.999 147.941 273.886 148.375 272.479 148.375C271.126 148.375 270.039 147.97 269.219 147.162C268.398 146.347 267.956 145.246 267.892 143.857L267.883 143.356ZM270.845 143.541C270.845 144.42 270.982 145.064 271.258 145.474C271.533 145.885 271.94 146.09 272.479 146.09C273.534 146.09 274.073 145.278 274.097 143.655V143.356C274.097 141.651 273.552 140.799 272.462 140.799C271.472 140.799 270.936 141.534 270.854 143.005L270.845 143.541ZM277.99 143.374C277.99 141.868 278.315 140.681 278.966 139.814C279.616 138.947 280.524 138.513 281.69 138.513C282.54 138.513 283.255 138.847 283.835 139.515V134.699H286.806V148.199H284.143L283.993 147.179C283.384 147.976 282.61 148.375 281.673 148.375C280.542 148.375 279.646 147.941 278.983 147.074C278.321 146.207 277.99 144.973 277.99 143.374ZM280.952 143.558C280.952 145.246 281.444 146.09 282.429 146.09C283.085 146.09 283.554 145.814 283.835 145.263V141.642C283.565 141.08 283.103 140.799 282.446 140.799C281.532 140.799 281.037 141.537 280.961 143.013L280.952 143.558ZM293.626 148.199V140.746H292.246V138.689H293.626V137.933C293.626 136.849 293.945 136.009 294.584 135.411C295.223 134.813 296.119 134.514 297.273 134.514C297.695 134.514 298.158 134.576 298.662 134.699L298.671 136.879C298.489 136.826 298.246 136.8 297.941 136.8C297.045 136.8 296.597 137.186 296.597 137.96V138.689H298.451V140.746H296.597V148.199H293.626ZM303.883 148.375C302.424 148.375 301.243 147.941 300.341 147.074C299.438 146.201 298.987 145.067 298.987 143.673V143.427C298.987 142.454 299.166 141.595 299.523 140.851C299.887 140.107 300.414 139.533 301.105 139.129C301.797 138.719 302.617 138.513 303.566 138.513C304.902 138.513 305.957 138.929 306.73 139.761C307.504 140.588 307.891 141.742 307.891 143.224V144.376H302.002C302.107 144.909 302.339 145.328 302.696 145.633C303.054 145.937 303.517 146.09 304.085 146.09C305.022 146.09 305.755 145.761 306.282 145.105L307.636 146.705C307.267 147.215 306.742 147.622 306.062 147.927C305.389 148.225 304.662 148.375 303.883 148.375ZM303.549 140.799C302.682 140.799 302.166 141.373 302.002 142.521H304.99V142.293C305.002 141.818 304.882 141.452 304.63 141.194C304.378 140.93 304.018 140.799 303.549 140.799ZM313.691 148.375C312.232 148.375 311.052 147.941 310.149 147.074C309.247 146.201 308.796 145.067 308.796 143.673V143.427C308.796 142.454 308.975 141.595 309.332 140.851C309.695 140.107 310.223 139.533 310.914 139.129C311.605 138.719 312.426 138.513 313.375 138.513C314.711 138.513 315.766 138.929 316.539 139.761C317.312 140.588 317.699 141.742 317.699 143.224V144.376H311.811C311.916 144.909 312.147 145.328 312.505 145.633C312.862 145.937 313.325 146.09 313.894 146.09C314.831 146.09 315.563 145.761 316.091 145.105L317.444 146.705C317.075 147.215 316.551 147.622 315.871 147.927C315.197 148.225 314.471 148.375 313.691 148.375ZM313.357 140.799C312.49 140.799 311.975 141.373 311.811 142.521H314.799V142.293C314.811 141.818 314.69 141.452 314.438 141.194C314.187 140.93 313.826 140.799 313.357 140.799ZM322.023 148.199H319.053V134.699H322.023V148.199ZM328.835 145.527C328.835 145.275 328.703 145.073 328.439 144.921C328.176 144.768 327.675 144.61 326.937 144.446C326.198 144.282 325.589 144.068 325.108 143.804C324.628 143.535 324.262 143.21 324.01 142.829C323.758 142.448 323.632 142.011 323.632 141.519C323.632 140.646 323.992 139.928 324.713 139.366C325.434 138.798 326.377 138.513 327.543 138.513C328.797 138.513 329.805 138.798 330.566 139.366C331.328 139.934 331.709 140.681 331.709 141.607H328.738C328.738 140.845 328.337 140.465 327.534 140.465C327.224 140.465 326.963 140.552 326.752 140.728C326.541 140.898 326.436 141.112 326.436 141.37C326.436 141.634 326.564 141.847 326.822 142.011C327.08 142.176 327.49 142.31 328.053 142.416C328.621 142.521 329.119 142.647 329.547 142.794C330.977 143.286 331.691 144.168 331.691 145.439C331.691 146.306 331.305 147.012 330.531 147.557C329.764 148.102 328.768 148.375 327.543 148.375C326.729 148.375 326.002 148.228 325.363 147.935C324.725 147.642 324.227 147.244 323.869 146.74C323.512 146.236 323.333 145.706 323.333 145.149H326.102C326.113 145.589 326.26 145.911 326.541 146.116C326.822 146.315 327.183 146.415 327.622 146.415C328.026 146.415 328.328 146.333 328.527 146.169C328.732 146.005 328.835 145.791 328.835 145.527ZM334.917 145.325C335.386 145.325 335.775 145.466 336.086 145.747C336.396 146.022 336.552 146.377 336.552 146.81C336.552 147.244 336.396 147.601 336.086 147.883C335.775 148.158 335.386 148.296 334.917 148.296C334.442 148.296 334.05 148.155 333.739 147.874C333.435 147.593 333.282 147.238 333.282 146.81C333.282 146.383 333.435 146.028 333.739 145.747C334.05 145.466 334.442 145.325 334.917 145.325Z" fill="#51ADE0"/>
<path d="M107.131 164.423C108.931 158.785 116.364 157.564 119.874 162.33L166.901 226.198C168.275 228.064 170.458 229.161 172.775 229.149L252.088 228.746C258.007 228.716 261.465 235.408 258.016 240.219L211.806 304.68C210.456 306.564 210.088 308.979 210.815 311.179L235.707 386.485C237.565 392.105 232.269 397.462 226.628 395.669L151.042 371.64C148.833 370.938 146.423 371.334 144.555 372.706L80.6264 419.651C75.8557 423.154 69.1243 419.773 69.0866 413.854L68.5818 334.542C68.5671 332.224 67.4455 330.054 65.5639 328.701L1.16161 282.409C-3.64444 278.954 -2.50861 271.507 3.10878 269.642L78.3832 244.653C80.5824 243.923 82.3001 242.186 83.0049 239.979L107.131 164.423Z" fill="#FFCD1A"/>
<circle cx="167.264" cy="265.492" r="29.4801" transform="rotate(-9.32789 167.264 265.492)" fill="white"/>
<path d="M167.521 308.554C173.373 319.559 166.208 344.238 149.384 353.183C132.561 362.128 112.575 352.568 106.723 341.562C100.872 330.557 111.371 322.273 128.194 313.329C145.018 304.384 161.67 297.549 167.521 308.554Z" fill="white"/>
<circle cx="163.088" cy="274.714" r="12.6343" transform="rotate(-9.32789 163.088 274.714)" fill="#FFCC19"/>
<circle cx="96.596" cy="285.636" r="29.4801" transform="rotate(-9.32789 96.596 285.636)" fill="white"/>
<circle cx="103.047" cy="290.266" r="12.6343" transform="rotate(-9.32789 103.047 290.266)" fill="#FFCC19"/>
<circle cx="103.047" cy="290.267" r="7.01907" transform="rotate(-9.32789 103.047 290.267)" fill="#51ADE0"/>
<circle cx="163.088" cy="274.714" r="7.01907" transform="rotate(-9.32789 163.088 274.714)" fill="#51ADE0"/>
<circle cx="164.948" cy="268.718" r="4.21144" transform="rotate(-9.32789 164.948 268.718)" fill="white"/>
<circle cx="97.0506" cy="288.406" r="4.21144" transform="rotate(-9.32789 97.0506 288.406)" fill="white"/>
<path d="M151 533C147.133 533 144 536.133 144 540C144 543.867 147.133 547 151 547C154.867 547 158 543.867 158 540C158 536.133 154.867 533 151 533Z" fill="#94D7B5"/>
<path d="M175 533C171.133 533 168 536.133 168 540C168 543.867 171.133 547 175 547C178.867 547 182 543.867 182 540C182 536.133 178.867 533 175 533Z" fill="#ECC08D"/>
<path d="M199 533C195.133 533 192 536.133 192 540C192 543.867 195.133 547 199 547C202.867 547 206 543.867 206 540C206 536.133 202.867 533 199 533Z" fill="#ECC08D"/>
<path d="M223 533C219.133 533 216 536.133 216 540C216 543.867 219.133 547 223 547C226.867 547 230 543.867 230 540C230 536.133 226.867 533 223 533Z" fill="#ECC08D"/>
</svg>
