<svg width="235" height="216" viewBox="0 0 235 216" fill="none" xmlns="http://www.w3.org/2000/svg">
<path d="M87.7267 27.3654L74.8803 74.6004C74.4194 76.2952 73.176 77.6675 71.5347 78.2929L25.7923 95.7227C23.1574 96.7267 22.7712 100.295 25.1302 101.839L66.0836 128.653C67.553 129.615 68.474 131.222 68.5615 132.976L71.0031 181.866C71.1437 184.682 74.4176 186.152 76.6155 184.385L114.772 153.722C116.142 152.622 117.954 152.243 119.649 152.702L166.901 165.487C169.623 166.224 172.032 163.564 171.032 160.928L153.661 115.163C153.037 113.521 153.237 111.68 154.197 110.21L180.958 69.222C182.5 66.861 180.715 63.7475 177.899 63.8845L129.006 66.2634C127.252 66.3487 125.562 65.5902 124.46 64.2226L93.7483 26.105C91.9792 23.9093 88.4666 24.6445 87.7267 27.3654Z" fill="#FFCD1A" stroke="#CDA000" stroke-width="2.04116" stroke-linecap="square" stroke-linejoin="bevel"/>
<circle cx="104.433" cy="141.406" r="12.6912" fill="#CDA000"/>
<circle cx="104.184" cy="136.926" r="14.1843" fill="#FFCC19"/>
<circle cx="127.452" cy="135.806" r="14.8065" fill="#CDA000"/>
<circle cx="127.452" cy="131.452" r="16.5484" fill="#FFCC19"/>
<path d="M231.272 0.48751C230.941 0.247247 230.557 0.0899368 230.152 0.0287608C229.747 -0.0324152 229.333 0.0043245 228.946 0.135901L205.677 7.89198C205.162 8.06293 204.714 8.39164 204.396 8.83154C204.078 9.27143 203.907 9.80019 203.906 10.3429V28.4404C202.074 28.4228 200.294 29.0481 198.875 30.2077C197.457 31.3672 196.489 32.9874 196.142 34.7865C195.795 36.5855 196.089 38.4493 196.974 40.0537C197.859 41.658 199.279 42.9012 200.986 43.567C202.693 44.2327 204.579 44.2788 206.317 43.6972C208.054 43.1157 209.533 41.9433 210.495 40.3841C211.457 38.8249 211.843 36.9777 211.583 35.1638C211.324 33.35 210.438 31.6844 209.077 30.457V22.5458L227.175 16.5142V23.2697C225.343 23.2521 223.562 23.8774 222.144 25.0369C220.725 26.1965 219.758 27.8167 219.41 29.6157C219.063 31.4147 219.357 33.2786 220.242 34.8829C221.127 36.4873 222.547 37.7305 224.254 38.3962C225.961 39.062 227.847 39.1081 229.585 38.5265C231.322 37.945 232.801 36.7726 233.763 35.2134C234.726 33.6542 235.111 31.807 234.852 29.9931C234.593 28.1793 233.706 26.5137 232.345 25.2863V2.58682C232.346 2.1769 232.249 1.77276 232.062 1.40775C231.876 1.04274 231.605 0.727314 231.272 0.48751ZM203.906 38.7819C203.395 38.7819 202.895 38.6302 202.47 38.3461C202.045 38.0621 201.714 37.6583 201.518 37.1859C201.322 36.7135 201.271 36.1936 201.371 35.6921C201.471 35.1906 201.717 34.7299 202.078 34.3684C202.44 34.0068 202.901 33.7606 203.402 33.6608C203.904 33.5611 204.423 33.6123 204.896 33.8079C205.368 34.0036 205.772 34.335 206.056 34.7602C206.34 35.1853 206.492 35.6852 206.492 36.1965C206.492 36.8822 206.219 37.5398 205.735 38.0246C205.25 38.5095 204.592 38.7819 203.906 38.7819ZM209.077 17.0984V12.2069L227.175 6.1753V11.0668L209.077 17.0984ZM227.175 33.6111C226.663 33.6111 226.163 33.4595 225.738 33.1754C225.313 32.8913 224.982 32.4876 224.786 32.0152C224.59 31.5427 224.539 31.0229 224.639 30.5214C224.739 30.0199 224.985 29.5592 225.347 29.1977C225.708 28.8361 226.169 28.5899 226.67 28.4901C227.172 28.3903 227.692 28.4415 228.164 28.6372C228.636 28.8329 229.04 29.1643 229.324 29.5894C229.608 30.0146 229.76 30.5144 229.76 31.0258C229.76 31.7115 229.488 32.3691 229.003 32.8539C228.518 33.3388 227.86 33.6111 227.175 33.6111Z" fill="#FFCD1A"/>
</svg>
