<svg width="156" height="156" viewBox="0 0 156 156" fill="none" xmlns="http://www.w3.org/2000/svg">
<path d="M153.415 72.5571H135.317V54.2941C135.317 53.6084 135.045 52.9508 134.56 52.466C134.075 51.9811 133.417 51.7087 132.732 51.7087H24.1467C23.461 51.7087 22.8034 51.9811 22.3185 52.466C21.8337 52.9508 21.5613 53.6084 21.5613 54.2941V72.5571H3.46378C2.7781 72.5571 2.1205 72.8295 1.63565 73.3143C1.1508 73.7992 0.878418 74.4568 0.878418 75.1424V152.538C0.878418 153.223 1.1508 153.881 1.63565 154.366C2.1205 154.851 2.7781 155.123 3.46378 155.123H153.415C154.1 155.123 154.758 154.851 155.243 154.366C155.728 153.881 156 153.223 156 152.538V75.1424C156 74.4568 155.728 73.7992 155.243 73.3143C154.758 72.8295 154.1 72.5571 153.415 72.5571ZM114.634 56.8795H130.146V72.3916H124.976V64.6355C124.976 63.9499 124.703 63.2923 124.218 62.8074C123.734 62.3226 123.076 62.0502 122.39 62.0502H114.634V56.8795ZM47.4149 56.8795H109.464V62.0502H47.4149V56.8795ZM119.805 67.2209V72.5571H37.0735V67.2209H119.805ZM26.732 56.8795H42.2442V62.0502H34.4881C33.8024 62.0502 33.1448 62.3226 32.66 62.8074C32.1751 63.2923 31.9027 63.9499 31.9027 64.6355V72.3916H26.732V56.8795ZM150.829 149.952H6.04914V77.7278H150.829V149.952Z" fill="#94D7B5"/>
<path d="M37.0736 139.611C42.1869 139.611 47.1855 138.095 51.4371 135.254C55.6887 132.413 59.0024 128.375 60.9592 123.651C62.916 118.927 63.428 113.729 62.4304 108.714C61.4328 103.698 58.9705 99.0917 55.3548 95.476C51.7391 91.8604 47.1325 89.398 42.1174 88.4005C37.1023 87.4029 31.904 87.9149 27.1798 89.8717C22.4557 91.8285 18.4179 95.1422 15.5771 99.3938C12.7363 103.645 11.22 108.644 11.22 113.757C11.2275 120.612 13.9538 127.183 18.8006 132.03C23.6475 136.877 30.2191 139.603 37.0736 139.611ZM37.0736 134.44C32.482 134.441 28.0223 132.904 24.4053 130.076L31.8486 122.633C33.4209 123.592 35.2268 124.099 37.0684 124.099C38.91 124.099 40.716 123.592 42.2882 122.633L49.7418 130.076C46.1248 132.904 41.6651 134.441 37.0736 134.44ZM31.9029 113.757C31.9029 112.735 32.2061 111.735 32.7743 110.885C33.3424 110.034 34.15 109.372 35.0948 108.98C36.0396 108.589 37.0793 108.486 38.0823 108.686C39.0854 108.885 40.0067 109.378 40.7298 110.101C41.453 110.824 41.9454 111.746 42.1449 112.749C42.3445 113.752 42.2421 114.791 41.8507 115.736C41.4593 116.681 40.7966 117.488 39.9463 118.057C39.096 118.625 38.0962 118.928 37.0736 118.928C35.7022 118.928 34.387 118.383 33.4173 117.414C32.4476 116.444 31.9029 115.129 31.9029 113.757ZM57.7565 113.757C57.757 118.349 56.2207 122.809 53.3924 126.426L45.9491 118.982C46.9079 117.41 47.4151 115.604 47.4151 113.762C47.4151 111.921 46.9079 110.115 45.9491 108.543L53.3924 101.089C56.2207 104.706 57.757 109.166 57.7565 113.757ZM37.0736 93.0744C41.6651 93.0738 46.1248 94.6101 49.7418 97.4385L42.2986 104.882C40.7263 103.923 38.9203 103.416 37.0787 103.416C35.2372 103.416 33.4312 103.923 31.8589 104.882L24.4053 97.4385C28.0223 94.6101 32.482 93.0738 37.0736 93.0744ZM20.7548 101.089L28.198 108.532C27.2393 110.105 26.7321 111.911 26.7321 113.752C26.7321 115.594 27.2393 117.4 28.198 118.972L20.7548 126.426C17.9244 122.809 16.3865 118.349 16.3865 113.757C16.3865 109.165 17.9244 104.705 20.7548 101.089Z" fill="#94D7B5"/>
<path d="M60.3421 98.2451H96.5371C97.2228 98.2451 97.8804 97.9727 98.3652 97.4878C98.8501 97.003 99.1225 96.3454 99.1225 95.6597V85.3183C99.1225 84.6326 98.8501 83.975 98.3652 83.4901C97.8804 83.0053 97.2228 82.7329 96.5371 82.7329H60.3421C59.6564 82.7329 58.9988 83.0053 58.5139 83.4901C58.0291 83.975 57.7567 84.6326 57.7567 85.3183V95.6597C57.7567 96.3454 58.0291 97.003 58.5139 97.4878C58.9988 97.9727 59.6564 98.2451 60.3421 98.2451ZM62.9274 87.9036H93.9518V93.0744H62.9274V87.9036Z" fill="#94D7B5"/>
<path d="M88.7805 103.416H68.0977V108.587H88.7805V103.416Z" fill="#94D7B5"/>
<path d="M62.9274 139.611H57.7567V144.782H62.9274V139.611Z" fill="#94D7B5"/>
<path d="M99.1224 139.611H93.9517V144.782H99.1224V139.611Z" fill="#94D7B5"/>
<path d="M88.7805 139.611H68.0977V144.782H88.7805V139.611Z" fill="#94D7B5"/>
<path d="M68.0977 134.44H88.7805V113.757H68.0977V134.44ZM73.2684 118.928H83.6098V129.269H73.2684V118.928Z" fill="#94D7B5"/>
<path d="M13.8053 144.782H24.1468V139.611H16.3907V134.44H11.22V142.196C11.22 142.882 11.4924 143.54 11.9772 144.024C12.4621 144.509 13.1197 144.782 13.8053 144.782Z" fill="#94D7B5"/>
<path d="M140.488 139.611H132.732V144.782H143.073C143.759 144.782 144.417 144.509 144.902 144.024C145.386 143.54 145.659 142.882 145.659 142.196V134.44H140.488V139.611Z" fill="#94D7B5"/>
<path d="M16.3907 82.7329H11.22V87.9036H16.3907V82.7329Z" fill="#94D7B5"/>
<path d="M145.659 82.7329H140.488V87.9036H145.659V82.7329Z" fill="#94D7B5"/>
<path d="M119.805 139.611C124.919 139.611 129.917 138.095 134.169 135.254C138.42 132.413 141.734 128.375 143.691 123.651C145.648 118.927 146.16 113.729 145.162 108.714C144.165 103.698 141.702 99.0917 138.087 95.476C134.471 91.8604 129.864 89.398 124.849 88.4005C119.834 87.4029 114.636 87.9149 109.912 89.8717C105.187 91.8285 101.15 95.1422 98.3088 99.3938C95.4679 103.645 93.9517 108.644 93.9517 113.757C93.9592 120.612 96.6855 127.183 101.532 132.03C106.379 136.877 112.951 139.603 119.805 139.611ZM119.805 134.44C115.214 134.441 110.754 132.904 107.137 130.076L114.58 122.633C116.153 123.592 117.959 124.099 119.8 124.099C121.642 124.099 123.448 123.592 125.02 122.633L132.474 130.076C128.856 132.904 124.397 134.441 119.805 134.44ZM114.635 113.757C114.635 112.735 114.938 111.735 115.506 110.885C116.074 110.034 116.882 109.372 117.827 108.98C118.771 108.589 119.811 108.486 120.814 108.686C121.817 108.885 122.738 109.378 123.462 110.101C124.185 110.824 124.677 111.746 124.877 112.749C125.076 113.752 124.974 114.791 124.582 115.736C124.191 116.681 123.528 117.488 122.678 118.057C121.828 118.625 120.828 118.928 119.805 118.928C118.434 118.928 117.119 118.383 116.149 117.414C115.179 116.444 114.635 115.129 114.635 113.757ZM140.488 113.757C140.489 118.349 138.952 122.809 136.124 126.426L128.681 118.982C129.64 117.41 130.147 115.604 130.147 113.762C130.147 111.921 129.64 110.115 128.681 108.543L136.124 101.089C138.952 104.706 140.489 109.166 140.488 113.757ZM119.805 93.0744C124.397 93.0738 128.856 94.6101 132.474 97.4385L125.03 104.882C123.458 103.923 121.652 103.416 119.81 103.416C117.969 103.416 116.163 103.923 114.591 104.882L107.137 97.4385C110.754 94.6101 115.214 93.0738 119.805 93.0744ZM103.486 101.089L110.93 108.532C109.971 110.105 109.464 111.911 109.464 113.752C109.464 115.594 109.971 117.4 110.93 118.972L103.486 126.426C100.656 122.809 99.1182 118.349 99.1182 113.757C99.1182 109.165 100.656 104.705 103.486 101.089Z" fill="#94D7B5"/>
<path d="M74.7813 0.487388C74.4497 0.247124 74.0655 0.0898148 73.6606 0.0286388C73.2558 -0.0325373 72.8422 0.00420242 72.4544 0.135779L49.1862 7.89186C48.6711 8.06281 48.2229 8.39152 47.905 8.83141C47.5872 9.27131 47.4158 9.80007 47.4152 10.3428V28.4403C45.5831 28.4227 43.8027 29.048 42.3841 30.2075C40.9654 31.3671 39.9982 32.9873 39.6508 34.7863C39.3035 36.5853 39.5979 38.4492 40.4829 40.0535C41.3679 41.6579 42.7875 42.9011 44.4945 43.5668C46.2015 44.2326 48.0879 44.2787 49.8254 43.6971C51.5629 43.1156 53.0415 41.9432 54.0038 40.384C54.9662 38.8248 55.3513 36.9776 55.0922 35.1637C54.8332 33.3499 53.9463 31.6843 52.586 30.4569V22.5457L70.6835 16.514V23.2696C68.8513 23.2519 67.071 23.8773 65.6523 25.0368C64.2336 26.1963 63.2664 27.8166 62.9191 29.6156C62.5717 31.4146 62.8661 33.2785 63.7512 34.8828C64.6362 36.4872 66.0557 37.7304 67.7627 38.3961C69.4697 39.0618 71.3562 39.108 73.0937 38.5264C74.8312 37.9449 76.3097 36.7725 77.2721 35.2133C78.2344 33.6541 78.6195 31.8068 78.3605 29.993C78.1014 28.1792 77.2145 26.5136 75.8542 25.2862V2.5867C75.8546 2.17678 75.7575 1.77264 75.571 1.40763C75.3844 1.04261 75.1137 0.727192 74.7813 0.487388ZM47.4152 38.7817C46.9039 38.7817 46.404 38.6301 45.9789 38.346C45.5537 38.0619 45.2224 37.6582 45.0267 37.1857C44.831 36.7133 44.7798 36.1935 44.8796 35.692C44.9793 35.1905 45.2255 34.7298 45.5871 34.3683C45.9487 34.0067 46.4093 33.7605 46.9109 33.6607C47.4124 33.5609 47.9322 33.6121 48.4046 33.8078C48.877 34.0035 49.2808 34.3349 49.5649 34.76C49.849 35.1852 50.0006 35.685 50.0006 36.1964C50.0006 36.8821 49.7282 37.5397 49.2434 38.0245C48.7585 38.5094 48.1009 38.7817 47.4152 38.7817ZM52.586 17.0983V12.2068L70.6835 6.17518V11.0667L52.586 17.0983ZM70.6835 33.611C70.1721 33.611 69.6723 33.4594 69.2471 33.1753C68.822 32.8912 68.4906 32.4874 68.2949 32.015C68.0992 31.5426 68.048 31.0228 68.1478 30.5213C68.2475 30.0198 68.4938 29.5591 68.8553 29.1975C69.2169 28.836 69.6776 28.5897 70.1791 28.49C70.6806 28.3902 71.2004 28.4414 71.6728 28.6371C72.1453 28.8328 72.549 29.1641 72.8331 29.5893C73.1172 30.0145 73.2688 30.5143 73.2688 31.0257C73.2688 31.7113 72.9965 32.3689 72.5116 32.8538C72.0268 33.3386 71.3692 33.611 70.6835 33.611Z" fill="#94D7B5"/>
<path d="M110.889 0.428136C110.531 0.192485 110.121 0.0492798 109.694 0.011375C109.268 -0.0265298 108.839 0.0420529 108.445 0.210966L90.3479 7.96705C89.8829 8.16636 89.4866 8.49771 89.2081 8.92003C88.9297 9.34236 88.7812 9.83711 88.7811 10.343V31.0259C86.949 31.0082 85.1686 31.6336 83.75 32.7931C82.3313 33.9526 81.3641 35.5729 81.0167 37.3719C80.6694 39.1709 80.9638 41.0348 81.8488 42.6391C82.7338 44.2434 84.1534 45.4867 85.8604 46.1524C87.5674 46.8181 89.4538 46.8642 91.1913 46.2827C92.9288 45.7011 94.4074 44.5288 95.3697 42.9696C96.3321 41.4104 96.7172 39.5631 96.4581 37.7493C96.1991 35.9355 95.3122 34.2699 93.9519 33.0424V22.3882L110.483 15.3043C110.948 15.105 111.344 14.7736 111.622 14.3513C111.901 13.929 112.049 13.4342 112.049 12.9284V2.58691C112.05 2.15913 111.944 1.73798 111.741 1.36122C111.538 0.98445 111.246 0.663844 110.889 0.428136ZM88.7811 41.3673C88.2698 41.3673 87.77 41.2157 87.3448 40.9316C86.9196 40.6475 86.5883 40.2437 86.3926 39.7713C86.1969 39.2989 86.1457 38.7791 86.2455 38.2776C86.3452 37.7761 86.5914 37.3154 86.953 36.9538C87.3146 36.5923 87.7752 36.346 88.2768 36.2463C88.7783 36.1465 89.2981 36.1977 89.7705 36.3934C90.2429 36.5891 90.6467 36.9204 90.9308 37.3456C91.2149 37.7708 91.3665 38.2706 91.3665 38.7819C91.3665 39.4676 91.0941 40.1252 90.6093 40.6101C90.1244 41.0949 89.4668 41.3673 88.7811 41.3673ZM106.879 11.2246L93.9519 16.7624V12.0467L106.879 6.5089V11.2246Z" fill="#94D7B5"/>
<path d="M26.7608 6.72364C24.8291 5.51154 22.5475 4.98035 20.2791 5.21459C18.0106 5.44884 15.8857 6.43506 14.2425 8.01632C13.2598 8.93957 12.4827 10.0596 11.9619 11.3033C11.4412 12.5471 11.1884 13.8866 11.2202 15.2346C11.1961 16.6211 11.4706 17.9964 12.0251 19.2674C12.5796 20.5383 13.4011 21.675 14.4338 22.6003L25.2147 30.5245C25.6587 30.851 26.1954 31.0271 26.7466 31.0271C27.2977 31.0271 27.8344 30.851 28.2784 30.5245L39.2248 22.4478C40.2055 21.5242 40.9811 20.4048 41.5013 19.1622C42.0215 17.9195 42.2747 16.5814 42.2445 15.2346C42.2763 13.8866 42.0235 12.5471 41.5028 11.3033C40.982 10.0596 40.2049 8.93957 39.2222 8.01632C37.5757 6.46161 35.4629 5.49253 33.2105 5.25888C30.9581 5.02522 28.6914 5.54 26.7608 6.72364ZM35.9673 18.4431L26.7324 25.2322L17.6836 18.5904C17.2494 18.1486 16.9106 17.6223 16.6882 17.0442C16.4659 16.466 16.3647 15.8484 16.3909 15.2295C16.3648 14.6106 16.4661 13.993 16.6885 13.4148C16.9108 12.8367 17.2495 12.3104 17.6836 11.8685C18.7178 10.92 20.0605 10.3782 21.4634 10.3431C22.7784 10.3634 24.0325 10.9013 24.9536 11.8401C25.4276 12.2888 26.0537 12.5416 26.7064 12.5479C27.359 12.5541 27.9899 12.3133 28.4723 11.8737C29.4501 10.9185 30.764 10.3854 32.1309 10.3893C33.4979 10.3932 34.8087 10.9336 35.7811 11.8944C36.2152 12.3362 36.5539 12.8626 36.7762 13.4407C36.9986 14.0188 37.0999 14.6365 37.0738 15.2553C37.1198 16.4178 36.7245 17.5547 35.9673 18.4379V18.4431Z" fill="#94D7B5"/>
<path d="M106.879 30.7466C106.854 32.133 107.129 33.5084 107.683 34.7793C108.238 36.0503 109.059 37.187 110.092 38.1123L120.873 46.0364C121.317 46.363 121.854 46.5391 122.405 46.5391C122.956 46.5391 123.493 46.363 123.937 46.0364L134.883 37.9598C135.864 37.0362 136.639 35.9168 137.16 34.6741C137.68 33.4315 137.933 32.0934 137.903 30.7466C137.935 29.3986 137.682 28.0591 137.161 26.8153C136.64 25.5715 135.863 24.4515 134.881 23.5283C133.236 21.9711 131.124 20.9992 128.871 20.7627C126.619 20.5263 124.351 21.0385 122.419 22.2201C120.486 21.01 118.203 20.4814 115.935 20.7185C113.666 20.9555 111.542 21.9446 109.901 23.5283C108.918 24.4515 108.141 25.5715 107.62 26.8153C107.1 28.0591 106.847 29.3986 106.879 30.7466ZM113.342 27.3856C114.372 26.4283 115.714 25.8771 117.119 25.8344C118.434 25.8547 119.688 26.3925 120.609 27.3313C121.083 27.7801 121.709 28.0329 122.362 28.0391C123.015 28.0454 123.646 27.8045 124.128 27.365C125.109 26.4117 126.425 25.8819 127.792 25.8896C129.16 25.8974 130.47 26.442 131.439 27.4063C131.873 27.8482 132.212 28.3745 132.435 28.9527C132.657 29.5308 132.758 30.1484 132.732 30.7673C132.783 31.9368 132.388 33.082 131.626 33.9705L122.391 40.7442L113.342 34.1024C112.908 33.6606 112.569 33.1343 112.347 32.5561C112.124 31.978 112.023 31.3603 112.049 30.7414C112.027 30.1269 112.13 29.5141 112.352 28.9407C112.574 28.3673 112.911 27.8452 113.342 27.4063V27.3856Z" fill="#94D7B5"/>
</svg>
