<svg width="334" height="531" viewBox="0 0 334 531" fill="none" xmlns="http://www.w3.org/2000/svg">
<path d="M2.75175 13.9996C2.81025 6.26783 9.12409 0.141365 16.8541 0.315747L319.13 7.1348C326.86 7.30919 333.079 13.7184 333.02 21.4502L331.556 214.926C331.495 222.987 324.658 229.23 316.617 228.566L287.654 226.175C280.493 225.584 273.308 226.449 266.534 228.718L221.408 243.833C217.439 245.162 214.947 239.516 218.636 237.555C225.06 234.139 222.535 224.334 215.215 224.268L15.363 222.467C7.55877 222.397 1.22387 215.955 1.28293 208.149L2.75175 13.9996Z" fill="#ECC08D"/>
<path d="M4.48827 18.9017C4.40198 11.1702 10.5999 4.95016 18.3316 5.00884L313.821 7.25149C321.552 7.31017 327.89 13.6254 327.976 21.3569L330.092 210.881C330.179 218.739 323.784 225.009 315.925 224.768L291.501 224.02C285.044 223.822 278.629 224.814 272.576 226.947L228.132 242.607C224.239 243.979 221.674 238.444 225.279 236.453C231.525 233.002 228.91 223.412 221.717 223.39L20.8269 222.794C13.0704 222.771 6.69296 216.445 6.60639 208.688L4.48827 18.9017Z" fill="#FFFDFD"/>
<path d="M57.3613 41.457C57.3613 43.3984 57.0013 45.1165 56.2812 46.6113C55.5612 48.1061 54.5358 49.2591 53.2051 50.0703C51.8835 50.8724 50.375 51.2734 48.6797 51.2734C46.9844 51.2734 45.4805 50.8861 44.168 50.1113C42.8555 49.3275 41.8301 48.2109 41.0918 46.7617C40.3626 45.3125 39.9798 43.6491 39.9434 41.7715V40.6504C39.9434 38.6999 40.2988 36.9818 41.0098 35.4961C41.7298 34.0013 42.7552 32.8483 44.0859 32.0371C45.4258 31.2259 46.9479 30.8203 48.6523 30.8203C50.3385 30.8203 51.8424 31.2214 53.1641 32.0234C54.4857 32.8255 55.5111 33.9694 56.2402 35.4551C56.9785 36.9316 57.3522 38.627 57.3613 40.541V41.457ZM52.4805 40.623C52.4805 38.6452 52.1478 37.1458 51.4824 36.125C50.8262 35.0951 49.8828 34.5801 48.6523 34.5801C46.2461 34.5801 44.9746 36.3848 44.8379 39.9941L44.8242 41.457C44.8242 43.4076 45.1478 44.9069 45.7949 45.9551C46.4421 47.0033 47.4036 47.5273 48.6797 47.5273C49.8919 47.5273 50.8262 47.0124 51.4824 45.9824C52.1387 44.9525 52.4714 43.4714 52.4805 41.5391V40.623ZM65.5645 45.4902L64.2656 46.7891V51H59.6582V29.9863H64.2656V41.1426L64.7305 40.5273L68.2031 36.207H73.7266L68.5449 42.291L74.0684 51H68.791L65.5645 45.4902ZM83.2695 51C83.1055 50.6992 82.9596 50.2572 82.832 49.6738C81.9844 50.7402 80.7995 51.2734 79.2773 51.2734C77.8828 51.2734 76.6979 50.8542 75.7227 50.0156C74.7474 49.168 74.2598 48.1061 74.2598 46.8301C74.2598 45.2259 74.8522 44.0137 76.0371 43.1934C77.222 42.373 78.9447 41.9629 81.2051 41.9629H82.627V41.1836C82.627 39.8255 82.0391 39.1465 80.8633 39.1465C79.7695 39.1465 79.2227 39.6842 79.2227 40.7598H74.6152C74.6152 39.3288 75.2214 38.1667 76.4336 37.2734C77.6549 36.3802 79.209 35.9336 81.0957 35.9336C82.9824 35.9336 84.4727 36.3939 85.5664 37.3145C86.6602 38.235 87.2207 39.4974 87.248 41.1016V47.6504C87.2663 49.0085 87.4759 50.0475 87.877 50.7676V51H83.2695ZM80.3848 47.9922C80.959 47.9922 81.4329 47.8691 81.8066 47.623C82.1895 47.377 82.4629 47.099 82.627 46.7891V44.4238H81.2871C79.6829 44.4238 78.8809 45.1439 78.8809 46.584C78.8809 47.0033 79.0221 47.3451 79.3047 47.6094C79.5872 47.8646 79.9473 47.9922 80.3848 47.9922ZM95.5059 44.5469L97.9668 36.207H102.902L96.873 53.4746L96.6133 54.1035C95.7565 56.0176 94.2435 56.9746 92.0742 56.9746C91.4727 56.9746 90.8392 56.8835 90.1738 56.7012V53.4062H90.7754C91.4225 53.4062 91.9147 53.3105 92.252 53.1191C92.5983 52.9368 92.8535 52.6042 93.0176 52.1211L93.3867 51.1367L88.2461 36.207H93.168L95.5059 44.5469ZM110.504 43.4668C110.504 41.9902 110.791 40.6777 111.365 39.5293C111.939 38.3717 112.764 37.4831 113.84 36.8633C114.915 36.2435 116.178 35.9336 117.627 35.9336C119.842 35.9336 121.587 36.6217 122.863 37.998C124.139 39.3652 124.777 41.2292 124.777 43.5898V43.7539C124.777 46.0599 124.135 47.8919 122.85 49.25C121.574 50.599 119.842 51.2734 117.654 51.2734C115.549 51.2734 113.858 50.6445 112.582 49.3867C111.306 48.1198 110.618 46.4062 110.518 44.2461L110.504 43.4668ZM115.111 43.7539C115.111 45.1211 115.326 46.1237 115.754 46.7617C116.182 47.3997 116.816 47.7188 117.654 47.7188C119.295 47.7188 120.133 46.4564 120.17 43.9316V43.4668C120.17 40.8145 119.322 39.4883 117.627 39.4883C116.087 39.4883 115.253 40.6322 115.125 42.9199L115.111 43.7539ZM132.748 45.4902L131.449 46.7891V51H126.842V29.9863H131.449V41.1426L131.914 40.5273L135.387 36.207H140.91L135.729 42.291L141.252 51H135.975L132.748 45.4902ZM150.453 51C150.289 50.6992 150.143 50.2572 150.016 49.6738C149.168 50.7402 147.983 51.2734 146.461 51.2734C145.066 51.2734 143.882 50.8542 142.906 50.0156C141.931 49.168 141.443 48.1061 141.443 46.8301C141.443 45.2259 142.036 44.0137 143.221 43.1934C144.406 42.373 146.128 41.9629 148.389 41.9629H149.811V41.1836C149.811 39.8255 149.223 39.1465 148.047 39.1465C146.953 39.1465 146.406 39.6842 146.406 40.7598H141.799C141.799 39.3288 142.405 38.1667 143.617 37.2734C144.839 36.3802 146.393 35.9336 148.279 35.9336C150.166 35.9336 151.656 36.3939 152.75 37.3145C153.844 38.235 154.404 39.4974 154.432 41.1016V47.6504C154.45 49.0085 154.66 50.0475 155.061 50.7676V51H150.453ZM147.568 47.9922C148.143 47.9922 148.617 47.8691 148.99 47.623C149.373 47.377 149.646 47.099 149.811 46.7891V44.4238H148.471C146.867 44.4238 146.064 45.1439 146.064 46.584C146.064 47.0033 146.206 47.3451 146.488 47.6094C146.771 47.8646 147.131 47.9922 147.568 47.9922ZM162.689 44.5469L165.15 36.207H170.086L164.057 53.4746L163.797 54.1035C162.94 56.0176 161.427 56.9746 159.258 56.9746C158.656 56.9746 158.023 56.8835 157.357 56.7012V53.4062H157.959C158.606 53.4062 159.098 53.3105 159.436 53.1191C159.782 52.9368 160.037 52.6042 160.201 52.1211L160.57 51.1367L155.43 36.207H160.352L162.689 44.5469ZM171.85 46.5293C172.579 46.5293 173.185 46.748 173.668 47.1855C174.151 47.6139 174.393 48.1654 174.393 48.8398C174.393 49.5143 174.151 50.0703 173.668 50.5078C173.185 50.9362 172.579 51.1504 171.85 51.1504C171.111 51.1504 170.501 50.9316 170.018 50.4941C169.544 50.0566 169.307 49.5052 169.307 48.8398C169.307 48.1745 169.544 47.623 170.018 47.1855C170.501 46.748 171.111 46.5293 171.85 46.5293ZM180.326 46.5293C181.055 46.5293 181.661 46.748 182.145 47.1855C182.628 47.6139 182.869 48.1654 182.869 48.8398C182.869 49.5143 182.628 50.0703 182.145 50.5078C181.661 50.9362 181.055 51.1504 180.326 51.1504C179.588 51.1504 178.977 50.9316 178.494 50.4941C178.02 50.0566 177.783 49.5052 177.783 48.8398C177.783 48.1745 178.02 47.623 178.494 47.1855C178.977 46.748 179.588 46.5293 180.326 46.5293ZM188.803 46.5293C189.532 46.5293 190.138 46.748 190.621 47.1855C191.104 47.6139 191.346 48.1654 191.346 48.8398C191.346 49.5143 191.104 50.0703 190.621 50.5078C190.138 50.9362 189.532 51.1504 188.803 51.1504C188.064 51.1504 187.454 50.9316 186.971 50.4941C186.497 50.0566 186.26 49.5052 186.26 48.8398C186.26 48.1745 186.497 47.623 186.971 47.1855C187.454 46.748 188.064 46.5293 188.803 46.5293ZM212.92 47.2812H206.344L205.195 51H200.068L207.369 31.0938H211.881L219.236 51H214.082L212.92 47.2812ZM207.492 43.5762H211.771L209.625 36.6719L207.492 43.5762ZM225.348 51H220.727V30H225.348V51ZM233.059 51H228.438V30H233.059V51ZM248.248 32.5293V36.207H250.682V39.4062H248.248V46.1738C248.248 46.7298 248.348 47.1172 248.549 47.3359C248.749 47.5547 249.146 47.6641 249.738 47.6641C250.194 47.6641 250.577 47.6367 250.887 47.582V50.877C250.057 51.1413 249.191 51.2734 248.289 51.2734C246.703 51.2734 245.532 50.8997 244.775 50.1523C244.019 49.4049 243.641 48.2702 243.641 46.748V39.4062H241.754V36.207H243.641V32.5293H248.248ZM257.012 37.793C257.996 36.5534 259.254 35.9336 260.785 35.9336C262.417 35.9336 263.647 36.4167 264.477 37.3828C265.306 38.349 265.73 39.7754 265.748 41.6621V51H261.127V41.7715C261.127 40.9876 260.967 40.4134 260.648 40.0488C260.329 39.6751 259.787 39.4883 259.021 39.4883C258.074 39.4883 257.404 39.7891 257.012 40.3906V51H252.404V30H257.012V37.793ZM273.172 51H268.551V36.207H273.172V51ZM268.277 32.3926C268.277 31.7363 268.514 31.1986 268.988 30.7793C269.462 30.36 270.077 30.1504 270.834 30.1504C271.59 30.1504 272.206 30.36 272.68 30.7793C273.154 31.1986 273.391 31.7363 273.391 32.3926C273.391 33.0488 273.154 33.5866 272.68 34.0059C272.206 34.4251 271.59 34.6348 270.834 34.6348C270.077 34.6348 269.462 34.4251 268.988 34.0059C268.514 33.5866 268.277 33.0488 268.277 32.3926ZM283.768 46.8438C283.768 46.4518 283.562 46.1374 283.152 45.9004C282.742 45.6634 281.963 45.4173 280.814 45.1621C279.666 44.9069 278.718 44.5742 277.971 44.1641C277.223 43.7448 276.654 43.2389 276.262 42.6465C275.87 42.054 275.674 41.375 275.674 40.6094C275.674 39.2513 276.234 38.1348 277.355 37.2598C278.477 36.3757 279.944 35.9336 281.758 35.9336C283.708 35.9336 285.276 36.3757 286.461 37.2598C287.646 38.1439 288.238 39.306 288.238 40.7461H283.617C283.617 39.5612 282.993 38.9688 281.744 38.9688C281.261 38.9688 280.855 39.1055 280.527 39.3789C280.199 39.6432 280.035 39.9759 280.035 40.377C280.035 40.7871 280.236 41.1198 280.637 41.375C281.038 41.6302 281.676 41.8398 282.551 42.0039C283.435 42.168 284.21 42.3639 284.875 42.5918C287.099 43.3574 288.211 44.7292 288.211 46.707C288.211 48.056 287.609 49.1543 286.406 50.002C285.212 50.8496 283.663 51.2734 281.758 51.2734C280.491 51.2734 279.361 51.0456 278.367 50.5898C277.374 50.1341 276.599 49.5143 276.043 48.7305C275.487 47.9466 275.209 47.1217 275.209 46.2559H279.516C279.534 46.9395 279.762 47.4408 280.199 47.7598C280.637 48.0697 281.197 48.2246 281.881 48.2246C282.51 48.2246 282.979 48.097 283.289 47.8418C283.608 47.5866 283.768 47.2539 283.768 46.8438ZM48.0371 79.8438C48.0371 79.4518 47.832 79.1374 47.4219 78.9004C47.0117 78.6634 46.2324 78.4173 45.084 78.1621C43.9355 77.9069 42.9876 77.5742 42.2402 77.1641C41.4928 76.7448 40.9232 76.2389 40.5312 75.6465C40.1393 75.054 39.9434 74.375 39.9434 73.6094C39.9434 72.2513 40.5039 71.1348 41.625 70.2598C42.7461 69.3757 44.2135 68.9336 46.0273 68.9336C47.9779 68.9336 49.5456 69.3757 50.7305 70.2598C51.9154 71.1439 52.5078 72.306 52.5078 73.7461H47.8867C47.8867 72.5612 47.2624 71.9688 46.0137 71.9688C45.5306 71.9688 45.125 72.1055 44.7969 72.3789C44.4688 72.6432 44.3047 72.9759 44.3047 73.377C44.3047 73.7871 44.5052 74.1198 44.9062 74.375C45.3073 74.6302 45.9453 74.8398 46.8203 75.0039C47.7044 75.168 48.4792 75.3639 49.1445 75.5918C51.3685 76.3574 52.4805 77.7292 52.4805 79.707C52.4805 81.056 51.8789 82.1543 50.6758 83.002C49.4818 83.8496 47.9323 84.2734 46.0273 84.2734C44.7604 84.2734 43.6302 84.0456 42.6367 83.5898C41.6432 83.1341 40.8685 82.5143 40.3125 81.7305C39.7565 80.9466 39.4785 80.1217 39.4785 79.2559H43.7852C43.8034 79.9395 44.0312 80.4408 44.4688 80.7598C44.9062 81.0697 45.4668 81.2246 46.1504 81.2246C46.7793 81.2246 47.2487 81.097 47.5586 80.8418C47.8776 80.5866 48.0371 80.2539 48.0371 79.8438ZM67.4238 77.9297L68.9141 69.207H73.3301L69.8438 84H65.9473L63.5 75.2227L61.0391 84H57.1426L53.6562 69.207H58.0723L59.5352 78.1348L61.8867 69.207H65.0996L67.4238 77.9297ZM79.8516 84H75.2305V69.207H79.8516V84ZM74.957 65.3926C74.957 64.7363 75.194 64.1986 75.668 63.7793C76.1419 63.36 76.7572 63.1504 77.5137 63.1504C78.2702 63.1504 78.8854 63.36 79.3594 63.7793C79.8333 64.1986 80.0703 64.7363 80.0703 65.3926C80.0703 66.0488 79.8333 66.5866 79.3594 67.0059C78.8854 67.4251 78.2702 67.6348 77.5137 67.6348C76.7572 67.6348 76.1419 67.4251 75.668 67.0059C75.194 66.5866 74.957 66.0488 74.957 65.3926ZM96.4355 76.7129C96.4355 79.0098 95.916 80.8464 94.877 82.2227C93.847 83.5898 92.4525 84.2734 90.6934 84.2734C89.3353 84.2734 88.2188 83.7767 87.3438 82.7832V89.6875H82.7363V69.207H87.043L87.1797 70.5742C88.0638 69.4805 89.2259 68.9336 90.666 68.9336C92.4889 68.9336 93.9062 69.6081 94.918 70.957C95.9297 72.2969 96.4355 74.1426 96.4355 76.4941V76.7129ZM91.8281 76.4258C91.8281 73.8008 91.0625 72.4883 89.5312 72.4883C88.4375 72.4883 87.7083 72.8802 87.3438 73.6641V79.4883C87.7448 80.3086 88.4831 80.7188 89.5586 80.7188C91.026 80.7188 91.7826 79.4518 91.8281 76.918V76.4258ZM103.34 84H98.7188V69.207H103.34V84ZM98.4453 65.3926C98.4453 64.7363 98.6823 64.1986 99.1562 63.7793C99.6302 63.36 100.245 63.1504 101.002 63.1504C101.758 63.1504 102.374 63.36 102.848 63.7793C103.322 64.1986 103.559 64.7363 103.559 65.3926C103.559 66.0488 103.322 66.5866 102.848 67.0059C102.374 67.4251 101.758 67.6348 101.002 67.6348C100.245 67.6348 99.6302 67.4251 99.1562 67.0059C98.6823 66.5866 98.4453 66.0488 98.4453 65.3926ZM110.422 69.207L110.572 70.9434C111.593 69.6035 113.001 68.9336 114.797 68.9336C116.337 68.9336 117.486 69.3939 118.242 70.3145C119.008 71.235 119.404 72.6204 119.432 74.4707V84H114.811V74.6621C114.811 73.9147 114.66 73.3678 114.359 73.0215C114.059 72.666 113.512 72.4883 112.719 72.4883C111.816 72.4883 111.146 72.8438 110.709 73.5547V84H106.102V69.207H110.422ZM121.455 76.4941C121.455 74.9993 121.701 73.6777 122.193 72.5293C122.686 71.3809 123.392 70.4967 124.312 69.877C125.233 69.248 126.304 68.9336 127.525 68.9336C129.066 68.9336 130.269 69.4531 131.135 70.4922L131.299 69.207H135.482V83.4395C135.482 84.7428 135.177 85.873 134.566 86.8301C133.965 87.7962 133.09 88.5345 131.941 89.0449C130.793 89.5645 129.462 89.8242 127.949 89.8242C126.865 89.8242 125.812 89.6191 124.791 89.209C123.779 88.7988 123.005 88.2656 122.467 87.6094L124.395 84.9023C125.251 85.9141 126.382 86.4199 127.785 86.4199C129.827 86.4199 130.848 85.3717 130.848 83.2754V82.8105C129.964 83.7858 128.847 84.2734 127.498 84.2734C125.693 84.2734 124.235 83.5853 123.123 82.209C122.011 80.8236 121.455 78.9733 121.455 76.6582V76.4941ZM126.076 76.7812C126.076 77.9935 126.304 78.9551 126.76 79.666C127.215 80.3678 127.854 80.7188 128.674 80.7188C129.667 80.7188 130.392 80.3861 130.848 79.7207V73.5C130.401 72.8255 129.686 72.4883 128.701 72.4883C127.881 72.4883 127.238 72.8574 126.773 73.5957C126.309 74.3249 126.076 75.3867 126.076 76.7812ZM149.934 84H145.312V69.207H149.934V84ZM145.039 65.3926C145.039 64.7363 145.276 64.1986 145.75 63.7793C146.224 63.36 146.839 63.1504 147.596 63.1504C148.352 63.1504 148.967 63.36 149.441 63.7793C149.915 64.1986 150.152 64.7363 150.152 65.3926C150.152 66.0488 149.915 66.5866 149.441 67.0059C148.967 67.4251 148.352 67.6348 147.596 67.6348C146.839 67.6348 146.224 67.4251 145.75 67.0059C145.276 66.5866 145.039 66.0488 145.039 65.3926ZM160.529 79.8438C160.529 79.4518 160.324 79.1374 159.914 78.9004C159.504 78.6634 158.725 78.4173 157.576 78.1621C156.428 77.9069 155.48 77.5742 154.732 77.1641C153.985 76.7448 153.415 76.2389 153.023 75.6465C152.632 75.054 152.436 74.375 152.436 73.6094C152.436 72.2513 152.996 71.1348 154.117 70.2598C155.238 69.3757 156.706 68.9336 158.52 68.9336C160.47 68.9336 162.038 69.3757 163.223 70.2598C164.408 71.1439 165 72.306 165 73.7461H160.379C160.379 72.5612 159.755 71.9688 158.506 71.9688C158.023 71.9688 157.617 72.1055 157.289 72.3789C156.961 72.6432 156.797 72.9759 156.797 73.377C156.797 73.7871 156.997 74.1198 157.398 74.375C157.799 74.6302 158.438 74.8398 159.312 75.0039C160.197 75.168 160.971 75.3639 161.637 75.5918C163.861 76.3574 164.973 77.7292 164.973 79.707C164.973 81.056 164.371 82.1543 163.168 83.002C161.974 83.8496 160.424 84.2734 158.52 84.2734C157.253 84.2734 156.122 84.0456 155.129 83.5898C154.135 83.1341 153.361 82.5143 152.805 81.7305C152.249 80.9466 151.971 80.1217 151.971 79.2559H156.277C156.296 79.9395 156.523 80.4408 156.961 80.7598C157.398 81.0697 157.959 81.2246 158.643 81.2246C159.271 81.2246 159.741 81.097 160.051 80.8418C160.37 80.5866 160.529 80.2539 160.529 79.8438ZM178.467 69.207L178.617 70.9434C179.665 69.6035 181.074 68.9336 182.842 68.9336C184.71 68.9336 185.973 69.6764 186.629 71.1621C187.632 69.6764 189.081 68.9336 190.977 68.9336C193.975 68.9336 195.516 70.7474 195.598 74.375V84H190.977V74.6621C190.977 73.9056 190.849 73.3542 190.594 73.0078C190.339 72.6615 189.874 72.4883 189.199 72.4883C188.288 72.4883 187.609 72.8939 187.162 73.7051L187.176 73.8965V84H182.555V74.6895C182.555 73.9147 182.432 73.3542 182.186 73.0078C181.939 72.6615 181.47 72.4883 180.777 72.4883C179.893 72.4883 179.219 72.8939 178.754 73.7051V84H174.146V69.207H178.467ZM206.562 84C206.398 83.6992 206.253 83.2572 206.125 82.6738C205.277 83.7402 204.092 84.2734 202.57 84.2734C201.176 84.2734 199.991 83.8542 199.016 83.0156C198.04 82.168 197.553 81.1061 197.553 79.8301C197.553 78.2259 198.145 77.0137 199.33 76.1934C200.515 75.373 202.238 74.9629 204.498 74.9629H205.92V74.1836C205.92 72.8255 205.332 72.1465 204.156 72.1465C203.062 72.1465 202.516 72.6842 202.516 73.7598H197.908C197.908 72.3288 198.514 71.1667 199.727 70.2734C200.948 69.3802 202.502 68.9336 204.389 68.9336C206.275 68.9336 207.766 69.3939 208.859 70.3145C209.953 71.235 210.514 72.4974 210.541 74.1016V80.6504C210.559 82.0085 210.769 83.0475 211.17 83.7676V84H206.562ZM203.678 80.9922C204.252 80.9922 204.726 80.8691 205.1 80.623C205.482 80.377 205.756 80.099 205.92 79.7891V77.4238H204.58C202.976 77.4238 202.174 78.1439 202.174 79.584C202.174 80.0033 202.315 80.3451 202.598 80.6094C202.88 80.8646 203.24 80.9922 203.678 80.9922ZM219.045 78.4902L217.746 79.7891V84H213.139V62.9863H217.746V74.1426L218.211 73.5273L221.684 69.207H227.207L222.025 75.291L227.549 84H222.271L219.045 78.4902ZM233.277 84H228.656V69.207H233.277V84ZM228.383 65.3926C228.383 64.7363 228.62 64.1986 229.094 63.7793C229.568 63.36 230.183 63.1504 230.939 63.1504C231.696 63.1504 232.311 63.36 232.785 63.7793C233.259 64.1986 233.496 64.7363 233.496 65.3926C233.496 66.0488 233.259 66.5866 232.785 67.0059C232.311 67.4251 231.696 67.6348 230.939 67.6348C230.183 67.6348 229.568 67.4251 229.094 67.0059C228.62 66.5866 228.383 66.0488 228.383 65.3926ZM240.359 69.207L240.51 70.9434C241.531 69.6035 242.939 68.9336 244.734 68.9336C246.275 68.9336 247.423 69.3939 248.18 70.3145C248.945 71.235 249.342 72.6204 249.369 74.4707V84H244.748V74.6621C244.748 73.9147 244.598 73.3678 244.297 73.0215C243.996 72.666 243.449 72.4883 242.656 72.4883C241.754 72.4883 241.084 72.8438 240.646 73.5547V84H236.039V69.207H240.359ZM251.393 76.4941C251.393 74.9993 251.639 73.6777 252.131 72.5293C252.623 71.3809 253.329 70.4967 254.25 69.877C255.171 69.248 256.242 68.9336 257.463 68.9336C259.003 68.9336 260.206 69.4531 261.072 70.4922L261.236 69.207H265.42V83.4395C265.42 84.7428 265.115 85.873 264.504 86.8301C263.902 87.7962 263.027 88.5345 261.879 89.0449C260.73 89.5645 259.4 89.8242 257.887 89.8242C256.802 89.8242 255.749 89.6191 254.729 89.209C253.717 88.7988 252.942 88.2656 252.404 87.6094L254.332 84.9023C255.189 85.9141 256.319 86.4199 257.723 86.4199C259.764 86.4199 260.785 85.3717 260.785 83.2754V82.8105C259.901 83.7858 258.785 84.2734 257.436 84.2734C255.631 84.2734 254.173 83.5853 253.061 82.209C251.949 80.8236 251.393 78.9733 251.393 76.6582V76.4941ZM256.014 76.7812C256.014 77.9935 256.242 78.9551 256.697 79.666C257.153 80.3678 257.791 80.7188 258.611 80.7188C259.605 80.7188 260.329 80.3861 260.785 79.7207V73.5C260.339 72.8255 259.623 72.4883 258.639 72.4883C257.818 72.4883 257.176 72.8574 256.711 73.5957C256.246 74.3249 256.014 75.3867 256.014 76.7812ZM44.6465 102.207L44.7969 103.943C45.8451 102.604 47.2533 101.934 49.0215 101.934C50.89 101.934 52.1523 102.676 52.8086 104.162C53.8112 102.676 55.2604 101.934 57.1562 101.934C60.1549 101.934 61.6953 103.747 61.7773 107.375V117H57.1562V107.662C57.1562 106.906 57.0286 106.354 56.7734 106.008C56.5182 105.661 56.0534 105.488 55.3789 105.488C54.4674 105.488 53.7884 105.894 53.3418 106.705L53.3555 106.896V117H48.7344V107.689C48.7344 106.915 48.6113 106.354 48.3652 106.008C48.1191 105.661 47.6497 105.488 46.957 105.488C46.0729 105.488 45.3984 105.894 44.9336 106.705V117H40.3262V102.207H44.6465ZM71.5664 117.273C69.2969 117.273 67.4603 116.599 66.0566 115.25C64.653 113.892 63.9512 112.128 63.9512 109.959V109.576C63.9512 108.063 64.2292 106.728 64.7852 105.57C65.3503 104.413 66.1706 103.52 67.2461 102.891C68.3216 102.253 69.5977 101.934 71.0742 101.934C73.1523 101.934 74.793 102.581 75.9961 103.875C77.1992 105.16 77.8008 106.956 77.8008 109.262V111.053H68.6406C68.8047 111.882 69.1647 112.534 69.7207 113.008C70.2767 113.482 70.9967 113.719 71.8809 113.719C73.3392 113.719 74.4785 113.208 75.2988 112.188L77.4043 114.676C76.8301 115.469 76.0143 116.102 74.957 116.576C73.9089 117.041 72.7786 117.273 71.5664 117.273ZM71.0469 105.488C69.6979 105.488 68.8958 106.382 68.6406 108.168H73.2891V107.812C73.3073 107.074 73.1204 106.505 72.7285 106.104C72.3366 105.693 71.776 105.488 71.0469 105.488ZM86.0586 109.494C86.0586 107.152 86.5645 105.306 87.5762 103.957C88.5879 102.608 90.0007 101.934 91.8145 101.934C93.1361 101.934 94.248 102.453 95.1504 103.492V96H99.7715V117H95.6289L95.3965 115.414C94.4486 116.654 93.2454 117.273 91.7871 117.273C90.028 117.273 88.6335 116.599 87.6035 115.25C86.5736 113.901 86.0586 111.982 86.0586 109.494ZM90.666 109.781C90.666 112.406 91.4316 113.719 92.9629 113.719C93.9837 113.719 94.7129 113.29 95.1504 112.434V106.801C94.7311 105.926 94.0111 105.488 92.9902 105.488C91.5684 105.488 90.7982 106.637 90.6797 108.934L90.666 109.781ZM107.25 117H102.629V102.207H107.25V117ZM102.355 98.3926C102.355 97.7363 102.592 97.1986 103.066 96.7793C103.54 96.36 104.156 96.1504 104.912 96.1504C105.669 96.1504 106.284 96.36 106.758 96.7793C107.232 97.1986 107.469 97.7363 107.469 98.3926C107.469 99.0488 107.232 99.5866 106.758 100.006C106.284 100.425 105.669 100.635 104.912 100.635C104.156 100.635 103.54 100.425 103.066 100.006C102.592 99.5866 102.355 99.0488 102.355 98.3926ZM115.535 113.445H122.275V117H109.711V114.43L116.273 105.762H109.998V102.207H122.125V104.695L115.535 113.445ZM129.945 113.445H136.686V117H124.121V114.43L130.684 105.762H124.408V102.207H136.535V104.695L129.945 113.445ZM144.834 110.547L147.295 102.207H152.23L146.201 119.475L145.941 120.104C145.085 122.018 143.572 122.975 141.402 122.975C140.801 122.975 140.167 122.883 139.502 122.701V119.406H140.104C140.751 119.406 141.243 119.311 141.58 119.119C141.926 118.937 142.182 118.604 142.346 118.121L142.715 117.137L137.574 102.207H142.496L144.834 110.547ZM153.994 112.529C154.723 112.529 155.329 112.748 155.812 113.186C156.296 113.614 156.537 114.165 156.537 114.84C156.537 115.514 156.296 116.07 155.812 116.508C155.329 116.936 154.723 117.15 153.994 117.15C153.256 117.15 152.645 116.932 152.162 116.494C151.688 116.057 151.451 115.505 151.451 114.84C151.451 114.174 151.688 113.623 152.162 113.186C152.645 112.748 153.256 112.529 153.994 112.529ZM47.5537 170.99H58.8906V176H41.041V148.984H47.5537V170.99ZM71.0625 176.371C67.9824 176.371 65.4899 175.456 63.585 173.625C61.68 171.782 60.7275 169.388 60.7275 166.444V165.925C60.7275 163.871 61.1048 162.059 61.8594 160.488C62.6263 158.917 63.7396 157.705 65.1992 156.852C66.6589 155.986 68.3906 155.553 70.3945 155.553C73.2148 155.553 75.4414 156.431 77.0742 158.188C78.707 159.932 79.5234 162.368 79.5234 165.498V167.929H67.0918C67.3145 169.054 67.8031 169.939 68.5576 170.582C69.3122 171.225 70.2894 171.547 71.4893 171.547C73.4684 171.547 75.0146 170.854 76.1279 169.469L78.9854 172.846C78.2061 173.922 77.099 174.782 75.6641 175.425C74.2415 176.056 72.7077 176.371 71.0625 176.371ZM70.3574 160.377C68.5267 160.377 67.4382 161.589 67.0918 164.014H73.4004V163.531C73.4251 162.529 73.1715 161.756 72.6396 161.212C72.1077 160.655 71.347 160.377 70.3574 160.377ZM89.3389 150.933V155.924H92.6416V160.266H89.3389V169.45C89.3389 170.205 89.4749 170.73 89.7471 171.027C90.0192 171.324 90.5573 171.473 91.3613 171.473C91.9798 171.473 92.4993 171.436 92.9199 171.361V175.833C91.7943 176.192 90.6191 176.371 89.3945 176.371C87.2422 176.371 85.6527 175.864 84.626 174.85C83.5993 173.835 83.0859 172.295 83.0859 170.229V160.266H80.5254V155.924H83.0859V150.933H89.3389ZM97.7812 157.445L95.0352 155.961C96.0618 154.18 96.5876 152.436 96.6123 150.729V147.5H101.177V150.524C101.177 151.675 100.843 152.906 100.175 154.217C99.5192 155.516 98.7214 156.592 97.7812 157.445ZM111.011 170.359C111.011 169.827 110.732 169.401 110.176 169.079C109.619 168.757 108.562 168.424 107.003 168.077C105.444 167.731 104.158 167.279 103.144 166.723C102.129 166.154 101.356 165.467 100.824 164.663C100.292 163.859 100.026 162.938 100.026 161.898C100.026 160.055 100.787 158.54 102.309 157.353C103.83 156.153 105.822 155.553 108.283 155.553C110.93 155.553 113.058 156.153 114.666 157.353C116.274 158.552 117.078 160.13 117.078 162.084H110.807C110.807 160.476 109.959 159.672 108.265 159.672C107.609 159.672 107.059 159.857 106.613 160.229C106.168 160.587 105.945 161.039 105.945 161.583C105.945 162.14 106.217 162.591 106.762 162.938C107.306 163.284 108.172 163.568 109.359 163.791C110.559 164.014 111.611 164.28 112.514 164.589C115.532 165.628 117.041 167.49 117.041 170.174C117.041 172.005 116.225 173.495 114.592 174.646C112.971 175.796 110.868 176.371 108.283 176.371C106.564 176.371 105.03 176.062 103.682 175.443C102.333 174.825 101.282 173.984 100.527 172.92C99.7728 171.856 99.3955 170.737 99.3955 169.562H105.24C105.265 170.489 105.574 171.17 106.168 171.603C106.762 172.023 107.522 172.233 108.45 172.233C109.304 172.233 109.941 172.06 110.361 171.714C110.794 171.368 111.011 170.916 111.011 170.359ZM128.656 165.813C128.656 162.634 129.343 160.13 130.716 158.299C132.089 156.468 134.006 155.553 136.468 155.553C138.261 155.553 139.771 156.258 140.995 157.668V147.5H147.267V176H141.645L141.329 173.848C140.043 175.53 138.41 176.371 136.431 176.371C134.043 176.371 132.151 175.456 130.753 173.625C129.355 171.794 128.656 169.19 128.656 165.813ZM134.909 166.203C134.909 169.766 135.948 171.547 138.026 171.547C139.412 171.547 140.401 170.965 140.995 169.803V162.158C140.426 160.971 139.449 160.377 138.063 160.377C136.134 160.377 135.089 161.936 134.928 165.053L134.909 166.203ZM150.031 165.776C150.031 163.772 150.421 161.991 151.2 160.433C151.979 158.862 153.099 157.656 154.559 156.814C156.018 155.973 157.731 155.553 159.698 155.553C162.704 155.553 165.073 156.487 166.805 158.354C168.536 160.21 169.402 162.74 169.402 165.943V166.166C169.402 169.296 168.53 171.782 166.786 173.625C165.054 175.456 162.704 176.371 159.735 176.371C156.878 176.371 154.583 175.518 152.852 173.811C151.12 172.091 150.186 169.766 150.05 166.834L150.031 165.776ZM156.284 166.166C156.284 168.021 156.575 169.382 157.156 170.248C157.738 171.114 158.597 171.547 159.735 171.547C161.962 171.547 163.1 169.834 163.149 166.407V165.776C163.149 162.177 161.999 160.377 159.698 160.377C157.608 160.377 156.476 161.929 156.303 165.034L156.284 166.166ZM188.903 150.933V155.924H192.206V160.266H188.903V169.45C188.903 170.205 189.039 170.73 189.312 171.027C189.584 171.324 190.122 171.473 190.926 171.473C191.544 171.473 192.064 171.436 192.484 171.361V175.833C191.359 176.192 190.184 176.371 188.959 176.371C186.807 176.371 185.217 175.864 184.19 174.85C183.164 173.835 182.65 172.295 182.65 170.229V160.266H180.09V155.924H182.65V150.933H188.903ZM200.797 158.076C202.133 156.394 203.84 155.553 205.918 155.553C208.132 155.553 209.802 156.208 210.928 157.52C212.053 158.831 212.629 160.767 212.653 163.327V176H206.382V163.476C206.382 162.412 206.165 161.632 205.732 161.138C205.299 160.631 204.563 160.377 203.524 160.377C202.238 160.377 201.329 160.785 200.797 161.602V176H194.544V147.5H200.797V158.076ZM222.729 176H216.457V155.924H222.729V176ZM216.086 150.747C216.086 149.856 216.408 149.127 217.051 148.558C217.694 147.989 218.529 147.704 219.556 147.704C220.582 147.704 221.417 147.989 222.061 148.558C222.704 149.127 223.025 149.856 223.025 150.747C223.025 151.638 222.704 152.368 222.061 152.937C221.417 153.506 220.582 153.79 219.556 153.79C218.529 153.79 217.694 153.506 217.051 152.937C216.408 152.368 216.086 151.638 216.086 150.747ZM237.108 170.359C237.108 169.827 236.83 169.401 236.273 169.079C235.717 168.757 234.659 168.424 233.101 168.077C231.542 167.731 230.256 167.279 229.241 166.723C228.227 166.154 227.454 165.467 226.922 164.663C226.39 163.859 226.124 162.938 226.124 161.898C226.124 160.055 226.885 158.54 228.406 157.353C229.928 156.153 231.919 155.553 234.381 155.553C237.028 155.553 239.156 156.153 240.764 157.353C242.372 158.552 243.176 160.13 243.176 162.084H236.904C236.904 160.476 236.057 159.672 234.362 159.672C233.707 159.672 233.156 159.857 232.711 160.229C232.266 160.587 232.043 161.039 232.043 161.583C232.043 162.14 232.315 162.591 232.859 162.938C233.404 163.284 234.27 163.568 235.457 163.791C236.657 164.014 237.708 164.28 238.611 164.589C241.63 165.628 243.139 167.49 243.139 170.174C243.139 172.005 242.322 173.495 240.689 174.646C239.069 175.796 236.966 176.371 234.381 176.371C232.661 176.371 231.128 176.062 229.779 175.443C228.431 174.825 227.38 173.984 226.625 172.92C225.87 171.856 225.493 170.737 225.493 169.562H231.338C231.363 170.489 231.672 171.17 232.266 171.603C232.859 172.023 233.62 172.233 234.548 172.233C235.401 172.233 236.038 172.06 236.459 171.714C236.892 171.368 237.108 170.916 237.108 170.359ZM252.286 167.446H247.221L246.423 148.984H253.084L252.286 167.446ZM246.237 173.198C246.237 172.283 246.565 171.535 247.221 170.953C247.889 170.359 248.717 170.062 249.707 170.062C250.697 170.062 251.519 170.359 252.175 170.953C252.843 171.535 253.177 172.283 253.177 173.198C253.177 174.114 252.843 174.868 252.175 175.462C251.519 176.043 250.697 176.334 249.707 176.334C248.717 176.334 247.889 176.043 247.221 175.462C246.565 174.868 246.237 174.114 246.237 173.198Z" fill="#51ADE0"/>
<path d="M155.562 197.86C158.42 192.227 166.459 192.208 169.343 197.827L204.191 265.716C205.32 267.916 207.433 269.444 209.876 269.826L285.268 281.635C291.508 282.612 294.01 290.251 289.558 294.731L235.76 348.853C234.017 350.606 233.217 353.088 233.608 355.53L245.675 430.88C246.674 437.117 240.181 441.858 234.545 439.007L166.448 404.567C164.241 403.451 161.634 403.457 159.433 404.583L91.4988 439.345C85.8759 442.222 79.3612 437.512 80.3305 431.27L92.0419 355.864C92.4214 353.42 91.6099 350.942 89.8584 349.197L35.8058 295.33C31.3319 290.871 33.798 283.22 40.0335 282.213L115.369 270.049C117.81 269.655 119.916 268.118 121.034 265.913L155.562 197.86Z" fill="#FFCD1A"/>
<circle cx="202.209" cy="305.328" r="28.9327" transform="rotate(-0.135197 202.209 305.328)" fill="white"/>
<path d="M197.785 356.889C198.451 369.104 181.88 388.119 163.208 389.136C144.535 390.153 125.181 367.81 124.516 355.595C123.851 343.38 144.535 360.163 163.208 359.146C181.88 358.129 197.12 344.674 197.785 356.889Z" fill="white"/>
<circle cx="126.899" cy="312.559" r="28.9327" transform="rotate(-0.135197 126.899 312.559)" fill="white"/>
<circle cx="170.1" cy="388.27" r="4.13345" transform="rotate(-8.45414 170.1 388.27)" fill="#FFCC19"/>
<circle cx="159.198" cy="389.891" r="4.13345" transform="rotate(-8.45414 159.198 389.891)" fill="#FFCC19"/>
<circle cx="202.023" cy="315.023" r="15.9852" transform="rotate(-0.135197 202.023 315.023)" fill="#FFCC19"/>
<circle cx="202.023" cy="315.023" r="8.88099" transform="rotate(-0.135197 202.023 315.023)" fill="#51ADE0"/>
<circle cx="205.557" cy="307.91" r="5.3286" transform="rotate(-0.135197 205.557 307.91)" fill="white"/>
<circle cx="121.023" cy="317.023" r="15.9852" transform="rotate(-0.135197 121.023 317.023)" fill="#FFCC19"/>
<circle cx="121.023" cy="317.023" r="8.88099" transform="rotate(-0.135197 121.023 317.023)" fill="#51ADE0"/>
<circle cx="124.557" cy="309.91" r="5.3286" transform="rotate(-0.135197 124.557 309.91)" fill="white"/>
<path d="M126 517C122.133 517 119 520.133 119 524C119 527.867 122.133 531 126 531C129.867 531 133 527.867 133 524C133 520.133 129.867 517 126 517Z" fill="#ECC08D"/>
<path d="M150 517C146.133 517 143 520.133 143 524C143 527.867 146.133 531 150 531C153.867 531 157 527.867 157 524C157 520.133 153.867 517 150 517Z" fill="#ECC08D"/>
<path d="M174 517C170.133 517 167 520.133 167 524C167 527.867 170.133 531 174 531C177.867 531 181 527.867 181 524C181 520.133 177.867 517 174 517Z" fill="#ECC08D"/>
<path d="M198 517C194.133 517 191 520.133 191 524C191 527.867 194.133 531 198 531C201.867 531 205 527.867 205 524C205 520.133 201.867 517 198 517Z" fill="#F66A7B"/>
</svg>
