<svg width="370" height="561" viewBox="0 0 370 561" fill="none" xmlns="http://www.w3.org/2000/svg">
<path d="M267.25 14.6809C266.674 6.97045 259.957 1.18683 252.246 1.76289L16.9979 19.3384C9.28743 19.9144 3.50383 26.632 4.07988 34.3425L16.2171 196.799C16.7931 204.509 23.5107 210.293 31.2212 209.717L168.23 199.481C173.755 199.068 179.307 199.677 184.611 201.278L220.995 212.256C224.472 213.305 226.429 208.388 223.181 206.761C217.636 203.984 219.278 195.667 225.462 195.205L272.768 191.671C277 191.355 280.174 187.668 279.858 183.436L267.25 14.6809Z" fill="#ECC08D"/>
<path d="M266.119 18.954C265.675 11.2347 259.058 5.33686 251.339 5.7807L21.2188 19.0123C13.4996 19.4561 7.60174 26.0736 8.04558 33.7928L17.1728 192.531C17.6166 200.25 24.2341 206.148 31.9533 205.704L166.023 197.995C171.44 197.684 176.868 198.373 182.035 200.03L217.485 211.393C220.873 212.478 222.872 207.695 219.719 206.048C214.334 203.235 216.082 195.117 222.147 194.768L268.536 192.101C272.686 191.862 275.857 188.304 275.618 184.154L266.119 18.954Z" fill="#FFFDFD"/>
<path d="M29.6292 73.4202L28.4865 53.5468L34.888 53.1787C36.6442 53.0778 38.246 53.3874 39.6934 54.1075C41.1403 54.8186 42.2968 55.8796 43.1631 57.2906C44.0379 58.6919 44.5317 60.2931 44.6444 62.0943L44.697 63.0088C44.8016 64.8287 44.5088 66.4843 43.8185 67.9756C43.1369 69.4573 42.1189 70.6479 40.7646 71.5475C39.419 72.4374 37.8865 72.9363 36.1672 73.0443L29.6292 73.4202ZM33.4901 56.9703L34.2082 69.4594L35.8734 69.3637C37.2474 69.2847 38.275 68.7372 38.9561 67.7211C39.6366 66.696 39.9215 65.2189 39.8105 63.2898L39.7611 62.4299C39.6507 60.5099 39.199 59.0842 38.4059 58.153C37.6129 57.2217 36.5111 56.7966 35.1007 56.8777L33.4901 56.9703ZM46.4768 64.9059C46.392 63.4317 46.6033 62.1049 47.1107 60.9254C47.6175 59.7368 48.39 58.8023 49.4282 58.1218C50.4663 57.4412 51.7088 57.0594 53.1557 56.9762C55.3669 56.8491 57.1489 57.4359 58.5019 58.7367C59.8543 60.0284 60.5982 61.8526 60.7338 64.2094L60.7432 64.3732C60.8755 66.6754 60.3392 68.5412 59.1341 69.9709C57.9376 71.3908 56.2474 72.1636 54.0635 72.2892C51.9615 72.41 50.2375 71.8792 48.8913 70.6967C47.5447 69.5052 46.7593 67.8339 46.5352 65.6831L46.4768 64.9059ZM51.0931 64.928C51.1716 66.293 51.443 67.2816 51.9073 67.894C52.3716 68.5064 53.0223 68.7885 53.8595 68.7404C55.4974 68.6462 56.2621 67.3378 56.1536 64.8151L56.1269 64.351C55.9746 61.703 55.0522 60.4277 53.3597 60.525C51.8219 60.6135 51.0549 61.8033 51.0589 64.0946L51.0931 64.928ZM75.6801 64.3086L77.6583 55.8412L82.5857 55.5579L77.5575 73.1431L77.3343 73.7859C76.5888 75.746 75.1332 76.7883 72.9675 76.9128C72.367 76.9474 71.7293 76.8927 71.0546 76.7489L70.8654 73.4594L71.466 73.4249C72.1121 73.3878 72.598 73.264 72.9237 73.0535C73.259 72.8516 73.4947 72.5049 73.6307 72.0132L73.9428 71.0092L67.9536 56.3992L72.8673 56.1167L75.6801 64.3086ZM83.4119 62.7822C83.3271 61.308 83.5384 59.9812 84.0458 58.8017C84.5526 57.6131 85.3251 56.6786 86.3633 55.998C87.4014 55.3175 88.6439 54.9357 90.0908 54.8525C92.3019 54.7254 94.084 55.3122 95.437 56.613C96.7894 57.9046 97.5333 59.7289 97.6688 62.0857L97.6783 62.2495C97.8106 64.5516 97.2743 66.4175 96.0692 67.8471C94.8727 69.2671 93.1825 70.0399 90.9986 70.1655C88.8966 70.2863 87.1725 69.7555 85.8264 68.573C84.4797 67.3814 83.6944 65.7102 83.4703 63.5594L83.4119 62.7822ZM88.0282 62.8043C88.1067 64.1693 88.3781 65.1579 88.8424 65.7703C89.3067 66.3827 89.9574 66.6648 90.7946 66.6166C92.4325 66.5225 93.1972 65.214 93.0886 62.6914L93.062 62.2273C92.9097 59.5793 91.9873 58.304 90.2948 58.4013C88.757 58.4897 87.99 59.6796 87.994 61.9709L88.0282 62.8043ZM108.826 67.2643C107.924 68.5669 106.645 69.2658 104.989 69.361C103.369 69.4542 102.114 69.0562 101.223 68.1671C100.341 67.2683 99.8486 65.9363 99.7471 64.171L99.1969 54.6028L103.797 54.3383L104.348 63.9338C104.421 65.1986 105.072 65.7957 106.3 65.7251C107.356 65.6644 108.085 65.2436 108.487 64.4627L107.892 54.1029L112.519 53.8368L113.368 68.6054L109.055 68.8534L108.826 67.2643ZM135.268 61.2658L136.255 52.472L140.664 52.2185L138.032 67.1872L134.142 67.4109L131.195 58.7885L129.242 67.6926L125.352 67.9163L121.022 53.3479L125.431 53.0944L127.404 61.9234L129.239 52.8754L132.447 52.691L135.268 61.2658ZM151.49 66.4134C151.309 66.1225 151.138 65.6896 150.977 65.1145C150.192 66.2278 149.04 66.8282 147.52 66.9155C146.128 66.9956 144.921 66.645 143.899 65.8639C142.877 65.0736 142.329 64.0415 142.256 62.7675C142.164 61.166 142.686 59.9218 143.822 59.0348C144.958 58.1478 146.654 57.6395 148.911 57.5097L150.33 57.4281L150.285 56.6501C150.207 55.2942 149.582 54.6501 148.408 54.7176C147.316 54.7803 146.801 55.3486 146.862 56.4224L142.263 56.6868C142.18 55.2582 142.719 54.0632 143.878 53.1019C145.046 52.14 146.572 51.6049 148.455 51.4966C150.339 51.3883 151.853 51.7623 152.998 52.6186C154.143 53.4748 154.775 54.7029 154.894 56.3029L155.27 62.8409C155.366 64.1957 155.635 65.221 156.077 65.9169L156.09 66.1489L151.49 66.4134ZM148.438 63.5761C149.011 63.5432 149.477 63.3931 149.836 63.126C150.204 62.8583 150.461 62.5651 150.607 62.2463L150.471 59.885L149.134 59.9619C147.532 60.054 146.773 60.8189 146.855 62.2566C146.88 62.6752 147.04 63.0083 147.337 63.256C147.634 63.4945 148.001 63.6013 148.438 63.5761ZM161.397 51.0264L161.647 52.7512C162.589 51.355 163.956 50.6053 165.749 50.5023C167.287 50.4138 168.46 50.8074 169.268 51.6831C170.085 52.5582 170.56 53.9185 170.694 55.7642L171.241 65.2778L166.628 65.543L166.091 56.2205C166.049 55.4744 165.867 54.937 165.547 54.6085C165.226 54.2709 164.67 54.1249 163.878 54.1704C162.977 54.2222 162.329 54.6155 161.933 55.3504L162.533 65.7785L157.933 66.043L157.084 51.2744L161.397 51.0264ZM178.097 46.3823L178.308 50.054L180.738 49.9143L180.922 53.1082L178.492 53.2479L178.881 60.0044C178.912 60.5594 179.035 60.9404 179.248 61.1473C179.46 61.3542 179.862 61.4406 180.454 61.4066C180.909 61.3804 181.289 61.3312 181.596 61.2588L181.785 64.5483C180.972 64.8598 180.115 65.0414 179.214 65.0932C177.631 65.1842 176.44 64.8784 175.642 64.1757C174.844 63.4729 174.401 62.3617 174.314 60.8421L173.892 53.5124L172.009 53.6207L171.825 50.4268L173.709 50.3185L173.497 46.6468L178.097 46.3823ZM194.668 45.4296L194.879 49.1012L197.308 48.9615L197.492 52.1555L195.062 52.2952L195.451 59.0516C195.483 59.6067 195.605 59.9876 195.818 60.1945C196.031 60.4014 196.433 60.4878 197.024 60.4538C197.479 60.4277 197.86 60.3784 198.166 60.306L198.355 63.5955C197.542 63.907 196.685 64.0886 195.785 64.1404C194.201 64.2315 193.01 63.9256 192.212 63.2229C191.414 62.5202 190.971 61.409 190.884 59.8893L190.463 52.5597L188.579 52.668L188.395 49.474L190.279 49.3657L190.068 45.694L194.668 45.4296ZM198.558 56.1615C198.473 54.6873 198.684 53.3605 199.192 52.181C199.698 50.9924 200.471 50.0578 201.509 49.3773C202.547 48.6968 203.79 48.315 205.237 48.2318C207.448 48.1046 209.23 48.6915 210.583 49.9922C211.935 51.2839 212.679 53.1082 212.815 55.465L212.824 55.6287C212.956 57.9309 212.42 59.7968 211.215 61.2264C210.018 62.6464 208.328 63.4192 206.144 63.5448C204.042 63.6656 202.318 63.1348 200.972 61.9523C199.625 60.7607 198.84 59.0895 198.616 56.9387L198.558 56.1615ZM203.174 56.1836C203.252 57.5485 203.524 58.5372 203.988 59.1496C204.452 59.762 205.103 60.0441 205.94 59.9959C207.578 59.9018 208.343 58.5933 208.234 56.0707L208.208 55.6066C208.055 52.9586 207.133 51.6833 205.441 51.7806C203.903 51.869 203.136 53.0589 203.14 55.3502L203.174 56.1836ZM221.217 54.886C221.083 52.5474 221.482 50.6757 222.414 49.2709C223.347 47.8661 224.719 47.1116 226.529 47.0075C227.849 46.9316 228.989 47.3864 229.949 48.372L229.519 40.8922L234.133 40.6269L235.338 61.5923L231.202 61.8301L230.879 60.2601C230.004 61.552 228.839 62.2399 227.383 62.3236C225.627 62.4246 224.196 61.8313 223.09 60.5436C221.984 59.256 221.36 57.3701 221.217 54.886ZM225.833 54.9081C225.984 57.5288 226.824 58.7952 228.353 58.7073C229.372 58.6487 230.075 58.1791 230.463 57.2987L230.139 51.6751C229.67 50.8256 228.927 50.4302 227.907 50.4888C226.488 50.5704 225.785 51.7612 225.798 54.0611L225.833 54.9081ZM236.94 53.9546C236.855 52.4804 237.066 51.1536 237.573 49.9741C238.08 48.7855 238.853 47.8509 239.891 47.1704C240.929 46.4899 242.172 46.1081 243.618 46.0249C245.83 45.8977 247.612 46.4846 248.965 47.7853C250.317 49.077 251.061 50.9013 251.197 53.258L251.206 53.4218C251.338 55.724 250.802 57.5899 249.597 59.0195C248.4 60.4395 246.71 61.2123 244.526 61.3379C242.424 61.4587 240.7 60.9279 239.354 59.7454C238.007 58.5538 237.222 56.8826 236.998 54.7318L236.94 53.9546ZM241.556 53.9767C241.634 55.3416 241.906 56.3303 242.37 56.9427C242.834 57.555 243.485 57.8372 244.322 57.789C245.96 57.6949 246.725 56.3864 246.616 53.8638L246.59 53.3997C246.437 50.7517 245.515 49.4764 243.822 49.5737C242.285 49.6621 241.518 50.852 241.522 53.1433L241.556 53.9767ZM38.8057 101.784C38.7832 101.393 38.5604 101.091 38.1373 100.878C37.7142 100.664 36.9221 100.464 35.7609 100.275C34.5997 100.086 33.6343 99.8081 32.8646 99.4415C32.0943 99.0658 31.4966 98.5935 31.0713 98.0245C30.646 97.4555 30.4114 96.7889 30.3674 96.0245C30.2895 94.6687 30.785 93.5218 31.854 92.5839C32.9225 91.6369 34.3621 91.1113 36.173 91.0072C38.1203 90.8952 39.7108 91.2466 40.9445 92.0612C42.1782 92.8758 42.8363 94.002 42.919 95.4398L38.3055 95.705C38.2375 94.5221 37.5802 93.9664 36.3335 94.0381C35.8513 94.0659 35.4542 94.2256 35.1423 94.5175C34.8299 94.8002 34.6852 95.1417 34.7082 95.5421C34.7318 95.9516 34.951 96.2722 35.3661 96.504C35.7811 96.7357 36.4301 96.9084 37.3131 97.022C38.2052 97.135 38.9899 97.2862 39.6672 97.4755C41.9315 98.1122 43.1203 99.4178 43.2339 101.392C43.3113 102.739 42.7738 103.87 41.6213 104.786C40.4779 105.7 38.9553 106.212 37.0535 106.322C35.7887 106.394 34.6473 106.232 33.6292 105.834C32.6112 105.436 31.8022 104.862 31.2021 104.111C30.6021 103.36 30.2772 102.553 30.2275 101.688L34.527 101.441C34.5844 102.123 34.8407 102.61 35.2958 102.903C35.7504 103.188 36.3189 103.31 37.0014 103.271C37.6292 103.235 38.0905 103.08 38.3853 102.808C38.6891 102.535 38.8292 102.193 38.8057 101.784ZM44.6312 98.0665C44.5464 96.5924 44.7577 95.2656 45.2651 94.0861C45.7719 92.8974 46.5444 91.9629 47.5826 91.2824C48.6207 90.6019 49.8632 90.22 51.3101 90.1368C53.5213 90.0097 55.3033 90.5965 56.6563 91.8973C58.0087 93.189 58.7527 95.0132 58.8882 97.37L58.8976 97.5338C59.03 99.836 58.4936 101.702 57.2885 103.131C56.092 104.551 54.4018 105.324 52.2179 105.45C50.1159 105.571 48.3919 105.04 47.0457 103.857C45.6991 102.666 44.9137 100.995 44.6896 98.8437L44.6312 98.0665ZM49.2475 98.0887C49.326 99.4536 49.5974 100.442 50.0617 101.055C50.526 101.667 51.1767 101.949 52.0139 101.901C53.6518 101.807 54.4165 100.498 54.308 97.9757L54.2813 97.5116C54.129 94.8637 53.2066 93.5883 51.5141 93.6857C49.9763 93.7741 49.2093 94.9639 49.2133 97.2553L49.2475 98.0887ZM64.8386 89.6328L65.0884 91.3577C66.058 89.9599 67.4254 89.2102 69.1907 89.1087C71.0561 89.0015 72.359 89.6706 73.0995 91.1162C74.0151 89.5754 75.4193 88.7506 77.312 88.6418C80.3058 88.4696 81.9477 90.192 82.2379 93.8089L82.7904 103.418L78.1769 103.683L77.6409 94.3608C77.5975 93.6056 77.4384 93.0624 77.1637 92.7312C76.8891 92.4001 76.415 92.2539 75.7417 92.2926C74.8317 92.3449 74.1771 92.7888 73.7778 93.6243L73.8024 93.8146L74.3824 103.901L69.7689 104.167L69.2345 94.8716C69.19 94.0981 69.035 93.5455 68.7694 93.2139C68.5038 92.8822 68.0253 92.7363 67.3337 92.7761C66.451 92.8268 65.801 93.2705 65.3834 94.107L65.9744 104.385L61.3746 104.649L60.5254 89.8809L64.8386 89.6328ZM92.579 103.129C90.3132 103.259 88.4409 102.691 86.9622 101.425C85.4829 100.15 84.681 98.4296 84.5564 96.2639L84.5345 95.8817C84.4476 94.3712 84.6485 93.0221 85.1371 91.8346C85.6349 90.6465 86.4025 89.7076 87.4402 89.018C88.4773 88.3193 89.7329 87.9276 91.2071 87.8428C93.2818 87.7235 94.9568 88.2754 96.2323 89.4985C97.5072 90.7125 98.2108 92.4705 98.3432 94.7727L98.446 96.5608L89.301 97.0866C89.5124 97.9053 89.9092 98.5352 90.4915 98.9765C91.0738 99.4177 91.8062 99.613 92.6889 99.5622C94.1448 99.4785 95.253 98.9035 96.0133 97.8373L98.2582 100.201C97.7304 101.025 96.9524 101.704 95.924 102.238C94.9042 102.763 93.7892 103.06 92.579 103.129ZM91.3838 91.3932C90.0371 91.4706 89.2876 92.4084 89.1354 94.2066L93.7761 93.9398L93.7557 93.5849C93.7315 92.8468 93.5123 92.2888 93.098 91.9109C92.6832 91.5239 92.1118 91.3514 91.3838 91.3932ZM104.948 83.6428L105.159 87.3145L107.588 87.1748L107.772 90.3687L105.342 90.5084L105.731 97.2649C105.763 97.8199 105.885 98.2009 106.098 98.4078C106.311 98.6147 106.713 98.7011 107.304 98.6671C107.759 98.6409 108.14 98.5917 108.446 98.5193L108.635 101.809C107.822 102.12 106.965 102.302 106.065 102.354C104.481 102.445 103.29 102.139 102.492 101.436C101.694 100.733 101.251 99.6222 101.164 98.1026L100.743 90.7729L98.8589 90.8812L98.6753 87.6873L100.559 87.579L100.348 83.9073L104.948 83.6428ZM113.999 88.3948C114.911 87.1007 116.131 86.4097 117.659 86.3218C119.288 86.2282 120.544 86.6398 121.428 87.5568C122.311 88.4737 122.817 89.8735 122.943 91.756L123.479 101.079L118.866 101.344L118.336 92.1305C118.291 91.3479 118.099 90.7838 117.759 90.4381C117.419 90.0834 116.867 89.928 116.103 89.9719C115.156 90.0263 114.505 90.3651 114.148 90.9881L114.757 101.58L110.157 101.844L108.952 80.8791L113.552 80.6146L113.999 88.3948ZM130.891 100.652L126.277 100.918L125.428 86.1491L130.041 85.8838L130.891 100.652ZM124.936 82.3566C124.898 81.7014 125.104 81.1509 125.553 80.7052C126.002 80.2594 126.604 80.0148 127.36 79.9713C128.115 79.9279 128.741 80.1019 129.239 80.4933C129.736 80.8846 130.003 81.4079 130.041 82.0631C130.079 82.7182 129.873 83.2687 129.424 83.7145C128.975 84.1603 128.372 84.4049 127.617 84.4483C126.862 84.4917 126.236 84.3178 125.738 83.9264C125.241 83.535 124.974 83.0118 124.936 82.3566ZM137.112 85.4772L137.362 87.2021C138.304 85.8058 139.671 85.0562 141.464 84.9531C143.002 84.8647 144.175 85.2583 144.983 86.1339C145.8 87.009 146.275 88.3694 146.409 90.215L146.956 99.7286L142.342 99.9939L141.806 90.6714C141.763 89.9252 141.582 89.3879 141.262 89.0594C140.941 88.7218 140.385 88.5757 139.593 88.6212C138.692 88.673 138.044 89.0664 137.648 89.8013L138.248 100.229L133.648 100.494L132.799 85.7252L137.112 85.4772ZM148.545 92.119C148.459 90.6267 148.629 89.2931 149.055 88.1183C149.48 86.9435 150.135 86.0203 151.018 85.3487C151.901 84.668 152.952 84.2926 154.171 84.2225C155.709 84.134 156.94 84.5836 157.864 85.5713L157.954 84.2788L162.131 84.0387L162.948 98.2476C163.023 99.5489 162.783 100.695 162.228 101.685C161.683 102.684 160.852 103.472 159.735 104.047C158.618 104.632 157.304 104.967 155.794 105.054C154.711 105.117 153.648 104.972 152.605 104.621C151.572 104.27 150.768 103.782 150.193 103.158L151.962 100.345C152.876 101.305 154.033 101.746 155.435 101.665C157.473 101.548 158.432 100.443 158.311 98.3499L158.285 97.8858C157.458 98.9102 156.371 99.4611 155.025 99.5386C153.223 99.6422 151.728 99.0389 150.538 97.7287C149.349 96.4094 148.687 94.5941 148.555 92.2828L148.545 92.119ZM153.175 92.1404C153.245 93.3506 153.527 94.2975 154.023 94.9811C154.518 95.6556 155.176 95.9693 155.994 95.9223C156.986 95.8652 157.691 95.4915 158.107 94.8011L157.75 88.5906C157.266 87.9429 156.532 87.6473 155.549 87.7038C154.73 87.7509 154.11 88.1563 153.688 88.92C153.266 89.6747 153.095 90.7481 153.175 92.1404ZM173.572 98.1982L172.907 86.6236L170.764 86.7468L170.58 83.5529L172.723 83.4297L172.655 82.2558C172.559 80.5724 172.979 79.2381 173.918 78.2529C174.856 77.2677 176.222 76.7236 178.015 76.6205C178.67 76.5829 179.394 76.6371 180.188 76.7832L180.396 80.1674C180.109 80.1017 179.729 80.0825 179.256 80.1097C177.864 80.1898 177.202 80.8304 177.271 82.0315L177.336 83.1644L180.216 82.9988L180.4 86.1927L177.52 86.3583L178.186 97.933L173.572 98.1982ZM191.388 95.5716C190.486 96.8742 189.207 97.5731 187.551 97.6684C185.931 97.7615 184.676 97.3635 183.785 96.4744C182.902 95.5756 182.41 94.2436 182.309 92.4783L181.759 82.9101L186.359 82.6456L186.91 92.2411C186.983 93.5059 187.634 94.1031 188.862 94.0324C189.918 93.9717 190.647 93.5509 191.049 92.77L190.453 82.4102L195.081 82.1441L195.93 96.9127L191.616 97.1607L191.388 95.5716ZM201.837 81.7556L202.087 83.4805C203.029 82.0842 204.396 81.3346 206.189 81.2315C207.727 81.1431 208.9 81.5367 209.708 82.4123C210.525 83.2874 211 84.6478 211.134 86.4934L211.681 96.007L207.068 96.2723L206.532 86.9498C206.489 86.2036 206.307 85.6663 205.987 85.3378C205.666 85.0002 205.11 84.8541 204.318 84.8996C203.418 84.9514 202.769 85.3448 202.373 86.0797L202.973 96.5077L198.373 96.7722L197.524 82.0037L201.837 81.7556ZM217.284 89.3717C217.208 88.0432 217.298 86.9881 217.554 86.2065C217.81 85.4158 218.258 84.7189 218.899 84.1161C219.54 83.5132 220.02 82.9697 220.339 82.4858C220.667 81.9922 220.814 81.4633 220.782 80.8991C220.703 79.5251 220.072 78.8721 218.889 78.9401C218.343 78.9715 217.913 79.1971 217.6 79.6168C217.286 80.0366 217.14 80.5882 217.161 81.2717L212.547 81.537C212.461 79.716 212.953 78.2681 214.023 77.1931C215.093 76.1091 216.647 75.5085 218.685 75.3913C220.714 75.2746 222.311 75.653 223.475 76.5264C224.648 77.3993 225.284 78.7002 225.384 80.4291C225.427 81.1844 225.316 81.8801 225.052 82.5161C224.787 83.1521 224.341 83.8123 223.714 84.4965L222.228 86.0473C221.807 86.5006 221.523 86.9597 221.376 87.4246C221.229 87.8804 221.166 88.4547 221.188 89.1473L217.284 89.3717ZM216.963 93.5533C216.924 92.8799 217.134 92.3155 217.591 91.8601C218.058 91.3951 218.655 91.1417 219.383 91.0998C220.111 91.0579 220.728 91.2415 221.236 91.6506C221.752 92.05 222.029 92.5864 222.068 93.2598C222.106 93.9331 221.893 94.5023 221.426 94.9674C220.969 95.4228 220.376 95.6714 219.648 95.7133C218.92 95.7551 218.298 95.5763 217.782 95.1769C217.275 94.7679 217.002 94.2267 216.963 93.5533ZM42.8297 137.353L38.9952 137.573L39.5931 147.971L36.5132 148.148L35.9153 137.75L32.1511 137.967L32.0143 135.589L42.693 134.975L42.8297 137.353ZM47.0028 139.041C47.5888 138.209 48.3732 137.765 49.356 137.708C50.4031 137.648 51.2106 137.913 51.7786 138.502C52.3466 139.092 52.6712 139.991 52.7525 141.202L53.0971 147.195L50.1313 147.365L49.7908 141.442C49.7619 140.939 49.6383 140.577 49.4201 140.354C49.2016 140.126 48.8466 140.027 48.3552 140.055C47.7469 140.09 47.328 140.308 47.0987 140.708L47.4902 147.517L44.5332 147.687L43.7582 134.209L46.7152 134.039L47.0028 139.041ZM59.3459 147.012C57.8894 147.095 56.6858 146.73 55.7351 145.916C54.7842 145.096 54.2686 143.99 54.1886 142.598L54.1745 142.352C54.1186 141.381 54.2478 140.514 54.5619 139.751C54.8819 138.987 55.3754 138.383 56.0424 137.94C56.7091 137.491 57.5163 137.239 58.464 137.185C59.7977 137.108 60.8746 137.463 61.6945 138.249C62.5141 139.029 62.9664 140.16 63.0515 141.64L63.1176 142.789L57.2386 143.127C57.3745 143.653 57.6296 144.058 58.004 144.342C58.3783 144.626 58.8492 144.751 59.4166 144.719C60.3525 144.665 61.0649 144.295 61.5537 143.61L62.9968 145.129C62.6576 145.659 62.1574 146.096 61.4963 146.439C60.8407 146.776 60.124 146.967 59.3459 147.012ZM58.5776 139.467C57.7119 139.517 57.23 140.12 57.1322 141.276L60.1155 141.104L60.1024 140.876C60.0869 140.401 59.9459 140.043 59.6796 139.8C59.4129 139.551 59.0456 139.44 58.5776 139.467ZM66.7046 136.887L66.8652 137.996C67.4709 137.098 68.35 136.616 69.5024 136.55C70.491 136.493 71.245 136.746 71.7645 137.309C72.2899 137.872 72.5955 138.746 72.6813 139.933L73.033 146.048L70.0672 146.219L69.7226 140.226C69.695 139.746 69.5783 139.401 69.3725 139.19C69.1663 138.973 68.8088 138.879 68.2998 138.908C67.7207 138.941 67.3039 139.194 67.0493 139.667L67.4348 146.37L64.4778 146.54L63.9319 137.046L66.7046 136.887ZM82.5709 145.5L79.4998 145.677L78.7652 132.901L81.8363 132.724L82.5709 145.5ZM85.1199 136.55L83.7809 135.923C84.218 135.052 84.4192 134.213 84.3845 133.405L84.2967 131.879L86.4553 131.754L86.5375 133.185C86.5688 133.729 86.4443 134.32 86.1641 134.958C85.8894 135.59 85.5413 136.121 85.1199 136.55ZM91.019 135.489L91.1796 136.598C91.8028 135.699 92.6819 135.217 93.8167 135.152C95.0159 135.083 95.8535 135.513 96.3295 136.442C96.9182 135.452 97.8209 134.922 99.0376 134.852C100.962 134.741 102.018 135.848 102.204 138.173L102.559 144.351L99.5936 144.521L99.249 138.528C99.2211 138.043 99.1188 137.694 98.9423 137.481C98.7657 137.268 98.461 137.174 98.0281 137.199C97.4431 137.232 97.0223 137.518 96.7656 138.055L96.7814 138.177L97.1543 144.662L94.1884 144.832L93.8449 138.857C93.8163 138.359 93.7166 138.004 93.5459 137.791C93.3752 137.578 93.0675 137.484 92.6229 137.509C92.0555 137.542 91.6376 137.827 91.3692 138.365L91.7491 144.972L88.7921 145.142L88.2462 135.648L91.019 135.489ZM111.486 131.944L111.622 134.304L113.184 134.214L113.302 136.268L111.74 136.357L111.989 140.701C112.01 141.058 112.089 141.303 112.225 141.436C112.362 141.569 112.621 141.624 113.001 141.602C113.293 141.585 113.538 141.554 113.735 141.507L113.856 143.622C113.334 143.822 112.783 143.939 112.204 143.972C111.186 144.031 110.421 143.834 109.908 143.382C109.394 142.931 109.11 142.216 109.054 141.239L108.783 136.527L107.572 136.597L107.454 134.544L108.665 134.474L108.529 132.114L111.486 131.944ZM117.305 134.999C117.891 134.167 118.675 133.723 119.658 133.666C120.705 133.606 121.512 133.87 122.08 134.46C122.648 135.049 122.973 135.949 123.054 137.159L123.399 143.152L120.433 143.323L120.093 137.4C120.064 136.897 119.94 136.534 119.722 136.312C119.503 136.084 119.148 135.984 118.657 136.013C118.049 136.048 117.63 136.265 117.401 136.666L117.792 143.475L114.835 143.645L114.06 130.167L117.017 129.997L117.305 134.999ZM129.648 142.969C128.191 143.053 126.988 142.688 126.037 141.874C125.086 141.054 124.57 139.948 124.49 138.556L124.476 138.31C124.42 137.339 124.55 136.472 124.864 135.708C125.184 134.945 125.677 134.341 126.344 133.898C127.011 133.449 127.818 133.197 128.766 133.142C130.1 133.066 131.176 133.42 131.996 134.207C132.816 134.987 133.268 136.117 133.353 137.597L133.419 138.747L127.54 139.085C127.676 139.611 127.931 140.016 128.306 140.3C128.68 140.583 129.151 140.709 129.718 140.676C130.654 140.622 131.367 140.253 131.856 139.567L133.299 141.087C132.959 141.617 132.459 142.053 131.798 142.397C131.143 142.734 130.426 142.925 129.648 142.969ZM128.879 135.425C128.014 135.475 127.532 136.077 127.434 137.233L130.417 137.062L130.404 136.834C130.389 136.359 130.248 136 129.981 135.758C129.715 135.509 129.347 135.398 128.879 135.425ZM142.074 130.185L142.21 132.545L143.772 132.456L143.89 134.509L142.328 134.599L142.578 138.942C142.598 139.299 142.677 139.544 142.814 139.677C142.95 139.81 143.209 139.865 143.589 139.844C143.882 139.827 144.126 139.795 144.323 139.748L144.445 141.863C143.922 142.063 143.371 142.18 142.792 142.213C141.774 142.272 141.009 142.075 140.496 141.624C139.983 141.172 139.698 140.458 139.642 139.481L139.371 134.769L138.16 134.838L138.042 132.785L139.253 132.715L139.117 130.355L142.074 130.185ZM150.837 141.575C150.721 141.388 150.611 141.11 150.507 140.74C150.003 141.456 149.262 141.841 148.285 141.898C147.39 141.949 146.614 141.724 145.957 141.222C145.3 140.714 144.948 140.05 144.901 139.231C144.842 138.202 145.177 137.402 145.907 136.831C146.637 136.261 147.728 135.934 149.179 135.851L150.091 135.799L150.062 135.298C150.012 134.427 149.61 134.013 148.855 134.056C148.153 134.096 147.822 134.462 147.862 135.152L144.905 135.322C144.852 134.404 145.198 133.635 145.943 133.017C146.694 132.399 147.675 132.055 148.886 131.985C150.097 131.916 151.07 132.156 151.806 132.707C152.542 133.257 152.948 134.047 153.025 135.075L153.267 139.278C153.329 140.149 153.502 140.808 153.786 141.256L153.794 141.405L150.837 141.575ZM148.875 139.751C149.243 139.73 149.543 139.633 149.774 139.462C150.01 139.289 150.175 139.101 150.269 138.896L150.182 137.378L149.322 137.427C148.293 137.487 147.804 137.978 147.857 138.903C147.873 139.172 147.976 139.386 148.167 139.545C148.358 139.698 148.594 139.767 148.875 139.751ZM158.155 141.154L155.189 141.325L154.414 127.847L157.38 127.676L158.155 141.154ZM163.594 137.294L162.808 138.175L162.964 140.878L160.006 141.048L159.231 127.561L162.188 127.391L162.6 134.551L162.875 134.139L164.945 131.238L168.49 131.034L165.389 135.13L169.255 140.516L165.868 140.711L163.594 137.294ZM172.931 140.304L169.966 140.475L169.42 130.981L172.386 130.81L172.931 140.304ZM169.103 128.543C169.079 128.122 169.212 127.768 169.5 127.481C169.789 127.195 170.176 127.037 170.662 127.009C171.147 126.982 171.55 127.093 171.869 127.345C172.189 127.597 172.361 127.933 172.385 128.354C172.409 128.775 172.277 129.129 171.988 129.416C171.7 129.702 171.313 129.86 170.827 129.888C170.342 129.915 169.939 129.804 169.619 129.552C169.3 129.3 169.128 128.964 169.103 128.543ZM176.931 130.549L177.091 131.658C177.697 130.76 178.576 130.278 179.729 130.212C180.717 130.155 181.471 130.408 181.991 130.971C182.516 131.534 182.822 132.408 182.907 133.595L183.259 139.711L180.293 139.881L179.949 133.888C179.921 133.408 179.804 133.063 179.599 132.852C179.392 132.635 179.035 132.541 178.526 132.57C177.947 132.603 177.53 132.856 177.275 133.329L177.661 140.033L174.704 140.203L174.158 130.708L176.931 130.549ZM184.281 134.819C184.226 133.859 184.335 133.002 184.608 132.247C184.882 131.492 185.303 130.898 185.87 130.466C186.438 130.029 187.114 129.787 187.898 129.742C188.886 129.686 189.678 129.975 190.272 130.609L190.33 129.779L193.015 129.624L193.54 138.759C193.588 139.595 193.434 140.332 193.077 140.968C192.727 141.611 192.192 142.117 191.474 142.487C190.756 142.863 189.912 143.078 188.941 143.134C188.244 143.174 187.561 143.082 186.891 142.856C186.227 142.63 185.71 142.316 185.34 141.915L186.478 140.107C187.065 140.724 187.809 141.007 188.71 140.955C190.02 140.88 190.636 140.17 190.559 138.824L190.542 138.526C190.011 139.184 189.312 139.539 188.446 139.588C187.288 139.655 186.327 139.267 185.562 138.425C184.797 137.577 184.372 136.41 184.287 134.924L184.281 134.819ZM187.257 134.832C187.302 135.61 187.484 136.219 187.802 136.659C188.121 137.092 188.543 137.294 189.07 137.264C189.707 137.227 190.16 136.987 190.428 136.543L190.198 132.55C189.887 132.134 189.415 131.944 188.783 131.98C188.257 132.011 187.858 132.271 187.587 132.762C187.316 133.247 187.206 133.937 187.257 134.832ZM204.533 135.811C204.519 135.56 204.376 135.365 204.104 135.228C203.832 135.091 203.322 134.962 202.576 134.841C201.829 134.719 201.209 134.541 200.714 134.305C200.219 134.064 199.835 133.76 199.561 133.394C199.288 133.029 199.137 132.6 199.109 132.109C199.059 131.237 199.377 130.5 200.064 129.897C200.751 129.288 201.677 128.95 202.841 128.883C204.093 128.811 205.115 129.037 205.908 129.561C206.701 130.084 207.124 130.808 207.177 131.733L204.212 131.903C204.168 131.143 203.745 130.786 202.944 130.832C202.634 130.849 202.379 130.952 202.178 131.14C201.977 131.322 201.884 131.541 201.899 131.798C201.914 132.062 202.055 132.268 202.322 132.417C202.589 132.566 203.006 132.677 203.574 132.75C204.147 132.822 204.652 132.92 205.087 133.041C206.543 133.451 207.307 134.29 207.38 135.559C207.43 136.425 207.084 137.152 206.343 137.741C205.608 138.329 204.629 138.658 203.407 138.728C202.594 138.775 201.86 138.67 201.206 138.415C200.551 138.159 200.031 137.79 199.645 137.307C199.259 136.824 199.051 136.305 199.019 135.75L201.783 135.591C201.82 136.029 201.984 136.342 202.277 136.531C202.569 136.713 202.935 136.792 203.373 136.767C203.777 136.744 204.073 136.645 204.263 136.469C204.458 136.294 204.548 136.074 204.533 135.811ZM211.692 126.182L211.827 128.543L213.389 128.453L213.507 130.506L211.945 130.596L212.195 134.939C212.216 135.296 212.294 135.541 212.431 135.674C212.568 135.807 212.826 135.862 213.206 135.841C213.499 135.824 213.744 135.792 213.94 135.746L214.062 137.86C213.54 138.061 212.989 138.177 212.41 138.211C211.392 138.269 210.626 138.072 210.113 137.621C209.6 137.169 209.315 136.455 209.259 135.478L208.988 130.766L207.777 130.835L207.659 128.782L208.87 128.713L208.734 126.352L211.692 126.182ZM220.455 137.572C220.338 137.385 220.228 137.107 220.125 136.737C219.62 137.453 218.879 137.839 217.902 137.895C217.007 137.946 216.231 137.721 215.575 137.219C214.917 136.711 214.565 136.047 214.518 135.228C214.459 134.199 214.794 133.399 215.525 132.829C216.255 132.258 217.345 131.932 218.796 131.848L219.709 131.796L219.68 131.296C219.63 130.424 219.227 130.01 218.473 130.053C217.771 130.094 217.44 130.459 217.479 131.149L214.522 131.319C214.47 130.401 214.816 129.633 215.561 129.015C216.312 128.396 217.292 128.052 218.503 127.983C219.714 127.913 220.688 128.153 221.424 128.704C222.16 129.254 222.566 130.044 222.643 131.072L222.884 135.275C222.946 136.146 223.119 136.805 223.403 137.253L223.412 137.402L220.455 137.572ZM218.492 135.748C218.861 135.727 219.16 135.63 219.391 135.459C219.628 135.287 219.793 135.098 219.887 134.893L219.799 133.375L218.94 133.425C217.91 133.484 217.422 133.975 217.475 134.9C217.49 135.169 217.594 135.383 217.785 135.542C217.976 135.696 218.211 135.764 218.492 135.748ZM230.004 130.182L229.026 130.168C228.096 130.222 227.516 130.549 227.287 131.149L227.632 137.159L224.675 137.329L224.129 127.835L226.902 127.676L227.069 128.89C227.512 127.931 228.179 127.426 229.068 127.375C229.384 127.357 229.661 127.376 229.899 127.433L230.004 130.182ZM38.0246 164.941L39.2962 159.497L42.4638 159.315L39.2315 170.62L39.088 171.033C38.6087 172.293 37.673 172.963 36.2808 173.044C35.8947 173.066 35.4848 173.031 35.051 172.938L34.9294 170.823L35.3155 170.801C35.7308 170.777 36.0432 170.698 36.2526 170.563C36.4681 170.433 36.6196 170.21 36.7071 169.894L36.9077 169.248L33.0575 159.856L36.2164 159.675L38.0246 164.941ZM42.995 163.96C42.9405 163.012 43.0763 162.159 43.4025 161.401C43.7283 160.637 44.2249 160.036 44.8923 159.598C45.5597 159.161 46.3584 158.915 47.2885 158.862C48.71 158.78 49.8556 159.157 50.7254 159.994C51.5948 160.824 52.0731 161.997 52.1602 163.512L52.1662 163.617C52.2513 165.097 51.9065 166.297 51.1318 167.216C50.3627 168.128 49.2761 168.625 47.8722 168.706C46.5209 168.784 45.4126 168.442 44.5472 167.682C43.6815 166.916 43.1766 165.842 43.0325 164.459L42.995 163.96ZM45.9626 163.974C46.0131 164.851 46.1875 165.487 46.486 165.88C46.7845 166.274 47.2028 166.455 47.741 166.425C48.7939 166.364 49.2855 165.523 49.2158 163.901L49.1986 163.603C49.1007 161.901 48.5078 161.081 47.4197 161.143C46.4311 161.2 45.9381 161.965 45.9406 163.438L45.9626 163.974ZM59.3328 166.841C58.753 167.678 57.9308 168.128 56.8661 168.189C55.8249 168.249 55.0178 167.993 54.445 167.421C53.8777 166.843 53.5614 165.987 53.4962 164.852L53.1425 158.701L56.0995 158.531L56.4542 164.7C56.501 165.513 56.9192 165.897 57.7089 165.851C58.3875 165.812 58.8561 165.542 59.1148 165.04L58.7319 158.38L61.7065 158.209L62.2524 167.703L59.4796 167.862L59.3328 166.841ZM64.4241 158.775L63.0851 158.147C63.5222 157.277 63.7234 156.438 63.6887 155.63L63.6009 154.103L65.7594 153.979L65.8417 155.409C65.8729 155.953 65.7485 156.544 65.4682 157.183C65.1935 157.815 64.8455 158.345 64.4241 158.775ZM71.8337 163.622L72.9906 157.56L76.1055 157.381L73.554 167.053L70.5356 167.227L66.8923 157.911L70.016 157.731L71.8337 163.622ZM82.014 166.743C80.5574 166.827 79.3538 166.461 78.4032 165.648C77.4522 164.828 76.9367 163.722 76.8567 162.329L76.8425 162.084C76.7867 161.113 76.9158 160.245 77.23 159.482C77.5499 158.718 78.0434 158.115 78.7105 157.671C79.3772 157.222 80.1844 156.97 81.1321 156.916C82.4658 156.839 83.5426 157.194 84.3625 157.98C85.1821 158.761 85.6345 159.891 85.7196 161.371L85.7857 162.52L79.9067 162.858C80.0426 163.385 80.2977 163.79 80.672 164.073C81.0464 164.357 81.5172 164.482 82.0847 164.45C83.0206 164.396 83.733 164.026 84.2218 163.341L85.6649 164.86C85.3256 165.39 84.8255 165.827 84.1644 166.17C83.5088 166.507 82.792 166.698 82.014 166.743ZM81.2457 159.198C80.3799 159.248 79.8981 159.851 79.8003 161.007L82.7836 160.835L82.7705 160.607C82.7549 160.133 82.614 159.774 82.3477 159.531C82.081 159.282 81.7137 159.171 81.2457 159.198ZM100.224 160.836C100.313 162.392 100.06 163.607 99.4647 164.481C98.8693 165.354 97.9867 165.824 96.8167 165.892C95.8515 165.947 95.0515 165.609 94.4166 164.876L94.3498 165.857L91.6998 166.01L90.9249 152.532L93.8819 152.362L94.1549 157.109C94.6687 156.452 95.3615 156.098 96.2331 156.048C97.4147 155.98 98.3517 156.351 99.0439 157.163C99.7362 157.974 100.127 159.149 100.215 160.687L100.224 160.836ZM97.2471 160.822C97.1947 159.91 97.0345 159.268 96.7666 158.896C96.5042 158.518 96.1215 158.343 95.6184 158.372C94.9516 158.41 94.5041 158.691 94.2759 159.215L94.4929 162.988C94.7734 163.477 95.2558 163.701 95.9402 163.662C96.6363 163.622 97.0585 163.257 97.2066 162.568C97.2811 162.229 97.2946 161.647 97.2471 160.822ZM106.407 165.34C104.951 165.424 103.747 165.059 102.797 164.245C101.846 163.425 101.33 162.319 101.25 160.927L101.236 160.681C101.18 159.71 101.309 158.843 101.623 158.079C101.943 157.316 102.437 156.712 103.104 156.269C103.771 155.82 104.578 155.568 105.525 155.513C106.859 155.437 107.936 155.791 108.756 156.578C109.575 157.358 110.028 158.488 110.113 159.968L110.179 161.118L104.3 161.456C104.436 161.982 104.691 162.387 105.065 162.671C105.44 162.954 105.911 163.08 106.478 163.047C107.414 162.993 108.126 162.624 108.615 161.938L110.058 163.458C109.719 163.988 109.219 164.424 108.558 164.768C107.902 165.105 107.185 165.296 106.407 165.34ZM105.639 157.796C104.773 157.846 104.291 158.448 104.194 159.604L107.177 159.433L107.164 159.205C107.148 158.73 107.007 158.371 106.741 158.129C106.474 157.88 106.107 157.769 105.639 157.796ZM116.2 164.777C114.743 164.861 113.54 164.496 112.589 163.682C111.638 162.862 111.122 161.756 111.042 160.364L111.028 160.118C110.972 159.147 111.102 158.28 111.416 157.516C111.736 156.753 112.229 156.149 112.896 155.706C113.563 155.257 114.37 155.005 115.318 154.95C116.652 154.874 117.728 155.228 118.548 156.015C119.368 156.795 119.82 157.925 119.905 159.405L119.971 160.555L114.092 160.893C114.228 161.419 114.483 161.824 114.858 162.108C115.232 162.391 115.703 162.517 116.27 162.484C117.206 162.43 117.919 162.061 118.408 161.375L119.851 162.895C119.511 163.425 119.011 163.861 118.35 164.205C117.695 164.542 116.978 164.732 116.2 164.777ZM115.431 157.233C114.566 157.282 114.084 157.885 113.986 159.041L116.969 158.87L116.956 158.642C116.941 158.167 116.8 157.808 116.533 157.565C116.267 157.317 115.899 157.206 115.431 157.233ZM123.558 154.653L123.719 155.761C124.325 154.864 125.204 154.382 126.356 154.316C127.345 154.259 128.099 154.512 128.618 155.075C129.144 155.637 129.449 156.512 129.535 157.698L129.887 163.814L126.921 163.985L126.576 157.992C126.549 157.512 126.432 157.167 126.226 156.955C126.02 156.738 125.663 156.644 125.154 156.674C124.575 156.707 124.158 156.96 123.903 157.432L124.289 164.136L121.332 164.306L120.786 154.812L123.558 154.653ZM139.126 163.283L136.161 163.453L135.386 149.976L138.351 149.805L139.126 163.283ZM140.305 158.364C140.25 157.417 140.386 156.564 140.712 155.805C141.038 155.041 141.535 154.441 142.202 154.003C142.87 153.566 143.668 153.32 144.599 153.267C146.02 153.185 147.166 153.562 148.035 154.398C148.905 155.229 149.383 156.402 149.47 157.917L149.476 158.022C149.561 159.502 149.217 160.701 148.442 161.62C147.673 162.533 146.586 163.03 145.182 163.111C143.831 163.188 142.723 162.847 141.857 162.087C140.991 161.321 140.487 160.247 140.342 158.864L140.305 158.364ZM143.273 158.379C143.323 159.256 143.498 159.892 143.796 160.285C144.094 160.679 144.513 160.86 145.051 160.829C146.104 160.769 146.596 159.928 146.526 158.306L146.509 158.008C146.411 156.305 145.818 155.486 144.73 155.548C143.741 155.605 143.248 156.37 143.251 157.843L143.273 158.379ZM150.396 157.784C150.341 156.836 150.477 155.984 150.803 155.225C151.129 154.461 151.626 153.86 152.293 153.423C152.96 152.985 153.759 152.74 154.689 152.686C156.111 152.605 157.256 152.982 158.126 153.818C158.996 154.649 159.474 155.821 159.561 157.336L159.567 157.442C159.652 158.922 159.307 160.121 158.533 161.04C157.763 161.953 156.677 162.45 155.273 162.531C153.922 162.608 152.813 162.267 151.948 161.507C151.082 160.741 150.577 159.666 150.433 158.284L150.396 157.784ZM153.363 157.798C153.414 158.676 153.588 159.311 153.887 159.705C154.185 160.099 154.604 160.28 155.142 160.249C156.195 160.189 156.686 159.347 156.616 157.726L156.599 157.427C156.501 155.725 155.909 154.905 154.82 154.968C153.832 155.025 153.339 155.79 153.341 157.263L153.363 157.798ZM164.747 158.262L163.961 159.143L164.116 161.846L161.159 162.016L160.384 148.529L163.341 148.359L163.753 155.52L164.028 155.108L166.098 152.207L169.642 152.003L166.541 156.099L170.408 161.484L167.021 161.679L164.747 158.262ZM174.084 161.273L171.118 161.443L170.573 151.949L173.538 151.779L174.084 161.273ZM170.256 149.511C170.232 149.09 170.364 148.736 170.653 148.45C170.942 148.163 171.329 148.006 171.814 147.978C172.3 147.95 172.703 148.062 173.022 148.313C173.342 148.565 173.514 148.901 173.538 149.323C173.562 149.744 173.43 150.098 173.141 150.384C172.853 150.671 172.465 150.828 171.98 150.856C171.494 150.884 171.092 150.772 170.772 150.52C170.452 150.269 170.281 149.932 170.256 149.511ZM178.084 151.517L178.244 152.626C178.85 151.729 179.729 151.247 180.881 151.18C181.87 151.124 182.624 151.377 183.144 151.94C183.669 152.502 183.974 153.377 184.06 154.563L184.412 160.679L181.446 160.85L181.102 154.857C181.074 154.377 180.957 154.031 180.751 153.82C180.545 153.603 180.188 153.509 179.679 153.539C179.1 153.572 178.683 153.825 178.428 154.297L178.814 161.001L175.857 161.171L175.311 151.677L178.084 151.517ZM185.434 155.787C185.378 154.828 185.488 153.97 185.761 153.215C186.035 152.46 186.455 151.867 187.023 151.435C187.591 150.997 188.267 150.756 189.05 150.711C190.039 150.654 190.83 150.943 191.424 151.578L191.482 150.747L194.167 150.593L194.693 159.727C194.741 160.563 194.586 161.3 194.23 161.937C193.879 162.579 193.345 163.085 192.627 163.455C191.909 163.831 191.064 164.047 190.093 164.103C189.397 164.143 188.714 164.05 188.044 163.824C187.379 163.598 186.862 163.285 186.493 162.883L187.63 161.075C188.218 161.693 188.962 161.976 189.862 161.924C191.173 161.849 191.789 161.138 191.712 159.793L191.695 159.494C191.163 160.153 190.465 160.507 189.599 160.557C188.441 160.623 187.479 160.236 186.715 159.393C185.95 158.545 185.525 157.378 185.44 155.892L185.434 155.787ZM188.41 155.801C188.455 156.579 188.636 157.188 188.955 157.627C189.274 158.061 189.696 158.262 190.222 158.232C190.86 158.195 191.313 157.955 191.581 157.511L191.351 153.519C191.04 153.102 190.568 152.912 189.936 152.949C189.41 152.979 189.011 153.24 188.74 153.731C188.469 154.216 188.359 154.906 188.41 155.801ZM201.522 159.695L201.095 152.254L199.717 152.334L199.599 150.28L200.976 150.201L200.933 149.446C200.871 148.364 201.141 147.507 201.745 146.873C202.348 146.24 203.226 145.89 204.378 145.824C204.799 145.8 205.265 145.834 205.775 145.928L205.909 148.104C205.725 148.062 205.48 148.049 205.176 148.067C204.281 148.118 203.856 148.53 203.9 149.302L203.942 150.031L205.794 149.924L205.912 151.977L204.06 152.084L204.488 159.525L201.522 159.695ZM206.728 154.545C206.674 153.597 206.81 152.744 207.136 151.986C207.462 151.222 207.958 150.621 208.626 150.184C209.293 149.746 210.092 149.501 211.022 149.447C212.443 149.366 213.589 149.743 214.459 150.579C215.328 151.41 215.807 152.582 215.894 154.097L215.9 154.203C215.985 155.683 215.64 156.882 214.865 157.801C214.096 158.714 213.01 159.211 211.606 159.291C210.254 159.369 209.146 159.028 208.281 158.268C207.415 157.502 206.91 156.427 206.766 155.045L206.728 154.545ZM209.696 154.559C209.747 155.437 209.921 156.072 210.219 156.466C210.518 156.86 210.936 157.041 211.474 157.01C212.527 156.95 213.019 156.108 212.949 154.487L212.932 154.188C212.834 152.486 212.241 151.666 211.153 151.729C210.165 151.786 209.672 152.551 209.674 154.024L209.696 154.559ZM222.821 151.63L221.843 151.616C220.913 151.669 220.333 151.996 220.103 152.596L220.449 158.607L217.492 158.777L216.946 149.283L219.719 149.123L219.886 150.338C220.329 149.379 220.996 148.874 221.885 148.823C222.201 148.805 222.478 148.824 222.716 148.881L222.821 151.63ZM224.417 155.5C224.885 155.473 225.282 155.591 225.608 155.854C225.934 156.111 226.109 156.456 226.134 156.889C226.159 157.322 226.025 157.688 225.731 157.986C225.437 158.279 225.055 158.439 224.587 158.466C224.114 158.493 223.714 158.375 223.387 158.112C223.067 157.849 222.895 157.504 222.87 157.077C222.846 156.65 222.977 156.287 223.265 155.989C223.559 155.69 223.943 155.527 224.417 155.5Z" fill="#51ADE0"/>
<path d="M280.136 123.53C282.163 119.559 287.837 119.559 289.864 123.53L309.218 161.455C310.011 163.01 311.5 164.091 313.224 164.365L355.273 171.053C359.676 171.753 361.429 177.15 358.279 180.304L328.191 210.43C326.958 211.665 326.389 213.416 326.661 215.14L333.295 257.197C333.989 261.601 329.399 264.936 325.425 262.915L287.476 243.61C285.92 242.818 284.08 242.818 282.524 243.61L244.575 262.915C240.601 264.936 236.011 261.601 236.705 257.197L243.339 215.14C243.611 213.416 243.042 211.665 241.809 210.43L211.721 180.304C208.571 177.15 210.324 171.753 214.727 171.053L256.776 164.365C258.5 164.091 259.989 163.01 260.782 161.455L280.136 123.53Z" fill="#FFCD1A"/>
<circle cx="306.048" cy="184.429" r="17" fill="white"/>
<path d="M310.5 220.5C310.535 225.954 303.25 233.384 289.213 232.085C275.175 230.786 265.43 222.089 265.396 216.635C265.361 211.181 275.05 211.035 289.087 212.334C303.125 213.633 310.465 215.046 310.5 220.5Z" fill="white"/>
<circle cx="302.81" cy="189.286" r="7.28571" fill="#FFCC19"/>
<circle cx="263.952" cy="189.286" r="17" fill="white"/>
<circle cx="267.19" cy="192.524" r="7.28571" fill="#FFCC19"/>
<circle cx="267.19" cy="192.524" r="4.04762" fill="#51ADE0"/>
<circle cx="302.81" cy="189.286" r="4.04762" fill="#51ADE0"/>
<circle cx="304.428" cy="186.048" r="2.42857" fill="white"/>
<circle cx="263.952" cy="190.905" r="2.42857" fill="white"/>
<circle cx="293.055" cy="232.055" r="2.68919" transform="rotate(-8.45414 293.055 232.055)" fill="#FFCC19"/>
<circle cx="285.696" cy="232.696" r="4.13345" transform="rotate(-8.45414 285.696 232.696)" fill="#FFCC19"/>
<path d="M233.156 300.271C233.488 308.187 227.19 314.801 219.267 314.857L32.5846 316.168C24.6807 316.224 18.298 309.729 18.4905 301.828L19.8234 247.111C20.0117 239.38 26.4321 233.266 34.1628 233.456L169.735 236.784C175.521 236.926 181.295 236.184 186.857 234.582L217.655 225.715C222.129 224.427 224.75 230.595 220.717 232.921C214.061 236.761 215.968 246.841 223.567 247.984L227.866 248.631C229.692 248.906 231.067 250.437 231.144 252.283L233.156 300.271Z" fill="#ECC08D"/>
<path d="M21.9648 391.57C20.2761 399.896 26.3327 407.796 34.8119 408.326L255.361 422.114C262.596 422.566 268.979 417.422 270.074 410.256L277.334 362.764C278.534 354.908 272.962 347.629 265.065 346.737L95.8509 327.63C90.372 327.012 85.0113 325.604 79.9351 323.452L50.0433 310.776C45.757 308.959 42.4125 314.766 46.1357 317.561C52.2807 322.175 49.174 331.952 41.4929 332.172L37.0398 332.299C35.2408 332.351 33.7147 333.635 33.3569 335.399L21.9648 391.57Z" fill="#ECC08D"/>
<path d="M251.127 484.521C251.909 492.405 245.997 499.367 238.09 499.873L51.784 511.798C43.896 512.303 37.1543 506.182 36.8972 498.282L35.1165 443.578C34.8649 435.849 40.9272 429.38 48.6562 429.13L184.198 424.743C189.983 424.556 195.706 423.486 201.167 421.571L231.412 410.967C235.805 409.427 238.772 415.435 234.879 417.988C228.452 422.2 230.929 432.155 238.58 432.864L242.909 433.266C244.748 433.436 246.208 434.887 246.39 436.725L251.127 484.521Z" fill="#ECC08D"/>
<path d="M237.499 302.003C237.499 309.926 230.93 316.271 223.012 315.996L36.4376 309.502C28.5383 309.228 22.4326 302.472 22.9552 294.585L26.5742 239.972C27.0855 232.256 33.7558 226.416 41.4719 226.929L176.786 235.921C182.562 236.305 188.362 235.804 193.986 234.437L225.128 226.865C229.651 225.765 232.012 232.037 227.886 234.193C221.075 237.751 222.559 247.901 230.103 249.362L234.371 250.188C236.184 250.539 237.494 252.126 237.494 253.973L237.499 302.003Z" fill="#FFFDFD"/>
<path d="M22.6752 384.395C20.6399 392.643 26.361 400.788 34.8107 401.673L254.591 424.668C261.8 425.422 268.393 420.549 269.787 413.436L279.025 366.289C280.553 358.49 275.29 350.984 267.437 349.763L99.1694 323.599C93.7211 322.752 88.424 321.122 83.4422 318.759L54.1064 304.845C49.8998 302.85 46.3154 308.512 49.9185 311.461C55.8654 316.327 52.3527 325.966 44.6691 325.864L40.2146 325.806C38.415 325.782 36.8365 327.002 36.4053 328.749L22.6752 384.395Z" fill="#FFFDFD"/>
<path d="M247.752 486.843C248.203 494.754 242.006 501.462 234.084 501.637L47.4427 505.764C39.5405 505.938 33.0606 499.541 33.1339 491.637L33.6414 436.907C33.7131 429.174 40.0406 422.964 47.7733 423.037L183.38 424.32C189.168 424.375 194.93 423.546 200.467 421.86L231.128 412.53C235.582 411.174 238.296 417.302 234.299 419.689C227.701 423.629 229.76 433.679 237.375 434.707L241.683 435.289C243.513 435.537 244.911 437.047 245.016 438.891L247.752 486.843Z" fill="#FFFDFD"/>
<path d="M119.254 262H116.178V249.203H119.254V262ZM129.563 258.458L128.729 259.293V262H125.767V248.491H128.729V255.663L129.027 255.268L131.26 252.49H134.811L131.479 256.401L135.03 262H131.638L129.563 258.458ZM138.309 252.49L138.405 253.606C139.062 252.745 139.967 252.314 141.121 252.314C142.111 252.314 142.85 252.61 143.336 253.202C143.828 253.794 144.083 254.685 144.101 255.874V262H141.13V255.997C141.13 255.517 141.033 255.165 140.84 254.942C140.646 254.714 140.295 254.6 139.785 254.6C139.205 254.6 138.774 254.828 138.493 255.285V262H135.531V252.49H138.309ZM145.375 257.157C145.375 256.208 145.56 255.364 145.929 254.626C146.298 253.882 146.828 253.311 147.52 252.912C148.211 252.514 149.022 252.314 149.954 252.314C151.378 252.314 152.5 252.757 153.32 253.642C154.141 254.521 154.551 255.719 154.551 257.236V257.342C154.551 258.824 154.138 260.002 153.312 260.875C152.491 261.742 151.378 262.176 149.972 262.176C148.618 262.176 147.531 261.771 146.711 260.963C145.891 260.148 145.448 259.047 145.384 257.658L145.375 257.157ZM148.337 257.342C148.337 258.221 148.475 258.865 148.75 259.275C149.025 259.686 149.433 259.891 149.972 259.891C151.026 259.891 151.565 259.079 151.589 257.456V257.157C151.589 255.452 151.044 254.6 149.954 254.6C148.964 254.6 148.428 255.335 148.346 256.806L148.337 257.342ZM164.069 258.098L165.027 252.49H167.866L165.625 262H163.12L161.547 256.357L159.965 262H157.46L155.219 252.49H158.058L158.998 258.229L160.51 252.49H162.575L164.069 258.098ZM125.037 266.406L130.75 284.213L136.445 266.406H144.566V292H138.379V286.023L138.977 273.789L132.789 292H128.711L122.506 273.771L123.104 286.023V292H116.934V266.406H125.037ZM160.311 289.943C159.057 291.549 157.363 292.352 155.23 292.352C153.145 292.352 151.562 291.748 150.484 290.541C149.418 289.322 148.885 287.576 148.885 285.303V272.98H154.809V285.338C154.809 286.967 155.6 287.781 157.182 287.781C158.541 287.781 159.508 287.295 160.082 286.322V272.98H166.041V292H160.486L160.311 289.943ZM180.01 286.656C180.01 286.152 179.746 285.748 179.219 285.443C178.691 285.139 177.689 284.822 176.213 284.494C174.736 284.166 173.518 283.738 172.557 283.211C171.596 282.672 170.863 282.021 170.359 281.26C169.855 280.498 169.604 279.625 169.604 278.641C169.604 276.895 170.324 275.459 171.766 274.334C173.207 273.197 175.094 272.629 177.426 272.629C179.934 272.629 181.949 273.197 183.473 274.334C184.996 275.471 185.758 276.965 185.758 278.816H179.816C179.816 277.293 179.014 276.531 177.408 276.531C176.787 276.531 176.266 276.707 175.844 277.059C175.422 277.398 175.211 277.826 175.211 278.342C175.211 278.869 175.469 279.297 175.984 279.625C176.5 279.953 177.32 280.223 178.445 280.434C179.582 280.645 180.578 280.896 181.434 281.189C184.293 282.174 185.723 283.938 185.723 286.48C185.723 288.215 184.949 289.627 183.402 290.717C181.867 291.807 179.875 292.352 177.426 292.352C175.797 292.352 174.344 292.059 173.066 291.473C171.789 290.887 170.793 290.09 170.078 289.082C169.363 288.074 169.006 287.014 169.006 285.9H174.543C174.566 286.779 174.859 287.424 175.422 287.834C175.984 288.232 176.705 288.432 177.584 288.432C178.393 288.432 178.996 288.268 179.395 287.939C179.805 287.611 180.01 287.184 180.01 286.656ZM195.508 292H189.566V272.98H195.508V292ZM189.215 268.076C189.215 267.232 189.52 266.541 190.129 266.002C190.738 265.463 191.529 265.193 192.502 265.193C193.475 265.193 194.266 265.463 194.875 266.002C195.484 266.541 195.789 267.232 195.789 268.076C195.789 268.92 195.484 269.611 194.875 270.15C194.266 270.689 193.475 270.959 192.502 270.959C191.529 270.959 190.738 270.689 190.129 270.15C189.52 269.611 189.215 268.92 189.215 268.076ZM207.965 287.781C208.797 287.781 209.441 287.559 209.898 287.113C210.355 286.656 210.578 286.023 210.566 285.215H216.121C216.121 287.301 215.371 289.012 213.871 290.348C212.383 291.684 210.461 292.352 208.105 292.352C205.34 292.352 203.16 291.484 201.566 289.75C199.973 288.016 199.176 285.613 199.176 282.543V282.297C199.176 280.375 199.527 278.682 200.23 277.217C200.945 275.74 201.971 274.609 203.307 273.824C204.643 273.027 206.225 272.629 208.053 272.629C210.525 272.629 212.488 273.314 213.941 274.686C215.395 276.057 216.121 277.914 216.121 280.258H210.566C210.566 279.273 210.326 278.518 209.846 277.99C209.365 277.463 208.721 277.199 207.912 277.199C206.377 277.199 205.48 278.178 205.223 280.135C205.141 280.756 205.1 281.611 205.1 282.701C205.1 284.611 205.328 285.936 205.785 286.674C206.242 287.412 206.969 287.781 207.965 287.781Z" fill="#94D7B5"/>
<path d="M119.254 358H116.178V345.203H119.254V358ZM129.563 354.458L128.729 355.293V358H125.767V344.491H128.729V351.663L129.027 351.268L131.26 348.49H134.811L131.479 352.401L135.03 358H131.638L129.563 354.458ZM138.309 348.49L138.405 349.606C139.062 348.745 139.967 348.314 141.121 348.314C142.111 348.314 142.85 348.61 143.336 349.202C143.828 349.794 144.083 350.685 144.101 351.874V358H141.13V351.997C141.13 351.517 141.033 351.165 140.84 350.942C140.646 350.714 140.295 350.6 139.785 350.6C139.205 350.6 138.774 350.828 138.493 351.285V358H135.531V348.49H138.309ZM145.375 353.157C145.375 352.208 145.56 351.364 145.929 350.626C146.298 349.882 146.828 349.311 147.52 348.912C148.211 348.514 149.022 348.314 149.954 348.314C151.378 348.314 152.5 348.757 153.32 349.642C154.141 350.521 154.551 351.719 154.551 353.236V353.342C154.551 354.824 154.138 356.002 153.312 356.875C152.491 357.742 151.378 358.176 149.972 358.176C148.618 358.176 147.531 357.771 146.711 356.963C145.891 356.148 145.448 355.047 145.384 353.658L145.375 353.157ZM148.337 353.342C148.337 354.221 148.475 354.865 148.75 355.275C149.025 355.686 149.433 355.891 149.972 355.891C151.026 355.891 151.565 355.079 151.589 353.456V353.157C151.589 351.452 151.044 350.6 149.954 350.6C148.964 350.6 148.428 351.335 148.346 352.806L148.337 353.342ZM164.069 354.098L165.027 348.49H167.866L165.625 358H163.12L161.547 352.357L159.965 358H157.46L155.219 348.49H158.058L158.998 354.229L160.51 348.49H162.575L164.069 354.098ZM132.807 377.154H123.104V383.254H134.564V388H116.934V362.406H134.6V367.17H123.104V372.566H132.807V377.154ZM145.264 374.219L148.023 368.98H154.176L149.166 378.244L154.422 388H148.234L145.246 382.375L142.311 388H136.088L141.361 378.244L136.369 368.98H142.592L145.264 374.219ZM165.684 388.352C162.766 388.352 160.404 387.484 158.6 385.75C156.795 384.004 155.893 381.736 155.893 378.947V378.455C155.893 376.51 156.25 374.793 156.965 373.305C157.691 371.816 158.746 370.668 160.129 369.859C161.512 369.039 163.152 368.629 165.051 368.629C167.723 368.629 169.832 369.461 171.379 371.125C172.926 372.777 173.699 375.086 173.699 378.051V380.354H161.922C162.133 381.42 162.596 382.258 163.311 382.867C164.025 383.477 164.951 383.781 166.088 383.781C167.963 383.781 169.428 383.125 170.482 381.812L173.189 385.012C172.451 386.031 171.402 386.846 170.043 387.455C168.695 388.053 167.242 388.352 165.684 388.352ZM165.016 373.199C163.281 373.199 162.25 374.348 161.922 376.645H167.898V376.188C167.922 375.238 167.682 374.506 167.178 373.99C166.674 373.463 165.953 373.199 165.016 373.199ZM188.354 374.342L186.402 374.201C184.539 374.201 183.344 374.787 182.816 375.959V388H176.893V368.98H182.447L182.641 371.424C183.637 369.561 185.025 368.629 186.807 368.629C187.439 368.629 187.99 368.699 188.459 368.84L188.354 374.342ZM198.93 383.781C199.762 383.781 200.406 383.559 200.863 383.113C201.32 382.656 201.543 382.023 201.531 381.215H207.086C207.086 383.301 206.336 385.012 204.836 386.348C203.348 387.684 201.426 388.352 199.07 388.352C196.305 388.352 194.125 387.484 192.531 385.75C190.938 384.016 190.141 381.613 190.141 378.543V378.297C190.141 376.375 190.492 374.682 191.195 373.217C191.91 371.74 192.936 370.609 194.271 369.824C195.607 369.027 197.189 368.629 199.018 368.629C201.49 368.629 203.453 369.314 204.906 370.686C206.359 372.057 207.086 373.914 207.086 376.258H201.531C201.531 375.273 201.291 374.518 200.811 373.99C200.33 373.463 199.686 373.199 198.877 373.199C197.342 373.199 196.445 374.178 196.188 376.135C196.105 376.756 196.064 377.611 196.064 378.701C196.064 380.611 196.293 381.936 196.75 382.674C197.207 383.412 197.934 383.781 198.93 383.781ZM216.59 388H210.648V368.98H216.59V388ZM210.297 364.076C210.297 363.232 210.602 362.541 211.211 362.002C211.82 361.463 212.611 361.193 213.584 361.193C214.557 361.193 215.348 361.463 215.957 362.002C216.566 362.541 216.871 363.232 216.871 364.076C216.871 364.92 216.566 365.611 215.957 366.15C215.348 366.689 214.557 366.959 213.584 366.959C212.611 366.959 211.82 366.689 211.211 366.15C210.602 365.611 210.297 364.92 210.297 364.076ZM230.963 382.656C230.963 382.152 230.699 381.748 230.172 381.443C229.645 381.139 228.643 380.822 227.166 380.494C225.689 380.166 224.471 379.738 223.51 379.211C222.549 378.672 221.816 378.021 221.312 377.26C220.809 376.498 220.557 375.625 220.557 374.641C220.557 372.895 221.277 371.459 222.719 370.334C224.16 369.197 226.047 368.629 228.379 368.629C230.887 368.629 232.902 369.197 234.426 370.334C235.949 371.471 236.711 372.965 236.711 374.816H230.77C230.77 373.293 229.967 372.531 228.361 372.531C227.74 372.531 227.219 372.707 226.797 373.059C226.375 373.398 226.164 373.826 226.164 374.342C226.164 374.869 226.422 375.297 226.938 375.625C227.453 375.953 228.273 376.223 229.398 376.434C230.535 376.645 231.531 376.896 232.387 377.189C235.246 378.174 236.676 379.938 236.676 382.48C236.676 384.215 235.902 385.627 234.355 386.717C232.82 387.807 230.828 388.352 228.379 388.352C226.75 388.352 225.297 388.059 224.02 387.473C222.742 386.887 221.746 386.09 221.031 385.082C220.316 384.074 219.959 383.014 219.959 381.9H225.496C225.52 382.779 225.812 383.424 226.375 383.834C226.938 384.232 227.658 384.432 228.537 384.432C229.346 384.432 229.949 384.268 230.348 383.939C230.758 383.611 230.963 383.184 230.963 382.656ZM249.414 388.352C246.496 388.352 244.135 387.484 242.33 385.75C240.525 384.004 239.623 381.736 239.623 378.947V378.455C239.623 376.51 239.98 374.793 240.695 373.305C241.422 371.816 242.477 370.668 243.859 369.859C245.242 369.039 246.883 368.629 248.781 368.629C251.453 368.629 253.562 369.461 255.109 371.125C256.656 372.777 257.43 375.086 257.43 378.051V380.354H245.652C245.863 381.42 246.326 382.258 247.041 382.867C247.756 383.477 248.682 383.781 249.818 383.781C251.693 383.781 253.158 383.125 254.213 381.812L256.92 385.012C256.182 386.031 255.133 386.846 253.773 387.455C252.426 388.053 250.973 388.352 249.414 388.352ZM248.746 373.199C247.012 373.199 245.98 374.348 245.652 376.645H251.629V376.188C251.652 375.238 251.412 374.506 250.908 373.99C250.404 373.463 249.684 373.199 248.746 373.199Z" fill="#D8A1D5"/>
<path d="M119.254 455H116.178V442.203H119.254V455ZM129.563 451.458L128.729 452.293V455H125.767V441.491H128.729V448.663L129.027 448.268L131.26 445.49H134.811L131.479 449.401L135.03 455H131.638L129.563 451.458ZM138.309 445.49L138.405 446.606C139.062 445.745 139.967 445.314 141.121 445.314C142.111 445.314 142.85 445.61 143.336 446.202C143.828 446.794 144.083 447.685 144.101 448.874V455H141.13V448.997C141.13 448.517 141.033 448.165 140.84 447.942C140.646 447.714 140.295 447.6 139.785 447.6C139.205 447.6 138.774 447.828 138.493 448.285V455H135.531V445.49H138.309ZM145.375 450.157C145.375 449.208 145.56 448.364 145.929 447.626C146.298 446.882 146.828 446.311 147.52 445.912C148.211 445.514 149.022 445.314 149.954 445.314C151.378 445.314 152.5 445.757 153.32 446.642C154.141 447.521 154.551 448.719 154.551 450.236V450.342C154.551 451.824 154.138 453.002 153.312 453.875C152.491 454.742 151.378 455.176 149.972 455.176C148.618 455.176 147.531 454.771 146.711 453.963C145.891 453.148 145.448 452.047 145.384 450.658L145.375 450.157ZM148.337 450.342C148.337 451.221 148.475 451.865 148.75 452.275C149.025 452.686 149.433 452.891 149.972 452.891C151.026 452.891 151.565 452.079 151.589 450.456V450.157C151.589 448.452 151.044 447.6 149.954 447.6C148.964 447.6 148.428 448.335 148.346 449.806L148.337 450.342ZM164.069 451.098L165.027 445.49H167.866L165.625 455H163.12L161.547 449.357L159.965 455H157.46L155.219 445.49H158.058L158.998 451.229L160.51 445.49H162.575L164.069 451.098ZM130.135 478.197C130.135 477.295 129.812 476.592 129.168 476.088C128.535 475.584 127.416 475.062 125.811 474.523C124.205 473.984 122.893 473.463 121.873 472.959C118.557 471.33 116.898 469.092 116.898 466.244C116.898 464.826 117.309 463.578 118.129 462.5C118.961 461.41 120.133 460.566 121.645 459.969C123.156 459.359 124.855 459.055 126.742 459.055C128.582 459.055 130.229 459.383 131.682 460.039C133.146 460.695 134.283 461.633 135.092 462.852C135.9 464.059 136.305 465.441 136.305 467H130.152C130.152 465.957 129.83 465.148 129.186 464.574C128.553 464 127.691 463.713 126.602 463.713C125.5 463.713 124.627 463.959 123.982 464.451C123.35 464.932 123.033 465.547 123.033 466.297C123.033 466.953 123.385 467.551 124.088 468.09C124.791 468.617 126.027 469.168 127.797 469.742C129.566 470.305 131.02 470.914 132.156 471.57C134.922 473.164 136.305 475.361 136.305 478.162C136.305 480.4 135.461 482.158 133.773 483.436C132.086 484.713 129.771 485.352 126.83 485.352C124.756 485.352 122.875 484.982 121.188 484.244C119.512 483.494 118.246 482.475 117.391 481.186C116.547 479.885 116.125 478.391 116.125 476.703H122.312C122.312 478.074 122.664 479.088 123.367 479.744C124.082 480.389 125.236 480.711 126.83 480.711C127.85 480.711 128.652 480.494 129.238 480.061C129.836 479.615 130.135 478.994 130.135 478.197ZM139.199 475.314C139.199 473.416 139.568 471.729 140.307 470.252C141.045 468.764 142.105 467.621 143.488 466.824C144.871 466.027 146.494 465.629 148.357 465.629C151.205 465.629 153.449 466.514 155.09 468.283C156.73 470.041 157.551 472.438 157.551 475.473V475.684C157.551 478.648 156.725 481.004 155.072 482.75C153.432 484.484 151.205 485.352 148.393 485.352C145.686 485.352 143.512 484.543 141.871 482.926C140.23 481.297 139.346 479.094 139.217 476.316L139.199 475.314ZM145.123 475.684C145.123 477.441 145.398 478.73 145.949 479.551C146.5 480.371 147.314 480.781 148.393 480.781C150.502 480.781 151.58 479.158 151.627 475.912V475.314C151.627 471.904 150.537 470.199 148.357 470.199C146.377 470.199 145.305 471.67 145.141 474.611L145.123 475.684ZM168.953 480.781C169.785 480.781 170.43 480.559 170.887 480.113C171.344 479.656 171.566 479.023 171.555 478.215H177.109C177.109 480.301 176.359 482.012 174.859 483.348C173.371 484.684 171.449 485.352 169.094 485.352C166.328 485.352 164.148 484.484 162.555 482.75C160.961 481.016 160.164 478.613 160.164 475.543V475.297C160.164 473.375 160.516 471.682 161.219 470.217C161.934 468.74 162.959 467.609 164.295 466.824C165.631 466.027 167.213 465.629 169.041 465.629C171.514 465.629 173.477 466.314 174.93 467.686C176.383 469.057 177.109 470.914 177.109 473.258H171.555C171.555 472.273 171.314 471.518 170.834 470.99C170.354 470.463 169.709 470.199 168.9 470.199C167.365 470.199 166.469 471.178 166.211 473.135C166.129 473.756 166.088 474.611 166.088 475.701C166.088 477.611 166.316 478.936 166.773 479.674C167.23 480.412 167.957 480.781 168.953 480.781ZM186.613 485H180.672V465.98H186.613V485ZM180.32 461.076C180.32 460.232 180.625 459.541 181.234 459.002C181.844 458.463 182.635 458.193 183.607 458.193C184.58 458.193 185.371 458.463 185.98 459.002C186.59 459.541 186.895 460.232 186.895 461.076C186.895 461.92 186.59 462.611 185.98 463.15C185.371 463.689 184.58 463.959 183.607 463.959C182.635 463.959 181.844 463.689 181.234 463.15C180.625 462.611 180.32 461.92 180.32 461.076ZM201.742 485C201.531 484.613 201.344 484.045 201.18 483.295C200.09 484.666 198.566 485.352 196.609 485.352C194.816 485.352 193.293 484.812 192.039 483.734C190.785 482.645 190.158 481.279 190.158 479.639C190.158 477.576 190.92 476.018 192.443 474.963C193.967 473.908 196.182 473.381 199.088 473.381H200.916V472.379C200.916 470.633 200.16 469.76 198.648 469.76C197.242 469.76 196.539 470.451 196.539 471.834H190.615C190.615 469.994 191.395 468.5 192.953 467.352C194.523 466.203 196.521 465.629 198.947 465.629C201.373 465.629 203.289 466.221 204.695 467.404C206.102 468.588 206.822 470.211 206.857 472.273V480.693C206.881 482.439 207.15 483.775 207.666 484.701V485H201.742ZM198.033 481.133C198.771 481.133 199.381 480.975 199.861 480.658C200.354 480.342 200.705 479.984 200.916 479.586V476.545H199.193C197.131 476.545 196.1 477.471 196.1 479.322C196.1 479.861 196.281 480.301 196.645 480.641C197.008 480.969 197.471 481.133 198.033 481.133ZM217.152 485H211.211V458H217.152V485Z" fill="#E0C45E"/>
<path d="M97.95 266.468H90.6V259.051C90.6 258.772 90.4894 258.505 90.2925 258.308C90.0955 258.111 89.8285 258.001 89.55 258.001H45.45C45.1715 258.001 44.9045 258.111 44.7075 258.308C44.5106 258.505 44.4 258.772 44.4 259.051V266.468H37.05C36.7715 266.468 36.5045 266.578 36.3075 266.775C36.1106 266.972 36 267.239 36 267.518V298.951C36 299.229 36.1106 299.496 36.3075 299.693C36.5045 299.89 36.7715 300.001 37.05 300.001H97.95C98.2285 300.001 98.4955 299.89 98.6925 299.693C98.8894 299.496 99 299.229 99 298.951V267.518C99 267.239 98.8894 266.972 98.6925 266.775C98.4955 266.578 98.2285 266.468 97.95 266.468ZM82.2 260.101H88.5V266.401H86.4V263.251C86.4 262.972 86.2894 262.705 86.0925 262.508C85.8955 262.311 85.6285 262.201 85.35 262.201H82.2V260.101ZM54.9 260.101H80.1V262.201H54.9V260.101ZM84.3 264.301V266.468H50.7V264.301H84.3ZM46.5 260.101H52.8V262.201H49.65C49.3715 262.201 49.1045 262.311 48.9075 262.508C48.7106 262.705 48.6 262.972 48.6 263.251V266.401H46.5V260.101ZM96.9 297.901H38.1V268.568H96.9V297.901Z" fill="#94D7B5"/>
<path d="M50.7 293.701C52.7767 293.701 54.8068 293.085 56.5335 291.931C58.2602 290.777 59.606 289.137 60.4007 287.219C61.1955 285.3 61.4034 283.189 60.9983 281.152C60.5931 279.115 59.5931 277.244 58.1246 275.776C56.6562 274.307 54.7853 273.307 52.7485 272.902C50.7117 272.497 48.6005 272.705 46.6818 273.5C44.7632 274.295 43.1233 275.64 41.9696 277.367C40.8158 279.094 40.2 281.124 40.2 283.201C40.2031 285.984 41.3103 288.653 43.2788 290.622C45.2472 292.59 47.9162 293.698 50.7 293.701ZM50.7 291.601C48.8352 291.601 47.024 290.977 45.555 289.828L48.578 286.805C49.2165 287.195 49.95 287.401 50.6979 287.401C51.4458 287.401 52.1793 287.195 52.8179 286.805L55.845 289.828C54.376 290.977 52.5648 291.601 50.7 291.601ZM48.6 283.201C48.6 282.785 48.7232 282.379 48.9539 282.034C49.1847 281.689 49.5127 281.419 49.8964 281.26C50.2801 281.101 50.7023 281.06 51.1097 281.141C51.5171 281.222 51.8912 281.422 52.1849 281.716C52.4786 282.009 52.6786 282.384 52.7597 282.791C52.8407 283.198 52.7991 283.62 52.6402 284.004C52.4812 284.388 52.2121 284.716 51.8667 284.947C51.5214 285.177 51.1154 285.301 50.7 285.301C50.1431 285.301 49.6089 285.079 49.2151 284.685C48.8213 284.292 48.6 283.758 48.6 283.201ZM59.1 283.201C59.1003 285.065 58.4763 286.877 57.3276 288.346L54.3047 285.323C54.6941 284.684 54.9 283.951 54.9 283.203C54.9 282.455 54.6941 281.721 54.3047 281.083L57.3276 278.056C58.4763 279.525 59.1003 281.336 59.1 283.201ZM50.7 274.801C52.5648 274.8 54.376 275.424 55.845 276.573L52.8221 279.596C52.1835 279.207 51.45 279.001 50.7021 279.001C49.9542 279.001 49.2207 279.207 48.5822 279.596L45.555 276.573C47.024 275.424 48.8352 274.8 50.7 274.801ZM44.0724 278.056L47.0954 281.079C46.706 281.717 46.5 282.451 46.5 283.198C46.5 283.946 46.706 284.68 47.0954 285.318L44.0724 288.346C42.9229 286.877 42.2983 285.066 42.2983 283.201C42.2983 281.336 42.9229 279.524 44.0724 278.056Z" fill="#94D7B5"/>
<path d="M60.15 276.901H74.85C75.1285 276.901 75.3956 276.79 75.5925 276.593C75.7894 276.396 75.9 276.129 75.9 275.851V271.651C75.9 271.372 75.7894 271.105 75.5925 270.908C75.3956 270.711 75.1285 270.601 74.85 270.601H60.15C59.8715 270.601 59.6045 270.711 59.4075 270.908C59.2106 271.105 59.1 271.372 59.1 271.651V275.851C59.1 276.129 59.2106 276.396 59.4075 276.593C59.6045 276.79 59.8715 276.901 60.15 276.901ZM61.2 272.701H73.8V274.801H61.2V272.701Z" fill="#94D7B5"/>
<path d="M71.7 279.001H63.3V281.101H71.7V279.001Z" fill="#94D7B5"/>
<path d="M61.2 293.701H59.1V295.801H61.2V293.701Z" fill="#94D7B5"/>
<path d="M75.9 293.701H73.8V295.801H75.9V293.701Z" fill="#94D7B5"/>
<path d="M71.7 293.701H63.3V295.801H71.7V293.701Z" fill="#94D7B5"/>
<path d="M63.3 291.601H71.7V283.201H63.3V291.601ZM65.4 285.301H69.6V289.501H65.4V285.301Z" fill="#94D7B5"/>
<path d="M41.25 295.801H45.45V293.701H42.3V291.601H40.2V294.751C40.2 295.029 40.3106 295.296 40.5076 295.493C40.7045 295.69 40.9715 295.801 41.25 295.801Z" fill="#94D7B5"/>
<path d="M92.7 293.701H89.55V295.801H93.75C94.0285 295.801 94.2955 295.69 94.4925 295.493C94.6894 295.296 94.8 295.029 94.8 294.751V291.601H92.7V293.701Z" fill="#94D7B5"/>
<path d="M42.3 270.601H40.2V272.701H42.3V270.601Z" fill="#94D7B5"/>
<path d="M94.8 270.601H92.7V272.701H94.8V270.601Z" fill="#94D7B5"/>
<path d="M84.3 293.701C86.3767 293.701 88.4068 293.085 90.1335 291.931C91.8602 290.777 93.206 289.137 94.0007 287.219C94.7954 285.3 95.0034 283.189 94.5982 281.152C94.1931 279.115 93.1931 277.244 91.7246 275.776C90.2562 274.307 88.3852 273.307 86.3484 272.902C84.3116 272.497 82.2004 272.705 80.2818 273.5C78.3632 274.295 76.7233 275.64 75.5696 277.367C74.4158 279.094 73.8 281.124 73.8 283.201C73.803 285.984 74.9103 288.653 76.8787 290.622C78.8472 292.59 81.5162 293.698 84.3 293.701ZM84.3 291.601C82.4352 291.601 80.624 290.977 79.155 289.828L82.1779 286.805C82.8165 287.195 83.55 287.401 84.2979 287.401C85.0458 287.401 85.7793 287.195 86.4178 286.805L89.445 289.828C87.976 290.977 86.1648 291.601 84.3 291.601ZM82.2 283.201C82.2 282.785 82.3231 282.379 82.5539 282.034C82.7846 281.689 83.1126 281.419 83.4964 281.26C83.8801 281.101 84.3023 281.06 84.7097 281.141C85.117 281.222 85.4912 281.422 85.7849 281.716C86.0786 282.009 86.2786 282.384 86.3596 282.791C86.4407 283.198 86.3991 283.62 86.2401 284.004C86.0812 284.388 85.812 284.716 85.4667 284.947C85.1213 285.177 84.7153 285.301 84.3 285.301C83.743 285.301 83.2089 285.079 82.8151 284.685C82.4212 284.292 82.2 283.758 82.2 283.201ZM92.7 283.201C92.7002 285.065 92.0763 286.877 90.9276 288.346L87.9046 285.323C88.294 284.684 88.5 283.951 88.5 283.203C88.5 282.455 88.294 281.721 87.9046 281.083L90.9276 278.056C92.0763 279.525 92.7002 281.336 92.7 283.201ZM84.3 274.801C86.1648 274.8 87.976 275.424 89.445 276.573L86.422 279.596C85.7835 279.207 85.05 279.001 84.3021 279.001C83.5542 279.001 82.8207 279.207 82.1821 279.596L79.155 276.573C80.624 275.424 82.4352 274.8 84.3 274.801ZM77.6724 278.056L80.6953 281.079C80.306 281.717 80.1 282.451 80.1 283.198C80.1 283.946 80.306 284.68 80.6953 285.318L77.6724 288.346C76.5229 286.877 75.8983 285.066 75.8983 283.201C75.8983 281.336 76.5229 279.524 77.6724 278.056Z" fill="#94D7B5"/>
<path d="M66.0143 237.198C65.8797 237.1 65.7236 237.037 65.5592 237.012C65.3948 236.987 65.2268 237.002 65.0693 237.055L55.6193 240.205C55.4101 240.275 55.2281 240.408 55.099 240.587C54.9699 240.765 54.9003 240.98 54.9001 241.201V248.551C54.156 248.543 53.4329 248.797 52.8567 249.268C52.2806 249.739 51.8878 250.397 51.7467 251.128C51.6056 251.859 51.7252 252.616 52.0846 253.267C52.444 253.919 53.0206 254.424 53.7138 254.694C54.4071 254.964 55.1733 254.983 55.8789 254.747C56.5846 254.511 57.1851 254.035 57.5759 253.401C57.9667 252.768 58.1232 252.018 58.0179 251.281C57.9127 250.545 57.5525 249.868 57.0001 249.37V246.157L64.3501 243.707V246.451C63.606 246.443 62.8829 246.697 62.3067 247.168C61.7306 247.639 61.3378 248.297 61.1967 249.028C61.0556 249.759 61.1752 250.516 61.5346 251.167C61.8941 251.819 62.4706 252.324 63.1638 252.594C63.8571 252.864 64.6233 252.883 65.3289 252.647C66.0346 252.411 66.6351 251.935 67.0259 251.301C67.4167 250.668 67.5732 249.918 67.4679 249.181C67.3627 248.445 67.0025 247.768 66.4501 247.27V238.051C66.4502 237.884 66.4108 237.72 66.335 237.572C66.2593 237.423 66.1493 237.295 66.0143 237.198ZM54.9001 252.751C54.6924 252.751 54.4894 252.689 54.3167 252.574C54.144 252.458 54.0095 252.294 53.93 252.102C53.8505 251.911 53.8297 251.699 53.8702 251.496C53.9108 251.292 54.0108 251.105 54.1576 250.958C54.3044 250.811 54.4915 250.711 54.6952 250.671C54.8989 250.63 55.11 250.651 55.3019 250.731C55.4937 250.81 55.6577 250.945 55.7731 251.117C55.8885 251.29 55.9501 251.493 55.9501 251.701C55.9501 251.979 55.8394 252.246 55.6425 252.443C55.4456 252.64 55.1785 252.751 54.9001 252.751ZM57.0001 243.944V241.958L64.3501 239.508V241.495L57.0001 243.944ZM64.3501 250.651C64.1424 250.651 63.9394 250.589 63.7667 250.474C63.594 250.358 63.4595 250.194 63.38 250.002C63.3005 249.811 63.2797 249.599 63.3202 249.396C63.3608 249.192 63.4608 249.005 63.6076 248.858C63.7544 248.711 63.9415 248.611 64.1452 248.571C64.3489 248.53 64.56 248.551 64.7519 248.631C64.9437 248.71 65.1077 248.845 65.2231 249.017C65.3385 249.19 65.4001 249.393 65.4001 249.601C65.4001 249.879 65.2894 250.146 65.0925 250.343C64.8956 250.54 64.6285 250.651 64.3501 250.651Z" fill="#94D7B5"/>
<path d="M80.6786 237.174C80.5334 237.078 80.3668 237.02 80.1936 237.005C80.0204 236.989 79.8461 237.017 79.6863 237.086L72.3363 240.236C72.1475 240.317 71.9866 240.451 71.8735 240.623C71.7604 240.794 71.7001 240.995 71.7001 241.201V249.601C70.9559 249.593 70.2329 249.847 69.6567 250.318C69.0806 250.789 68.6877 251.447 68.5467 252.178C68.4056 252.909 68.5252 253.666 68.8846 254.317C69.244 254.969 69.8206 255.474 70.5138 255.744C71.2071 256.014 71.9732 256.033 72.6789 255.797C73.3846 255.561 73.9851 255.085 74.3759 254.451C74.7667 253.818 74.9232 253.068 74.8179 252.331C74.7127 251.595 74.3525 250.918 73.8001 250.42V246.093L80.5138 243.216C80.7026 243.135 80.8635 243 80.9766 242.829C81.0897 242.657 81.15 242.456 81.1501 242.251V238.051C81.1501 237.877 81.1071 237.706 81.0248 237.553C80.9425 237.4 80.8236 237.27 80.6786 237.174ZM71.7001 253.801C71.4924 253.801 71.2894 253.739 71.1167 253.624C70.944 253.508 70.8095 253.344 70.73 253.152C70.6505 252.961 70.6297 252.749 70.6702 252.546C70.7107 252.342 70.8107 252.155 70.9576 252.008C71.1044 251.861 71.2915 251.761 71.4952 251.721C71.6989 251.68 71.91 251.701 72.1019 251.781C72.2937 251.86 72.4577 251.995 72.5731 252.167C72.6885 252.34 72.7501 252.543 72.7501 252.751C72.7501 253.029 72.6394 253.296 72.4425 253.493C72.2456 253.69 71.9785 253.801 71.7001 253.801ZM79.0501 241.559L73.8001 243.808V241.893L79.0501 239.643V241.559Z" fill="#94D7B5"/>
<path d="M46.5116 239.731C45.7271 239.238 44.8004 239.023 43.8792 239.118C42.9579 239.213 42.0949 239.613 41.4275 240.256C41.0284 240.631 40.7128 241.085 40.5013 241.591C40.2898 242.096 40.1872 242.64 40.2001 243.187C40.1903 243.75 40.3017 244.309 40.5269 244.825C40.7521 245.341 41.0858 245.803 41.5052 246.179L45.8837 249.397C46.064 249.53 46.282 249.601 46.5058 249.601C46.7297 249.601 46.9476 249.53 47.128 249.397L51.5737 246.117C51.9719 245.742 52.2869 245.287 52.4982 244.782C52.7095 244.278 52.8123 243.734 52.8001 243.187C52.813 242.64 52.7103 242.096 52.4988 241.591C52.2873 241.085 51.9717 240.631 51.5726 240.256C50.9039 239.624 50.0458 239.231 49.131 239.136C48.2163 239.041 47.2957 239.25 46.5116 239.731ZM50.2507 244.49L46.5001 247.248L42.8251 244.55C42.6487 244.371 42.5111 244.157 42.4208 243.922C42.3305 243.687 42.2894 243.437 42.3001 243.185C42.2895 242.934 42.3306 242.683 42.4209 242.448C42.5112 242.213 42.6488 242 42.8251 241.82C43.2451 241.435 43.7904 241.215 44.3602 241.201C44.8942 241.209 45.4036 241.427 45.7777 241.809C45.9701 241.991 46.2244 242.094 46.4895 242.096C46.7546 242.099 47.0108 242.001 47.2067 241.822C47.6038 241.434 48.1374 241.218 48.6926 241.219C49.2478 241.221 49.7801 241.44 50.1751 241.831C50.3513 242.01 50.4889 242.224 50.5792 242.459C50.6695 242.693 50.7106 242.944 50.7001 243.196C50.7187 243.668 50.5582 244.13 50.2507 244.488V244.49Z" fill="#94D7B5"/>
<path d="M79.0501 249.487C79.0403 250.05 79.1517 250.609 79.3769 251.125C79.6021 251.641 79.9358 252.103 80.3552 252.479L84.7337 255.697C84.914 255.83 85.132 255.901 85.3558 255.901C85.5797 255.901 85.7976 255.83 85.978 255.697L90.4237 252.417C90.8219 252.042 91.1369 251.587 91.3482 251.082C91.5595 250.578 91.6623 250.034 91.6501 249.487C91.663 248.94 91.5603 248.396 91.3488 247.891C91.1373 247.385 90.8217 246.931 90.4226 246.556C89.7546 245.923 88.897 245.528 87.9821 245.432C87.0673 245.336 86.1463 245.544 85.3616 246.024C84.5764 245.533 83.6494 245.318 82.7281 245.414C81.8068 245.511 80.9441 245.912 80.2775 246.556C79.8784 246.931 79.5628 247.385 79.3513 247.891C79.1398 248.396 79.0372 248.94 79.0501 249.487ZM81.6751 248.122C82.0933 247.733 82.6384 247.51 83.2091 247.492C83.7432 247.5 84.2525 247.719 84.6266 248.1C84.8191 248.282 85.0734 248.385 85.3385 248.388C85.6035 248.39 85.8597 248.292 86.0557 248.114C86.4539 247.727 86.9884 247.511 87.5438 247.515C88.0992 247.518 88.6312 247.739 89.0251 248.131C89.2013 248.31 89.3389 248.524 89.4292 248.759C89.5195 248.993 89.5607 249.244 89.5501 249.496C89.5709 249.971 89.4102 250.436 89.1007 250.797L85.3501 253.548L81.6751 250.85C81.4987 250.671 81.3611 250.457 81.2708 250.222C81.1805 249.987 81.1394 249.736 81.1501 249.485C81.1409 249.236 81.1828 248.987 81.273 248.754C81.3633 248.521 81.5001 248.309 81.6751 248.131V248.122Z" fill="#94D7B5"/>
<path d="M65 355H79C79.6 355 80 354.6 80 354V340C80 339.7 79.9 339.5 79.7 339.3L77.7 337.3C77.3 336.9 76.7 336.9 76.3 337.3C75.9 337.7 75.9 338.3 76.3 338.7L76.6 339H76.4L74.7 337.3C74.3 336.9 73.7 336.9 73.3 337.3C72.9 337.7 72.9 338.3 73.3 338.7L73.6 339H73.4L71.7 337.3C71.3 336.9 70.7 336.9 70.3 337.3C69.9 337.7 69.9 338.3 70.3 338.7L70.6 339H65C64.4 339 64 339.4 64 340V354C64 354.6 64.4 355 65 355ZM66 341H78V353H66V341Z" fill="#D8A1D5"/>
<path d="M55 359C54.4 359 54 359.4 54 360V368.4C52.5 370.1 52.7 372.6 54.4 374C56.1 375.4 58.6 375.3 60 373.6C61.3 372.1 61.3 369.8 60 368.3V365H64V384C64 384.6 64.4 385 65 385H66V387H62C62 385.9 61.1 385 60 385H57C56.4 385 56 385.4 56 386V396C56 396.6 56.4 397 57 397H59C60.7 397 62 395.7 62 394V393H71C71.6 393 72 392.6 72 392V385H75C75.6 385 76 384.6 76 384V383H81C81.6 383 82 382.6 82 382V381H84V385C82.9 385 82 385.9 82 387V390C82 390.6 82.4 391 83 391H93C93.6 391 94 390.6 94 390V388C94 386.3 92.7 385 91 385H90V376C90 375.4 89.6 375 89 375H82V374C82 373.4 81.6 373 81 373H80V365H87C87.6 365 88 364.6 88 364V355.6C89.5 353.9 89.3 351.4 87.6 350C86.7 349.2 85.5 348.9 84.3 349.1C82.7 349.4 81.4 350.7 81.1 352.3C80.9 353.5 81.2 354.7 82 355.6V359H80V358C80 357.4 79.6 357 79 357H65C64.4 357 64 357.4 64 358V359H55ZM59 363C58.4 363 58 363.4 58 364V368.8C58 369.1 58.1 369.4 58.3 369.5C58.7 369.9 59 370.4 59 371C59 372.1 58.1 373 57 373C55.9 373 55 372.1 55 371C55 370.4 55.2 369.9 55.7 369.5C55.9 369.3 56 369 56 368.8V361H64V363H59ZM60 394C60 394.6 59.6 395 59 395H58V387H60V394ZM70 391H62V389H67C67.6 389 68 388.6 68 388V385H70V391ZM80 381H76V380C76 379.4 75.6 379 75 379C74.4 379 74 379.4 74 380V383H66V375H80V381ZM92 388V389H84V387H91C91.6 387 92 387.4 92 388ZM88 377V385H86V380C86 379.4 85.6 379 85 379H82V377H88ZM83 361C83.6 361 84 360.6 84 360V355.2C84 354.9 83.9 354.6 83.7 354.5C83.2 354 82.9 353.3 83.1 352.7C83.3 351.9 83.9 351.3 84.7 351.1C85.8 350.9 86.8 351.6 87 352.7C87 352.8 87 352.9 87 353.1C87 353.7 86.8 354.2 86.3 354.6C86.1 354.8 86 355.1 86 355.3V363H73C72.4 363 72 362.6 72 362C72 361.4 72.4 361 73 361H83ZM66 359H73C71.3 359 70 360.3 70 362C70 363.7 71.3 365 73 365H78V373H66V359Z" fill="#D8A1D5"/>
<path d="M49 383H61C61.6 383 62 382.6 62 382C62 381.4 61.6 381 61 381H49C48.4 381 48 381.4 48 382C48 382.6 48.4 383 49 383Z" fill="#D8A1D5"/>
<path d="M55 377C54.4 377 54 377.4 54 378C54 378.6 54.4 379 55 379H61C61.6 379 62 378.6 62 378C62 377.4 61.6 377 61 377H55Z" fill="#D8A1D5"/>
<path d="M55 355H61C61.6 355 62 354.6 62 354C62 353.4 61.6 353 61 353H55C54.4 353 54 353.4 54 354C54 354.6 54.4 355 55 355Z" fill="#D8A1D5"/>
<path d="M49 351H61C61.6 351 62 350.6 62 350C62 349.4 61.6 349 61 349H49C48.4 349 48 349.4 48 350C48 350.6 48.4 351 49 351Z" fill="#D8A1D5"/>
<path d="M74 347C75.1046 347 76 346.105 76 345C76 343.895 75.1046 343 74 343C72.8954 343 72 343.895 72 345C72 346.105 72.8954 347 74 347Z" fill="#D8A1D5"/>
<path d="M85.8708 467.119V466.369C86.3709 466.453 86.871 466.453 87.371 466.453C93.4552 466.453 95.0387 460.619 95.0387 460.535C95.122 460.119 94.872 459.619 94.4553 459.535C90.0381 458.535 87.371 460.285 85.9542 462.035V461.202H84.2873V467.119C81.2036 467.369 78.4532 469.036 76.7863 471.537V445.367H73.4526V442.033H80.1201V437.032H68.3686V445.367H63.2846C62.8679 440.283 58.4507 436.616 53.3667 437.032C48.2827 437.449 44.6155 441.95 45.0323 447.034C45.449 451.451 48.9494 454.951 53.3667 455.368V487.039H76.703V482.538C79.7867 487.122 85.9542 488.372 90.5381 485.372C95.122 482.371 96.3722 476.121 93.3718 471.537C91.7049 468.953 88.9546 467.369 85.8708 467.119ZM93.1218 461.035C91.955 463.786 89.1213 465.286 86.2042 464.702C86.7876 463.286 88.7045 460.452 93.1218 461.035ZM75.0361 447.034V453.701H73.3692V447.034H75.0361ZM70.0355 447.034H71.7024V453.701H70.0355V447.034ZM70.0355 438.699H78.3699V440.366H71.7024V445.367H70.0355V438.699ZM68.3686 453.701H59.4508C61.6177 452.118 63.0346 449.701 63.2846 447.034H68.3686V453.701ZM55.0335 447.034H61.6177C61.201 450.534 58.4507 453.284 55.0335 453.618V447.034ZM53.3667 453.618C52.2832 453.534 51.2831 453.118 50.3663 452.618L53.3667 448.7V453.618ZM61.6177 445.367H55.0335V438.782C58.534 439.116 61.2843 441.866 61.6177 445.367ZM53.3667 438.782V444.533L48.7827 441.033C49.9496 439.783 51.6164 438.949 53.3667 438.782ZM46.6991 446.2C46.6991 444.867 47.0325 443.533 47.7826 442.366L53.0333 446.367L49.0328 451.617C47.5326 450.201 46.6991 448.284 46.6991 446.2ZM75.0361 485.372H55.0335V455.368H75.0361V485.372ZM85.0374 485.372C80.4535 485.372 76.703 481.621 76.703 477.037C76.703 472.453 80.4535 468.703 85.0374 468.703C89.6213 468.703 93.3718 472.453 93.3718 477.037C93.3718 481.621 89.6213 485.372 85.0374 485.372Z" fill="#E0C45E"/>
<path d="M88.3712 473.704H86.7043V475.37H88.3712V473.704Z" fill="#E0C45E"/>
<path d="M86.7043 475.371H85.0374V477.037H86.7043V475.371Z" fill="#E0C45E"/>
<path d="M82.5371 470.37H80.8702V472.037H82.5371V470.37Z" fill="#E0C45E"/>
<path d="M63.3679 470.37H56.7004V477.037H61.7011V482.038H68.3686V475.371H63.3679V470.37ZM58.3673 475.371V472.037H61.7011V475.371H58.3673ZM66.7017 477.037V480.371H63.3679V477.037H66.7017Z" fill="#E0C45E"/>
<path d="M64.7014 470.537L69.452 475.287L74.2026 470.537L69.452 465.786L64.7014 470.537ZM69.3687 472.954L67.035 470.62L69.3687 468.286L71.7023 470.62L69.3687 472.954Z" fill="#E0C45E"/>
<path d="M58.3673 460.369H56.7004V462.035H58.3673V460.369Z" fill="#E0C45E"/>
<path d="M60.0342 458.702H58.3673V460.369H60.0342V458.702Z" fill="#E0C45E"/>
<path d="M65.0348 462.035H63.368V463.702H65.0348V462.035Z" fill="#E0C45E"/>
<path d="M63.3679 463.702H61.701V465.369H63.3679V463.702Z" fill="#E0C45E"/>
<path d="M150 547C146.133 547 143 550.133 143 554C143 557.867 146.133 561 150 561C153.867 561 157 557.867 157 554C157 550.133 153.867 547 150 547Z" fill="#ECC08D"/>
<path d="M174 547C170.133 547 167 550.133 167 554C167 557.867 170.133 561 174 561C177.867 561 181 557.867 181 554C181 550.133 177.867 547 174 547Z" fill="#51ADE0"/>
<path d="M198 547C194.133 547 191 550.133 191 554C191 557.867 194.133 561 198 561C201.867 561 205 557.867 205 554C205 550.133 201.867 547 198 547Z" fill="#ECC08D"/>
<path d="M222 547C218.133 547 215 550.133 215 554C215 557.867 218.133 561 222 561C225.867 561 229 557.867 229 554C229 550.133 225.867 547 222 547Z" fill="#ECC08D"/>
</svg>
