<svg width="52" height="52" viewBox="0 0 52 52" fill="none" xmlns="http://www.w3.org/2000/svg">
<circle cx="26" cy="26" r="26" fill="white"/>
<path d="M23.2772 11.7103C23.5067 11.0688 24.3667 10.9579 24.7515 11.5201L29.9079 19.0545C30.0586 19.2746 30.3054 19.4095 30.572 19.4173L39.698 19.686C40.379 19.706 40.7503 20.4897 40.3344 21.0294L34.7623 28.2617C34.5995 28.473 34.5475 28.7493 34.6224 29.0053L37.187 37.7677C37.3784 38.4216 36.7478 39.0168 36.106 38.7881L27.5058 35.7236C27.2545 35.634 26.9756 35.67 26.7553 35.8204L19.2143 40.9671C18.6516 41.3512 17.8906 40.9355 17.9098 40.2544L18.1667 31.1281C18.1742 30.8615 18.0538 30.6073 17.8427 30.4442L10.6176 24.8628C10.0784 24.4463 10.2387 23.5941 10.8923 23.4019L19.6513 20.8261C19.9072 20.7508 20.1117 20.5578 20.2016 20.3066L23.2772 11.7103Z" fill="#FFCD1A"/>
<circle cx="26" cy="27" r="6" fill="white"/>
<circle cx="25.5003" cy="27.7143" r="2.57143" fill="#FFCC19"/>
<circle cx="25.5" cy="27.7146" r="1.42857" fill="#51ADE0"/>
<circle cx="26.0712" cy="26.5713" r="0.857143" fill="white"/>
</svg>
